<?xml version="1.0" encoding="utf-8"?>
<!-- Generator: Adobe Illustrator 22.0.0, SVG Export Plug-In . SVG Version: 6.00 Build 0)  -->
<svg version="1.1" id="Layer_1" xmlns="http://www.w3.org/2000/svg" xmlns:xlink="http://www.w3.org/1999/xlink" x="0px" y="0px"
	 width="210px" height="210px" viewBox="0 0 210 210" style="enable-background:new 0 0 210 210;" xml:space="preserve">
<style type="text/css">
	.st0{fill:#353635;}
	.st1{fill:#D5A93D;}
	.st2{fill:#C8962C;}
	.st3{fill:#282828;}
</style>
<g>
	<g>
		<g>
			<g>
				<path class="st0" d="M99,59.4c-4,0.7-7.9,2-11.7,3.6c-7.4,3.2-14.1,8.3-19.3,14.4c-2.6,3.1-4.9,6.5-6.7,10.1
					c-1.9,3.6-3.3,7.5-4.3,11.5c0,0.1,0,0.2-0.1,0.3c-0.1,0.5-0.2,0.9-0.3,1.4c-0.4,1.7-0.6,3.3-0.9,5c-0.1,0.5-0.1,1.1-0.2,1.6
					c-0.1,0.6-0.1,1.1-0.1,1.7c-0.1,1.2-0.1,2.4-0.1,3.5c0,2.6,0.2,5.3,0.6,7.9c0-0.1,0-0.2,0-0.3c0.3,2,0.7,3.9,1.2,5.9
					c0.5,2,1.2,4,2,6c0.7,1.9,1.6,3.7,2.5,5.5c0.9,1.8,2,3.4,3.1,5.1c2.4,3.5,5.2,6.7,8.4,9.5c3.1,2.8,6.6,5.2,10.3,7.2
					c3.1,1.7,6.3,3,9.7,4c3.5,1.1,7.1,1.8,10.8,2.1c0,0,0,0-0.1,0c1.9,0.2,3.9,0.3,5.9,0.3c2.1,0,4.2-0.2,6.3-0.4
					c4.2-0.5,8.3-1.6,12.3-3.1c4.1-1.6,8-3.7,11.6-6.2c3.4-2.4,6.5-5.2,9.3-8.3c1.5-1.6,2.8-3.4,4.1-5.2c1.2-1.8,2.3-3.6,3.3-5.5
					c1.2-2.2,2.1-4.5,3-6.8c0.3-0.9,0.6-1.9,0.9-2.8c0.2-0.6,0.3-1.1,0.5-1.7c0.1-0.5,0.3-0.9,0.3-1.4c0.3-1.4,0.6-2.9,0.8-4.4
					c0.2-1.3,0.3-2.6,0.4-3.9c0-0.1,0-0.2,0-0.3c0-0.6,0.1-1.3,0.1-1.9c0-0.9,0-1.7,0-2.6c0-1.7-0.2-3.5-0.4-5.2
					c-1-8.4-3.9-16.6-8.5-23.7c-4.5-7-10.7-12.8-17.9-17c-1.9-1.1-3.9-2.1-5.9-2.9c-1.8-0.8-3.7-1.4-5.6-2c-4.1-1.2-8.4-1.8-12.6-2
					c-0.8,0-1.6-0.1-2.4-0.1C105.7,58.5,102.3,58.8,99,59.4L99,59.4L99,59.4z M107.9,60.6c2.3,0,4.5,0.2,6.7,0.5c-0.1,0-0.2,0-0.3,0
					c4.5,0.6,9,1.9,13.2,3.6c2.1,0.9,4.1,1.9,6,3c2,1.2,3.9,2.4,5.7,3.8c3.4,2.7,6.6,5.8,9.3,9.3c2.7,3.5,4.9,7.3,6.7,11.3
					c0.7,1.6,1.3,3.3,1.8,4.9c0.6,1.9,1,3.9,1.4,5.9c0,0.4,0.1,0.7,0.2,1.1c0-0.1,0-0.3-0.1-0.4c0,0.2,0.1,0.4,0.1,0.6
					c0,0,0,0,0-0.1c0,0,0,0,0,0.1c0,0.1,0,0.2,0,0.3c0-0.1,0-0.2,0-0.3c0.3,2.1,0.4,4.1,0.4,6.2c0,1,0,2-0.1,3.1
					c0,0.7-0.1,1.5-0.1,2.2c0,0.1,0,0.2-0.1,0.4c0,0.4-0.1,0.7-0.1,1.1c0,0.2-0.1,0.4-0.1,0.6c-0.3,1.9-0.7,3.9-1.2,5.7
					c0-0.1,0.1-0.1,0.1-0.2c-0.2,0.5-0.3,1.1-0.5,1.7c-0.2,0.7-0.4,1.3-0.6,2c-0.5,1.4-1,2.9-1.6,4.2c-1.7,3.9-3.8,7.5-6.4,10.9
					c-2.7,3.4-5.8,6.5-9.2,9.2c-3.5,2.7-7.4,4.9-11.5,6.7c-4.2,1.8-8.6,2.9-13.1,3.6c-4.4,0.6-8.8,0.6-13.1,0.1
					c-4.6-0.6-9-1.8-13.3-3.6c0.1,0,0.3,0.1,0.4,0.2c-4-1.7-7.8-3.9-11.3-6.6c-1.7-1.3-3.4-2.8-4.9-4.3c-1.6-1.6-3.1-3.3-4.5-5.1
					c0.1,0.1,0.1,0.2,0.2,0.3c-0.3-0.4-0.7-0.9-1-1.3c0,0.1,0.1,0.1,0.1,0.2c-1.2-1.6-2.3-3.4-3.4-5.1c-1-1.8-2-3.7-2.8-5.6
					c0,0.1,0.1,0.2,0.1,0.3c-1.7-4.1-2.9-8.4-3.5-12.9c-0.3-2.4-0.5-4.8-0.5-7.1c0-2.3,0.2-4.5,0.5-6.7c0.2-1.2,0.4-2.4,0.6-3.7
					c0.7-3,1.6-5.9,2.8-8.7c0,0,0,0.1-0.1,0.1c1.8-4.3,4.2-8.2,7-11.9c0,0.1-0.1,0.1-0.1,0.2c2.6-3.4,5.7-6.4,9.1-9.1c0,0,0,0-0.1,0
					c0,0,0.1-0.1,0.1-0.1c0,0,0,0,0,0c0,0,0,0,0,0c3.5-2.7,7.4-4.9,11.4-6.6c4.2-1.7,8.5-2.9,13-3.5
					C103.5,60.7,105.7,60.6,107.9,60.6L107.9,60.6L107.9,60.6z M101.2,61c0,0-0.1,0-0.1,0C101.1,61,101.1,61,101.2,61L101.2,61
					L101.2,61z M67.3,80.1C67.3,80.1,67.3,80.1,67.3,80.1C67.3,80.1,67.3,80.1,67.3,80.1C67.3,80.1,67.3,80.1,67.3,80.1L67.3,80.1
					L67.3,80.1z M57.5,104.3C57.5,104.3,57.5,104.3,57.5,104.3C57.5,104.3,57.5,104.3,57.5,104.3L57.5,104.3L57.5,104.3z
					 M161.8,105.9c0,0.1,0,0.1,0,0.2C161.8,106,161.8,106,161.8,105.9L161.8,105.9L161.8,105.9z M158.5,117.4c0,0.1,0,0.3-0.1,0.4
					C158.5,117.7,158.5,117.5,158.5,117.4L158.5,117.4L158.5,117.4z M154.8,131c0,0.1-0.1,0.2-0.1,0.3
					C154.7,131.2,154.8,131.1,154.8,131L154.8,131L154.8,131z M127.5,158.1c-0.1,0-0.2,0.1-0.3,0.1
					C127.3,158.2,127.4,158.2,127.5,158.1L127.5,158.1L127.5,158.1z M158.6,104.3C158.5,104.2,158.5,104.2,158.6,104.3
					C158.5,104.2,158.5,104.2,158.6,104.3C158.5,104.2,158.5,104.2,158.6,104.3L158.6,104.3L158.6,104.3z M60.9,92.1
					C60.9,92,60.9,92,60.9,92.1C60.9,92,60.9,92,60.9,92.1L60.9,92.1L60.9,92.1z M76.9,71.2C76.9,71.2,76.9,71.2,76.9,71.2
					C76.9,71.2,76.9,71.2,76.9,71.2C76.9,71.2,76.9,71.2,76.9,71.2L76.9,71.2L76.9,71.2z"/>
				<path class="st1" d="M97.2,71.6c-3.9,1.1-7.7,2.8-11.2,5c-3.5,2.2-6.7,4.9-9.4,8c-2.8,3.1-5,6.7-6.7,10.5
					c-0.5,1.1-0.9,2.1-1.3,3.2c-2.9,8-3.3,16.9-1.2,25.2c1,4.1,2.7,8,4.9,11.5c2.1,3.6,4.8,6.8,7.9,9.6c3.2,2.9,6.8,5.3,10.8,7.1
					c1.9,0.9,3.9,1.6,5.9,2.2c2.1,0.6,4.3,1,6.4,1.3c4.2,0.6,8.6,0.4,12.8-0.3c4.3-0.7,8.5-2.2,12.3-4.2c3.8-1.9,7.2-4.5,10.3-7.4
					c1.4-1.4,2.7-2.9,3.9-4.4c1.3-1.7,2.5-3.5,3.6-5.4c2.2-3.8,3.7-8,4.6-12.3c0.9-4.1,1.1-8.4,0.7-12.6c-0.4-4.1-1.4-8.2-3-12.1
					c-0.8-2-1.8-3.9-2.9-5.7c-1-1.8-2.2-3.4-3.5-5c-5.2-6.6-12.5-11.5-20.5-14c-4-1.2-8.1-1.9-12.2-2c-0.2,0-0.5,0-0.7,0
					C104.9,69.9,101,70.5,97.2,71.6L97.2,71.6L97.2,71.6z M114.2,72c-0.1,0-0.2,0-0.2,0c3.7,0.5,7.2,1.5,10.7,2.9
					c3.2,1.4,6.2,3.2,8.9,5.3c2.7,2.1,5.1,4.5,7.2,7.2c2.1,2.8,3.9,5.8,5.3,9c0,0,0,0,0-0.1c0.7,1.7,1.3,3.3,1.8,5.1
					c0.5,1.8,0.9,3.7,1.1,5.6c0-0.1,0-0.2,0-0.3c0.5,3.7,0.5,7.5,0,11.2c0,0,0-0.1,0-0.1c0,0.1,0,0.1,0,0.2c0,0.1,0,0.1,0,0.2
					c0,0,0-0.1,0-0.1c-0.5,3.6-1.5,7.1-2.9,10.4c0-0.1,0.1-0.2,0.1-0.3c-1.4,3.3-3.2,6.3-5.3,9.1c-2.2,2.7-4.6,5.2-7.4,7.3
					c0,0,0.1-0.1,0.1-0.1c0,0-0.1,0.1-0.1,0.1c-0.1,0-0.1,0.1-0.2,0.1c0,0,0.1-0.1,0.1-0.1c-2.8,2.1-5.7,3.8-8.9,5.2
					c-3.3,1.4-6.8,2.3-10.3,2.8c-3.7,0.5-7.4,0.5-11.1,0c-3.7-0.5-7.2-1.5-10.6-2.9c-3.1-1.4-6.1-3.1-8.8-5.2
					c-2.8-2.2-5.3-4.7-7.5-7.5c0,0,0,0,0,0c-2.1-2.8-3.9-5.9-5.3-9.1c0,0,0,0,0,0.1c-1.3-3.2-2.2-6.6-2.7-10.1c0,0,0,0,0,0
					c-0.3-2-0.4-3.9-0.4-5.9c0-1.8,0.2-3.6,0.4-5.3c0.3-1.8,0.6-3.6,1.1-5.3c0.5-1.7,1.1-3.4,1.8-5.1c1.4-3.1,3.2-6.1,5.3-8.8
					c0,0.1-0.1,0.1-0.1,0.2c2.2-2.8,4.7-5.3,7.5-7.5c0,0,0,0-0.1,0c0,0,0.1-0.1,0.1-0.1c0,0,0,0,0,0c0,0,0,0,0,0
					c2.8-2.1,5.8-3.9,9.1-5.3c-0.1,0-0.1,0-0.2,0.1c3.4-1.4,6.9-2.4,10.5-2.9c0,0,0,0,0,0C106.9,71.5,110.6,71.5,114.2,72L114.2,72
					L114.2,72z M93.1,74.3C93.1,74.3,93.1,74.3,93.1,74.3C93.1,74.3,93.1,74.3,93.1,74.3C93.1,74.3,93.1,74.3,93.1,74.3L93.1,74.3
					L93.1,74.3z M124.5,74.8C124.5,74.8,124.5,74.8,124.5,74.8C124.5,74.8,124.5,74.8,124.5,74.8L124.5,74.8L124.5,74.8z
					 M140.9,87.4C140.9,87.5,140.9,87.5,140.9,87.4C140.9,87.5,140.9,87.5,140.9,87.4L140.9,87.4L140.9,87.4z M146.1,96.4
					c0,0.1,0.1,0.1,0.1,0.2C146.2,96.5,146.2,96.4,146.1,96.4L146.1,96.4L146.1,96.4z M68.1,107.2c0,0,0,0.1,0,0.1
					C68.1,107.3,68.1,107.3,68.1,107.2L68.1,107.2L68.1,107.2z M68.1,118.4C68.1,118.4,68.1,118.5,68.1,118.4
					C68.1,118.5,68.1,118.5,68.1,118.4C68.1,118.4,68.1,118.4,68.1,118.4L68.1,118.4L68.1,118.4z M141.1,137c0,0-0.1,0.1-0.1,0.1
					C141,137.1,141.1,137,141.1,137L141.1,137L141.1,137z M133.5,144.6C133.5,144.6,133.5,144.6,133.5,144.6
					C133.5,144.6,133.5,144.6,133.5,144.6C133.5,144.6,133.5,144.6,133.5,144.6L133.5,144.6L133.5,144.6z M149,118
					C149,118,149,117.9,149,118c0-0.1,0-0.1,0-0.1C149,117.9,149,118,149,118L149,118L149,118z M83.9,80
					C83.9,80.1,83.8,80.1,83.9,80C83.8,80.1,83.9,80.1,83.9,80C83.9,80,83.9,80,83.9,80L83.9,80L83.9,80z"/>
				<path class="st1" d="M96.9,77.9c-1.2,3.8-2.5,7.6-3.8,11.3c-1.2,3.5-2.3,7-3.5,10.5c-1.2,3.5-2.4,7.1-3.5,10.6
					c-1.2,3.6-2.4,7.3-3.6,11c-0.5,1.6-1,3.1-1.5,4.7c-0.3,0.9-0.6,1.8-0.9,2.7c-0.3,0.9-0.6,1.9-0.9,2.8c-0.1,0.4,0.1,0.7,0.5,0.8
					c0.2,0,0.4,0,0.5-0.1c0.2-0.1,0.2-0.2,0.3-0.4c0.4-0.9,0.7-1.9,1-2.8c0.3-1,0.6-2,1-2.9c0.6-1.7,1.1-3.4,1.7-5.1
					c1.2-3.7,2.4-7.3,3.6-11c1.1-3.5,2.3-7.1,3.4-10.6c1.1-3.6,2.3-7.1,3.4-10.7c1.1-3.6,2.2-7.1,3.3-10.6c0.1-0.2-0.1-0.5-0.3-0.5
					c0,0-0.1,0-0.1,0C97.1,77.6,96.9,77.7,96.9,77.9L96.9,77.9L96.9,77.9z"/>
				<path class="st1" d="M93.7,101.5c-0.1,0.1-0.1,0.1-0.2,0.2c-0.1,0.2-0.1,0.3-0.2,0.5c-0.1,0.4-0.2,0.7-0.3,1.1
					c-0.3,0.8-0.5,1.7-0.7,2.5c-0.5,1.5-0.9,3-1.4,4.5c-0.9,2.8-1.7,5.7-2.6,8.5c-1.1,3.3-2.1,6.7-3.2,10c-0.5,1.5-0.9,3-1.4,4.5
					c-0.5,1.6-1,3.2-1.6,4.8c-0.1,0.2,0.1,0.4,0.3,0.4c0.2,0.1,0.4-0.1,0.4-0.3c0.5-1.5,1-3.1,1.5-4.6c0.5-1.5,1-3,1.5-4.5
					c1.1-3.3,2.2-6.7,3.3-10c0.5-1.4,0.9-2.8,1.4-4.2c0.5-1.4,0.9-2.7,1.4-4c0.5-1.5,1-3,1.6-4.5c0.3-0.8,0.5-1.5,0.8-2.3
					c0.1-0.4,0.3-0.7,0.4-1.1c0.1-0.2,0.2-0.4,0.2-0.6c0-0.1,0.1-0.3,0.1-0.4c0-0.3-0.1-0.6-0.4-0.7c-0.1-0.1-0.3-0.1-0.4-0.1
					C94.1,101.3,93.8,101.4,93.7,101.5L93.7,101.5L93.7,101.5z"/>
				<path class="st1" d="M105.3,85.6c-0.4,1.1-0.7,2.2-1.1,3.3c-0.4,1.1-0.8,2.2-1.1,3.3c-0.4,1.1-0.8,2.2-1.2,3.4
					c-0.4,1.1-0.8,2.3-1.1,3.4c-0.7,2.1-1.4,4.2-2.1,6.3c-0.4,1.1-0.7,2.2-1.1,3.3c-0.2,0.5-0.4,1.1-0.6,1.6
					c-0.1,0.3-0.2,0.6-0.3,0.8c0,0.1-0.1,0.2-0.1,0.3c0,0.3,0.2,0.5,0.4,0.6c0.3,0.1,0.5,0,0.6-0.3c0-0.1,0.1-0.2,0.1-0.2
					c0.1-0.2,0.1-0.5,0.2-0.7c0.2-0.6,0.3-1.1,0.5-1.7c0.3-1.1,0.7-2.2,1-3.3c0.7-2.2,1.4-4.3,2.1-6.5c0.3-1.1,0.7-2.1,1-3.2
					c0.4-1.1,0.7-2.3,1.1-3.4c0.4-1.1,0.7-2.3,1.1-3.4c0.4-1.2,0.8-2.3,1.1-3.5c0.1-0.2-0.1-0.4-0.3-0.4c0,0-0.1,0-0.1,0
					C105.5,85.3,105.4,85.5,105.3,85.6L105.3,85.6L105.3,85.6z"/>
				<path class="st1" d="M94.8,117.8c-0.5,1.7-1.1,3.3-1.7,5c-0.3,0.8-0.6,1.6-0.9,2.5c-0.2,0.4-0.3,0.9-0.5,1.3
					c-0.1,0.2-0.1,0.4-0.2,0.6c0,0.1-0.1,0.2-0.1,0.2c0,0.1,0,0.2,0,0.3c0,0.2,0.2,0.5,0.4,0.5c0.2,0.1,0.5,0,0.6-0.3
					c0.2-0.3,0.2-0.6,0.3-0.8c0.1-0.5,0.3-0.9,0.4-1.4c0.3-0.8,0.5-1.6,0.7-2.5c0.5-1.8,1.1-3.5,1.6-5.3c0.1-0.2-0.1-0.4-0.3-0.5
					c0,0-0.1,0-0.1,0C95,117.5,94.9,117.6,94.8,117.8L94.8,117.8L94.8,117.8z"/>
				<path class="st1" d="M105.8,101.2c-1,3.1-2,6.2-3.1,9.3c-1.1,3-2.2,6.1-3.2,9.1c-1,2.8-2,5.6-3,8.5c-0.5,1.5-1,3-1.5,4.5
					c-0.2,0.7-0.5,1.4-0.7,2.1c-0.2,0.7-0.5,1.4-0.7,2.1c-0.1,0.4,0.1,0.9,0.4,1.1c0.2,0.1,0.5,0.2,0.7,0.1c0.2-0.1,0.5-0.2,0.6-0.4
					c0.1-0.3,0.2-0.6,0.4-0.9c0.1-0.4,0.2-0.7,0.3-1.1c0.2-0.7,0.4-1.3,0.6-2c0.5-1.5,0.9-3,1.4-4.5c0.9-2.9,1.7-5.9,2.6-8.8
					c0.9-3.1,1.8-6.1,2.7-9.2c0.3-0.9,0.5-1.8,0.8-2.7c0.3-0.8,0.5-1.6,0.8-2.4c0.5-1.5,1-3,1.5-4.5c0.1-0.2-0.1-0.4-0.2-0.4
					c0,0-0.1,0-0.1,0C106,100.9,105.9,101,105.8,101.2L105.8,101.2L105.8,101.2z"/>
			</g>
			<g>
				<path class="st2" d="M174.6,112.4c-0.1,0.2,0,0.6,0.2,0.7c0.7,0.3,1.5,0.5,2.3,0.7c0.8,0.2,1.6,0.2,2.4,0.3
					c0.8,0,1.7-0.1,2.5-0.2c0.9-0.2,1.7-0.4,2.6-0.7c0.2-0.1,0.4-0.3,0.3-0.6c0-0.1-0.1-0.2-0.2-0.3c-0.1-0.1-0.2-0.1-0.4,0
					c-0.5,0.1-1,0.2-1.4,0.3c-1.5,0.3-2.9,0.5-4.4,0.4c0,0,0,0,0,0c-0.8-0.1-1.7-0.2-2.5-0.5c-0.2-0.1-0.4-0.2-0.7-0.3
					c-0.1,0-0.1,0-0.2,0C174.8,112.1,174.6,112.2,174.6,112.4L174.6,112.4L174.6,112.4z M182.8,112.5
					C182.7,112.5,182.7,112.5,182.8,112.5C182.7,112.5,182.7,112.5,182.8,112.5L182.8,112.5L182.8,112.5z M178.4,112.9
					C178.5,112.9,178.5,112.9,178.4,112.9C178.5,112.9,178.5,112.9,178.4,112.9L178.4,112.9L178.4,112.9z"/>
				<path class="st0" d="M179.5,115.9c-0.1,0-0.2,0.1-0.3,0.1c-0.1,0.1-0.2,0.1-0.3,0.2c-0.2,0.2-0.3,0.4-0.4,0.6
					c-0.1,0.2-0.1,0.4,0,0.6c0.1,0.2,0.2,0.4,0.3,0.5c0.1,0.1,0.2,0.2,0.3,0.2c0,0,0,0,0,0c0,0.2,0.2,0.3,0.4,0.3c0,0,0,0,0,0
					c0.1,0,0.2,0.1,0.3,0.1c0.1,0,0.2,0,0.3,0c0,0,0.1,0,0.1-0.1c0,0,0.1,0,0.1,0c0.1,0,0.2,0,0.2,0c0.1,0,0.2-0.1,0.3-0.2
					c0.2-0.1,0.3-0.3,0.4-0.4c0.1-0.1,0.1-0.2,0.1-0.4c0,0,0-0.1-0.1-0.1c0-0.1,0-0.1,0-0.2c0-0.2,0-0.3-0.1-0.4
					c0-0.1-0.1-0.2-0.2-0.2c-0.1-0.2-0.2-0.3-0.4-0.5c-0.1-0.1-0.3-0.2-0.5-0.2c-0.1,0-0.2,0-0.2,0
					C179.7,115.8,179.6,115.9,179.5,115.9L179.5,115.9L179.5,115.9z M179.8,116.5C179.8,116.5,179.8,116.5,179.8,116.5
					C179.8,116.5,179.8,116.5,179.8,116.5c0.1,0,0.1,0,0.1,0c-0.1,0-0.2,0-0.2,0C179.7,116.6,179.7,116.6,179.8,116.5
					C179.7,116.6,179.7,116.6,179.8,116.5C179.7,116.6,179.7,116.5,179.8,116.5C179.8,116.5,179.8,116.5,179.8,116.5L179.8,116.5
					L179.8,116.5z M179.7,116.5C179.7,116.5,179.7,116.5,179.7,116.5C179.7,116.5,179.7,116.5,179.7,116.5
					C179.7,116.5,179.7,116.5,179.7,116.5L179.7,116.5L179.7,116.5z"/>
				<path class="st0" d="M180.6,117.1c0,0.1,0,0.3-0.1,0.4c0,0,0-0.1,0-0.1c0,0.1-0.1,0.2-0.1,0.3c0,0.1-0.1,0.1-0.1,0.1
					c0,0-0.1,0-0.1,0.1c-0.1,0-0.1,0-0.2,0.1c-0.1,0-0.1,0-0.2,0c0,0,0,0,0,0c-0.1,0-0.2,0-0.3-0.1c0,0,0.1,0,0.1,0
					c-0.1-0.1-0.2-0.1-0.3-0.2c-0.1-0.1-0.2-0.1-0.3,0c-0.1,0-0.2,0.1-0.2,0.2c0,0.1,0,0.2,0,0.3c0,0.1,0.1,0.2,0.2,0.2
					c0.1,0.1,0.2,0.1,0.3,0.2c0,0,0.1,0,0.1,0c0.1,0,0.2,0.1,0.3,0.1c0.1,0,0.3,0,0.4,0c0.1,0,0.3-0.1,0.4-0.1
					c0.1,0,0.1-0.1,0.2-0.1c0.1-0.1,0.2-0.2,0.3-0.3c0.1-0.1,0.1-0.3,0.2-0.4c0.1-0.2,0.1-0.3,0.1-0.5c0-0.1,0-0.2-0.1-0.3
					c-0.1-0.1-0.1-0.1-0.2-0.2c0,0,0,0-0.1,0C180.8,116.8,180.6,117,180.6,117.1L180.6,117.1L180.6,117.1z M180.2,117.9
					C180.2,117.9,180.2,117.9,180.2,117.9C180.2,117.9,180.2,117.9,180.2,117.9C180.2,117.9,180.2,117.9,180.2,117.9L180.2,117.9
					L180.2,117.9z M180.2,117.9C180.2,117.9,180.2,117.9,180.2,117.9C180.2,117.9,180.2,117.9,180.2,117.9
					C180.2,117.9,180.2,117.9,180.2,117.9L180.2,117.9L180.2,117.9z M180.1,118C180,118,180,118,180.1,118
					C180,118,180,118,180.1,118L180.1,118L180.1,118z"/>
				<path class="st0" d="M180.3,116c-0.2,0.2-0.1,0.5,0,0.6c0.1,0.1,0.1,0.1,0.2,0.2c0,0.1,0.1,0.1,0.1,0.2c0,0,0,0.1,0,0.1
					c0,0,0,0.1,0,0.1c0,0,0,0.1,0,0.1c0,0.1-0.1,0.2-0.1,0.3c0,0-0.1,0.1-0.1,0.1c-0.1,0.1-0.1,0.1-0.2,0.2c-0.1,0-0.1,0.1-0.2,0.1
					c0,0-0.1,0-0.1,0c-0.1,0-0.2,0-0.3-0.1c-0.1,0-0.1-0.1-0.2-0.1c-0.1-0.1-0.2-0.2-0.2-0.2c-0.1-0.1-0.4-0.1-0.5,0
					c-0.1,0.1-0.1,0.2-0.1,0.3c0,0.1,0.1,0.2,0.1,0.2c0.1,0.1,0.2,0.2,0.3,0.3c0.1,0.1,0.2,0.2,0.3,0.2c0.1,0,0.2,0.1,0.2,0.1
					c0.1,0,0.2,0.1,0.4,0.1c0.4,0,0.8-0.1,1.1-0.4c0.3-0.3,0.5-0.6,0.5-1.1c0-0.2,0-0.4-0.1-0.6c-0.1-0.3-0.3-0.5-0.5-0.7
					c-0.1-0.1-0.2-0.1-0.3-0.1C180.5,115.8,180.4,115.9,180.3,116L180.3,116L180.3,116z M180.7,117.2
					C180.7,117.2,180.7,117.2,180.7,117.2C180.7,117.2,180.7,117.2,180.7,117.2L180.7,117.2L180.7,117.2z M180.6,117.5
					C180.6,117.5,180.6,117.6,180.6,117.5C180.6,117.6,180.6,117.5,180.6,117.5L180.6,117.5L180.6,117.5z M179.4,117.8
					C179.4,117.8,179.4,117.8,179.4,117.8C179.4,117.8,179.4,117.8,179.4,117.8L179.4,117.8L179.4,117.8z M180.2,117.9
					C180.2,117.9,180.2,117.9,180.2,117.9C180.2,117.9,180.2,117.9,180.2,117.9L180.2,117.9L180.2,117.9z M180.1,117.9
					C180.1,117.9,180,117.9,180.1,117.9C180,117.9,180.1,117.9,180.1,117.9L180.1,117.9L180.1,117.9z"/>
				<path class="st0" d="M179.5,115.9c-0.1,0-0.2,0-0.3,0.1c0,0-0.1,0-0.1,0c-0.1,0.1-0.2,0.1-0.3,0.2c-0.1,0.1-0.2,0.3-0.2,0.5
					c0.1,0.2,0.3,0.3,0.5,0.2c0.1-0.1,0.2-0.1,0.4-0.1c0.2,0,0.5-0.1,0.7-0.1c0,0,0.1,0,0.1,0.1c0,0,0,0,0,0c0,0,0,0,0,0
					c0,0,0,0,0,0c0,0,0,0,0,0c0.1,0.1,0.1,0.1,0.1,0.2c0,0.1,0,0.1,0,0.2c0,0.1,0,0.2,0,0.3c0,0,0-0.1,0-0.1c0,0.1,0,0.1,0,0.2
					c0,0,0-0.1,0-0.1c0,0.1-0.1,0.2-0.2,0.3c0,0,0,0,0,0c-0.1,0.1-0.2,0.2-0.3,0.3c-0.1,0.1-0.1,0.4,0,0.5c0.2,0.1,0.4,0.1,0.5,0
					c0.1-0.1,0.2-0.2,0.3-0.3c0.1-0.1,0.1-0.2,0.1-0.2c0-0.1,0.1-0.2,0.1-0.3c0-0.1,0.1-0.2,0.1-0.3c0-0.2,0-0.3-0.1-0.5
					c0-0.1-0.1-0.1-0.1-0.2c0-0.1-0.1-0.2-0.2-0.2c0,0,0,0-0.1-0.1c0,0,0,0,0,0c0-0.2-0.2-0.4-0.4-0.4c-0.1,0-0.2,0-0.2,0
					c-0.1,0-0.1,0-0.2,0c-0.1,0-0.2,0-0.3,0C179.7,115.9,179.6,115.9,179.5,115.9L179.5,115.9L179.5,115.9z M179.5,116.7
					C179.5,116.7,179.5,116.7,179.5,116.7C179.5,116.7,179.5,116.7,179.5,116.7C179.5,116.7,179.5,116.7,179.5,116.7L179.5,116.7
					L179.5,116.7z M180.3,116.8C180.3,116.8,180.3,116.8,180.3,116.8C180.3,116.8,180.3,116.8,180.3,116.8
					C180.3,116.8,180.3,116.8,180.3,116.8C180.3,116.8,180.3,116.8,180.3,116.8L180.3,116.8L180.3,116.8z M180.4,116.8
					C180.4,116.8,180.4,116.8,180.4,116.8c-0.1-0.1-0.1-0.1-0.1-0.1C180.3,116.8,180.4,116.8,180.4,116.8L180.4,116.8L180.4,116.8z"
					/>
				<path class="st0" d="M179.8,115.6c-0.2,0-0.4,0.2-0.3,0.4c0,0.2,0.2,0.4,0.4,0.3c0.1,0,0.2,0,0.2,0c0,0-0.1,0-0.1,0
					c0.1,0,0.3,0,0.4,0.1c0.1,0,0.1,0.1,0.2,0.1c0.2,0.1,0.4,0,0.5-0.2c0.1-0.2,0-0.4-0.2-0.5c-0.1,0-0.1-0.1-0.2-0.1
					c-0.1,0-0.2-0.1-0.3-0.1c-0.1,0-0.2,0-0.2,0c0,0-0.1,0-0.1,0C180,115.6,179.9,115.6,179.8,115.6L179.8,115.6L179.8,115.6z"/>
				<path class="st0" d="M183.6,108.7c-0.6,0.2-1.3,0.4-1.9,0.5c-0.6,0.1-1.2,0.2-1.8,0.2c-0.7,0.1-1.4,0-2.1,0c0,0,0.1,0,0.1,0
					c-0.3,0-0.7-0.1-1-0.1c-0.4-0.1-0.9-0.2-1.3-0.3c-0.2,0-0.4,0.1-0.4,0.3c0,0.2,0.1,0.4,0.3,0.4c0.7,0.2,1.4,0.3,2,0.4
					c0.7,0.1,1.4,0.1,2.2,0.1c0.7,0,1.4-0.1,2.1-0.2c0.7-0.1,1.4-0.3,2.1-0.6c0.2-0.1,0.3-0.3,0.3-0.5c-0.1-0.2-0.2-0.3-0.4-0.3
					C183.7,108.7,183.7,108.7,183.6,108.7L183.6,108.7L183.6,108.7z"/>
				<path class="st0" d="M182.9,107.5c-0.6,0-1.2,0.1-1.8,0.1c-0.6,0.1-1.2,0.1-1.8,0.2c-0.6,0-1.2,0.1-1.7,0
					c-0.5,0-0.9-0.1-1.4-0.2c-0.3-0.1-0.6,0.1-0.7,0.4c0,0.1,0,0.1,0,0.2c-0.1,0.1-0.2,0.2-0.2,0.4c0,0.1,0.1,0.3,0.2,0.4
					c0,0,0,0,0.1,0c0,0.1,0.1,0.2,0.3,0.2c1.3,0.3,2.6,0.4,4,0.4c0.7,0,1.3,0,2-0.1c0.7-0.1,1.3-0.2,2-0.3c0.2,0,0.3-0.2,0.3-0.4
					c0-0.1,0-0.1-0.1-0.2c0.1,0,0.2-0.1,0.4-0.1c0.3-0.1,0.4-0.3,0.4-0.6c0-0.1,0-0.2-0.1-0.3c-0.1-0.1-0.2-0.2-0.4-0.3
					c-0.4,0-0.7,0-1.1,0C183.2,107.5,183.1,107.5,182.9,107.5L182.9,107.5L182.9,107.5z"/>
				<path class="st0" d="M181.9,47.4c0.1,1.7,0.1,3.4,0.1,5c0,2,0.1,4.1,0.2,6.1c0.1,4,0.2,7.9,0.4,11.9c0.2,6.1,0.4,12.1,0.6,18.2
					c0.1,3.9,0.2,7.8,0.3,11.8c0.1,3.9,0.2,7.9,0.3,11.8c0.2,7.4,0.4,14.8,0.6,22.2c0.1,3.9,0.3,7.8,0.4,11.6
					c0.1,1.6,0.1,3.2,0.2,4.9c0,0.7,0.1,1.3,0.1,2c0,0.5,0.1,1.1,0,1.6c0,0.6,0.6,1.1,1.2,0.9c0.2-0.1,0.4-0.2,0.6-0.4
					c0.1-0.2,0.2-0.5,0.1-0.7c0-0.4,0-0.7,0-1.1c0-0.6,0-1.3,0-1.9c0-1.6-0.1-3.1-0.1-4.7c-0.1-3.7-0.2-7.3-0.3-11
					c-0.2-7.3-0.5-14.7-0.8-22c-0.6-13.9-1.1-27.8-1.6-41.7c-0.1-4.1-0.2-8.3-0.4-12.5c-0.1-2.2-0.2-4.3-0.3-6.5
					c-0.1-1.8-0.2-3.6-0.2-5.5c0-0.4-0.3-0.7-0.7-0.7C182.3,46.7,181.9,47,181.9,47.4L181.9,47.4L181.9,47.4z"/>
				<path class="st0" d="M181.7,47.1c-2,3-3.7,6.3-5.2,9.6c-0.8,1.7-1.4,3.5-2,5.3c-0.6,1.8-1.2,3.7-1.8,5.5
					c-1.1,3.7-1.9,7.4-2.7,11.2c-0.7,3.6-1.3,7.2-1.8,10.8c-0.4,2.9-0.8,5.8-1.1,8.7c-0.1,1.4-0.1,2.8-0.1,4.3
					c0,0.7,0.1,1.4,0.2,2.1c0.1,0.8,0.3,1.6,0.5,2.4c0.1,0.5,0.6,0.8,1.1,0.8c0.3,0,0.6-0.1,0.8-0.3c0.2-0.2,0.4-0.5,0.3-0.8
					c-0.3-2.2-0.4-4.4-0.4-6.6c0-2.2,0.1-4.4,0.4-6.7c0,0.1,0,0.2,0,0.3c0.3-3,0.8-6,1.2-9c0.5-3,1-5.9,1.5-8.9
					c1.2-6,2.6-11.9,4.8-17.6c0.7-1.9,1.5-3.7,2.4-5.5c0.9-1.7,1.9-3.4,2.9-5c0.2-0.3,0-0.7-0.3-0.9c-0.1-0.1-0.2-0.1-0.3-0.1
					C182,46.7,181.8,46.8,181.7,47.1L181.7,47.1L181.7,47.1z M177.6,58C177.5,58.1,177.5,58.1,177.6,58
					C177.5,58.1,177.5,58.1,177.6,58L177.6,58L177.6,58z"/>
				<path class="st0" d="M168.6,106.3c-0.2,0.1-0.4,0.2-0.4,0.4c-0.2,0.3,0,0.9,0.3,1c1,0.4,2.1,0.7,3.2,0.9c0.5,0.1,1,0.1,1.5,0.1
					c0.6,0,1.2-0.1,1.7-0.3c0.4-0.1,0.6-0.4,0.6-0.8c0-0.4-0.3-0.7-0.7-0.8c-0.6-0.1-1.2-0.1-1.8-0.1c-0.6,0-1.3,0-1.9,0
					c-0.6,0-1.2-0.1-1.8-0.3c-0.1,0-0.1,0-0.2-0.1c-0.1,0-0.2-0.1-0.4-0.1C168.8,106.2,168.7,106.3,168.6,106.3L168.6,106.3
					L168.6,106.3z"/>
				<path class="st0" d="M168.6,106.9c-0.1,0-0.2,0.1-0.2,0.2c-0.1,0.2,0,0.4,0.2,0.5c0.5,0.2,1.1,0.3,1.6,0.4c0.1,0,0.2,0,0.3-0.1
					c0.1-0.1,0.1-0.2,0.1-0.2c0-0.1,0-0.2-0.1-0.3c-0.1-0.1-0.1-0.1-0.2-0.1c-0.2,0-0.3-0.1-0.5-0.1c0,0,0,0,0,0
					c-0.3-0.1-0.6-0.2-0.9-0.2c0,0-0.1,0-0.1,0C168.6,106.9,168.6,106.9,168.6,106.9L168.6,106.9L168.6,106.9z"/>
				<path class="st0" d="M168.3,107.2c-0.1,0.2,0,0.4,0.2,0.5c0.6,0.2,1.3,0.4,1.9,0.5c0.2,0,0.4-0.1,0.4-0.3c0-0.1,0-0.2-0.1-0.3
					c-0.1-0.1-0.1-0.1-0.2-0.1c-0.3-0.1-0.6-0.1-0.9-0.2c0,0,0,0,0,0c0,0,0,0-0.1,0c0,0,0,0,0,0c0,0,0,0,0,0
					c-0.3-0.1-0.6-0.2-0.8-0.2c0,0-0.1,0-0.1,0C168.5,106.9,168.4,107,168.3,107.2L168.3,107.2L168.3,107.2z M169.7,107.2
					C169.7,107.2,169.7,107.2,169.7,107.2C169.7,107.2,169.7,107.2,169.7,107.2C169.6,107.2,169.6,107.2,169.7,107.2L169.7,107.2
					L169.7,107.2z"/>
				<path class="st0" d="M168.6,107.1c-0.1,0-0.2,0.1-0.2,0.2c0,0.1,0,0.2,0,0.3c0,0.1,0.1,0.2,0.2,0.2c0.7,0.2,1.3,0.3,2,0.5
					c0.2,0,0.4-0.1,0.4-0.3c0-0.1,0-0.2-0.1-0.3c-0.1-0.1-0.2-0.1-0.2-0.1c-0.4-0.1-0.8-0.2-1.2-0.2c0,0,0,0,0,0c0,0-0.1,0-0.1,0
					c0,0,0,0,0,0c0,0,0,0,0,0c-0.2-0.1-0.4-0.1-0.6-0.2c0,0-0.1,0-0.1,0C168.6,107.1,168.6,107.1,168.6,107.1L168.6,107.1
					L168.6,107.1z M169.5,107.3C169.5,107.3,169.5,107.3,169.5,107.3C169.5,107.3,169.5,107.3,169.5,107.3
					C169.5,107.3,169.5,107.3,169.5,107.3L169.5,107.3L169.5,107.3z"/>
				<path class="st0" d="M168.5,107.1c-0.1,0-0.2,0.1-0.2,0.2c0,0.1,0,0.2,0,0.3c0,0.1,0.1,0.2,0.2,0.2c0.7,0.2,1.5,0.4,2.3,0.5
					c0.2,0,0.4-0.1,0.4-0.3c0-0.2-0.1-0.4-0.3-0.4c-0.3-0.1-0.7-0.1-1-0.2c0,0,0,0,0,0c0,0-0.1,0-0.1,0c0,0,0,0,0,0c0,0,0,0,0,0
					c-0.3-0.1-0.7-0.2-1-0.3c0,0-0.1,0-0.1,0C168.6,107.1,168.6,107.1,168.5,107.1L168.5,107.1L168.5,107.1z M169.8,107.3
					C169.8,107.3,169.8,107.3,169.8,107.3C169.8,107.3,169.8,107.3,169.8,107.3C169.8,107.3,169.8,107.3,169.8,107.3L169.8,107.3
					L169.8,107.3z"/>
				<path class="st0" d="M168.3,107.3c-0.1,0.2,0,0.4,0.2,0.5c0.2,0.1,0.3,0.1,0.5,0.2c0.2,0.1,0.5,0.1,0.7,0.2
					c0.4,0.1,0.9,0.2,1.3,0.2c0.2,0,0.4-0.1,0.4-0.3c0-0.2-0.1-0.4-0.3-0.4c-0.4-0.1-0.8-0.1-1.2-0.2c0,0,0.1,0,0.1,0
					c-0.2,0-0.3-0.1-0.5-0.1c-0.2-0.1-0.5-0.2-0.7-0.2c0,0-0.1,0-0.1,0C168.5,107,168.4,107.1,168.3,107.3L168.3,107.3L168.3,107.3z
					"/>
				<path class="st0" d="M168.4,107.4c-0.1,0.2,0,0.4,0.2,0.5c0.9,0.3,1.9,0.5,2.9,0.6c0.2,0,0.4-0.1,0.4-0.3c0-0.2-0.1-0.4-0.3-0.4
					c-0.6-0.1-1.2-0.2-1.8-0.3c0,0,0.1,0,0.1,0c-0.3-0.1-0.7-0.2-1-0.3c0,0-0.1,0-0.1,0C168.6,107.1,168.4,107.2,168.4,107.4
					L168.4,107.4L168.4,107.4z"/>
				<path class="st0" d="M168.3,107.2c-0.1,0.2,0,0.4,0.2,0.5c0.3,0.1,0.6,0.2,0.9,0.3c0.3,0.1,0.5,0.1,0.8,0.2
					c0.2,0,0.4-0.1,0.4-0.3c0-0.1,0-0.2-0.1-0.3c-0.1-0.1-0.2-0.1-0.2-0.1c-0.1,0-0.3-0.1-0.4-0.1c0,0,0,0,0,0c0,0,0,0,0,0
					c0,0,0,0,0,0c0,0,0,0,0,0c-0.4-0.1-0.7-0.2-1.1-0.3c0,0-0.1,0-0.1,0C168.5,107,168.4,107.1,168.3,107.2L168.3,107.2L168.3,107.2
					z M169.8,107.3C169.8,107.3,169.9,107.4,169.8,107.3C169.8,107.3,169.8,107.3,169.8,107.3C169.8,107.3,169.8,107.3,169.8,107.3
					L169.8,107.3L169.8,107.3z"/>
				<path class="st0" d="M168.5,106.9c-0.1,0-0.2,0.1-0.3,0.2c-0.1,0.1-0.1,0.2-0.1,0.3c0,0.1,0,0.1,0.1,0.2c0,0.1,0.1,0.1,0.2,0.1
					c0.1,0.1,0.3,0.2,0.4,0.2c0.2,0.1,0.4,0.1,0.6,0.1c0.2,0,0.3-0.1,0.4-0.2c0.1-0.2,0-0.4-0.2-0.5c-0.1,0-0.2,0-0.2-0.1
					c-0.1-0.1-0.3-0.1-0.4-0.2c0,0-0.1-0.1-0.1-0.1C168.7,106.9,168.7,106.9,168.5,106.9C168.5,106.9,168.5,106.9,168.5,106.9
					L168.5,106.9L168.5,106.9z"/>
				<path class="st0" d="M168.2,107.2c-0.1,0.2,0,0.4,0.2,0.5c0.2,0.1,0.3,0.1,0.5,0.2c0.3,0.1,0.5,0.1,0.8,0.2c0.1,0,0.2,0,0.3,0
					c0.1,0,0.2-0.1,0.2-0.2c0-0.1,0-0.2,0-0.3c0-0.1-0.1-0.2-0.2-0.2c-0.2,0-0.3-0.1-0.5-0.1c-0.3-0.1-0.5-0.2-0.7-0.3
					c0,0-0.1,0-0.1,0C168.4,106.9,168.3,107,168.2,107.2L168.2,107.2L168.2,107.2z"/>
				<path class="st0" d="M168.3,107.2c-0.1,0.2,0,0.5,0.3,0.6c0.4,0.2,0.8,0.3,1.2,0.4c0.4,0.1,0.9,0.2,1.3,0.2
					c0.2,0,0.4-0.1,0.4-0.3c0-0.1,0-0.2-0.1-0.3c-0.1-0.1-0.2-0.1-0.3-0.1c-0.1,0-0.1,0-0.2,0c0,0,0,0,0,0c0,0,0,0,0,0c0,0,0,0,0,0
					c0,0,0,0,0,0c-0.3-0.1-0.6-0.2-0.9-0.2c-0.4-0.1-0.8-0.3-1.2-0.5c0,0-0.1,0-0.1,0C168.5,106.9,168.3,107,168.3,107.2
					L168.3,107.2L168.3,107.2z M170.9,107.6C170.9,107.6,170.9,107.6,170.9,107.6C170.9,107.6,170.9,107.6,170.9,107.6
					C170.9,107.6,170.9,107.6,170.9,107.6L170.9,107.6L170.9,107.6z"/>
				<path class="st0" d="M168.3,107.2c-0.1,0.2,0,0.4,0.2,0.5c0.5,0.2,1,0.4,1.5,0.5c0.5,0.1,0.9,0.2,1.4,0.3c0.2,0,0.4-0.1,0.4-0.3
					c0-0.2-0.1-0.4-0.3-0.4c-0.4-0.1-0.7-0.1-1-0.2c0,0,0,0,0,0c-0.2-0.1-0.5-0.1-0.7-0.2c-0.3-0.1-0.7-0.2-1-0.4c0,0-0.1,0-0.1,0
					C168.5,107,168.3,107.1,168.3,107.2L168.3,107.2L168.3,107.2z"/>
				<path class="st0" d="M168.3,107.2c-0.1,0.2,0,0.4,0.2,0.5c0.1,0.1,0.3,0.1,0.4,0.2c0.2,0.1,0.4,0.2,0.7,0.2
					c0.3,0.1,0.7,0.1,1,0.2c0.2,0,0.4-0.1,0.4-0.3c0-0.2-0.1-0.4-0.3-0.4c-0.2,0-0.5-0.1-0.7-0.1c0,0,0,0,0,0
					c-0.2-0.1-0.4-0.1-0.6-0.2c-0.2-0.1-0.4-0.2-0.7-0.3c0,0-0.1,0-0.1,0C168.5,107,168.4,107.1,168.3,107.2L168.3,107.2
					L168.3,107.2z"/>
				<path class="st0" d="M168.1,107c-0.1,0.2-0.1,0.4,0.1,0.6c0.2,0.1,0.4,0.3,0.7,0.4c0.3,0.1,0.6,0.2,0.9,0.2
					c0.2,0,0.4-0.1,0.4-0.3c0-0.1,0-0.2-0.1-0.3c-0.1-0.1-0.2-0.1-0.3-0.1c-0.1,0-0.1,0-0.2,0c-0.1,0-0.2-0.1-0.3-0.1
					c-0.1,0-0.2-0.1-0.3-0.2c-0.1-0.1-0.2-0.1-0.3-0.2c-0.1-0.1-0.2-0.1-0.2-0.1C168.3,106.9,168.2,106.9,168.1,107L168.1,107
					L168.1,107z M168.9,107.1C168.9,107.1,168.9,107.2,168.9,107.1C168.9,107.2,168.9,107.1,168.9,107.1L168.9,107.1L168.9,107.1z
					 M169.7,107.4C169.7,107.4,169.7,107.4,169.7,107.4C169.7,107.4,169.7,107.4,169.7,107.4L169.7,107.4L169.7,107.4z"/>
				<path class="st0" d="M168.3,107.3c-0.1,0.2,0,0.4,0.2,0.5c0.4,0.2,0.8,0.3,1.3,0.4c0.6,0.1,1.1,0.2,1.7,0.3
					c0.2,0,0.4-0.1,0.4-0.3c0-0.2-0.1-0.4-0.3-0.4c-0.6-0.1-1.1-0.1-1.7-0.3c-0.1,0-0.3-0.1-0.4-0.1c-0.2-0.1-0.5-0.2-0.7-0.3
					c0,0-0.1,0-0.1,0C168.5,107.1,168.4,107.2,168.3,107.3L168.3,107.3L168.3,107.3z"/>
				<path class="st0" d="M168.7,107.4c-0.1,0.2,0,0.4,0.2,0.5c0.4,0.2,0.9,0.3,1.3,0.4c0.6,0.1,1.2,0.2,1.8,0.3
					c0.2,0,0.4-0.1,0.4-0.3c0-0.2-0.1-0.4-0.3-0.4c-0.6-0.1-1.2-0.2-1.8-0.3c0,0,0,0,0,0c-0.1,0-0.3-0.1-0.4-0.1
					c-0.2-0.1-0.5-0.2-0.7-0.3c0,0-0.1,0-0.1,0C168.8,107.2,168.7,107.3,168.7,107.4L168.7,107.4L168.7,107.4z"/>
				<path class="st0" d="M168.7,107.5c-0.1,0.2,0,0.4,0.2,0.5c1,0.3,1.9,0.5,3,0.6c0.2,0,0.4-0.1,0.4-0.4c0-0.2-0.1-0.4-0.4-0.4
					c-0.4,0-0.7-0.1-1.1-0.1c-0.3,0-0.6-0.1-1-0.2c0,0,0,0,0,0c-0.3-0.1-0.5-0.1-0.8-0.2c0,0-0.1,0-0.1,0
					C168.9,107.2,168.8,107.3,168.7,107.5L168.7,107.5L168.7,107.5z"/>
				<path class="st0" d="M168.8,107.4c-0.1,0.2,0,0.4,0.2,0.5c0.3,0.1,0.7,0.3,1,0.3c0.5,0.1,1,0.2,1.5,0.2c0.2,0,0.4-0.1,0.4-0.3
					c0-0.2-0.1-0.4-0.3-0.4c-0.5,0-1-0.1-1.5-0.2c0,0,0.1,0,0.1,0c-0.3-0.1-0.6-0.2-0.9-0.3c0,0-0.1,0-0.1,0
					C169,107.2,168.8,107.3,168.8,107.4L168.8,107.4L168.8,107.4z"/>
				<path class="st0" d="M174.1,107.8c-0.6,8-1,16-1.3,23.9c-0.2,3.9-0.4,7.9-0.5,11.8c-0.1,2-0.2,3.9-0.3,5.9
					c-0.1,2.1-0.2,4.1-0.3,6.2c0,0.6,0.4,1.1,1,1.1c0.6,0,1.1-0.4,1.1-1c0.2-2,0.3-3.9,0.4-5.9c0.1-2,0.2-3.9,0.3-5.9
					c0.2-4,0.3-8.1,0.4-12.1c0.3-8,0.5-16,1.1-24c0-0.5-0.4-1-0.9-1c0,0,0,0-0.1,0C174.6,106.9,174.1,107.3,174.1,107.8L174.1,107.8
					L174.1,107.8z"/>
				<path class="st0" d="M185.8,154.4c0,0-0.1,0.1-0.1,0.1c-0.2,0.2-0.5,0.4-0.7,0.7c-0.2,0.2-0.4,0.3-0.6,0.5
					c-0.7,0.5-1.5,0.8-2.3,1.1c-1.1,0.4-2.2,0.6-3.3,0.7c0,0,0.1,0,0.1,0c0,0-0.1,0-0.1,0c0,0-0.1,0-0.1,0c0,0,0.1,0,0.1,0
					c-0.9,0-1.8,0-2.6-0.2c-0.6-0.1-1.2-0.3-1.7-0.6c-0.4-0.2-0.8-0.4-1.1-0.7c-0.1-0.1-0.3-0.3-0.4-0.4c-0.2-0.3-0.6-0.3-0.9-0.1
					c-0.3,0.2-0.3,0.6-0.1,0.9c1.8,2.1,4.8,2.7,7.5,2.5c1.5-0.1,2.9-0.4,4.3-1c0.7-0.3,1.3-0.7,1.8-1.1c0.2-0.2,0.5-0.4,0.7-0.6
					c0.1-0.1,0.2-0.2,0.3-0.4c0.2-0.2,0.3-0.5,0.4-0.8c0.1-0.3,0-0.6-0.2-0.7c-0.1-0.1-0.2-0.1-0.3-0.1
					C186.1,154.2,185.9,154.3,185.8,154.4L185.8,154.4L185.8,154.4z M184.3,155.7C184.3,155.7,184.3,155.7,184.3,155.7
					C184.3,155.7,184.3,155.7,184.3,155.7L184.3,155.7L184.3,155.7z M176.1,157.3C176.1,157.3,176.1,157.3,176.1,157.3
					C176.1,157.3,176.1,157.3,176.1,157.3L176.1,157.3L176.1,157.3z M178.7,157.5C178.7,157.5,178.7,157.5,178.7,157.5
					C178.7,157.5,178.8,157.5,178.7,157.5C178.8,157.5,178.7,157.5,178.7,157.5L178.7,157.5L178.7,157.5z"/>
				<path class="st0" d="M185.9,154.2c-0.4,0.3-0.8,0.7-1.2,0.9c0,0,0,0,0.1,0c-1,0.7-2.1,1.2-3.2,1.6c0,0,0.1,0,0.1,0
					c-1,0.3-2.1,0.6-3.2,0.7c-0.6,0-1.3,0-1.9-0.1c0,0,0,0,0,0c0,0,0,0-0.1,0c0,0,0,0,0,0c0,0,0,0,0,0c-0.5-0.1-1-0.3-1.4-0.5
					c-0.4-0.2-0.7-0.4-1-0.7c-0.1-0.1-0.3-0.3-0.4-0.4c-0.2-0.2-0.4-0.2-0.6,0c-0.2,0.2-0.2,0.4,0,0.6c0.4,0.5,0.9,0.8,1.4,1.1
					c0.5,0.3,1.1,0.5,1.6,0.6c1.2,0.3,2.5,0.3,3.7,0c1.3-0.2,2.6-0.7,3.7-1.3c1.1-0.5,2.1-1.2,2.9-2c0.1-0.1,0.2-0.4,0-0.5
					c-0.1-0.1-0.2-0.1-0.3-0.1C186.1,154.1,186,154.2,185.9,154.2L185.9,154.2L185.9,154.2z M178.6,157.3
					C178.6,157.3,178.6,157.3,178.6,157.3C178.6,157.3,178.6,157.3,178.6,157.3L178.6,157.3L178.6,157.3z M176.5,157.2
					C176.6,157.2,176.6,157.2,176.5,157.2C176.6,157.2,176.6,157.2,176.5,157.2C176.5,157.2,176.5,157.2,176.5,157.2L176.5,157.2
					L176.5,157.2z M184.7,155.2C184.7,155.2,184.7,155.2,184.7,155.2C184.7,155.2,184.7,155.2,184.7,155.2L184.7,155.2L184.7,155.2z
					"/>
				<path class="st0" d="M184.5,106.2c-0.7,0.2-1.3,0.3-2,0.5c-1,0.2-2.1,0.3-3.1,0.4c-1.1,0.1-2.1,0-3.2,0c0,0,0.1,0,0.1,0
					c-0.7-0.1-1.4-0.1-2.2-0.3c-0.2,0-0.4,0.1-0.5,0.3c0,0.2,0.1,0.5,0.3,0.5c1.8,0.3,3.6,0.5,5.5,0.6c0.9,0,1.8,0,2.7-0.1
					c0.5-0.1,0.9-0.2,1.4-0.3c0.5-0.1,0.9-0.3,1.4-0.5c0.1-0.1,0.3-0.1,0.3-0.3c0.1-0.1,0.1-0.3,0-0.4c-0.1-0.2-0.3-0.4-0.6-0.4
					C184.6,106.2,184.5,106.2,184.5,106.2L184.5,106.2L184.5,106.2z"/>
				<path class="st0" d="M174,106.9c-0.1,0-0.1,0.1-0.2,0.2c0,0.1,0,0.2,0.1,0.3c0.1,0.1,0.1,0.1,0.2,0.2c1.3,0.1,2.7,0.3,4,0.3
					c0.2,0,0.3-0.2,0.3-0.4c0-0.2-0.2-0.3-0.4-0.3c-0.6,0-1.1,0-1.7-0.1c0,0,0,0,0,0c-0.7-0.1-1.5-0.1-2.2-0.2c0,0-0.1,0-0.1,0
					C174.1,106.8,174.1,106.8,174,106.9L174,106.9L174,106.9z M176.5,107C176.5,107,176.5,107,176.5,107
					C176.5,107,176.5,107,176.5,107L176.5,107L176.5,107z"/>
				<path class="st0" d="M174.2,106.7c-0.1,0.1-0.1,0.1-0.2,0.2c0,0.1,0,0.2,0.1,0.3c0.1,0.1,0.1,0.1,0.2,0.2c1,0.1,2.1,0.2,3.1,0.2
					c1.2,0,2.4,0.1,3.6,0.1c0.2,0,0.3-0.2,0.3-0.4c0-0.1,0-0.2-0.1-0.2c-0.1-0.1-0.2-0.1-0.3-0.1c-1.8-0.1-3.6-0.1-5.5-0.2
					c0,0,0,0,0,0c-0.4,0-0.7-0.1-1.1-0.1c0,0,0,0-0.1,0C174.3,106.7,174.2,106.7,174.2,106.7L174.2,106.7L174.2,106.7z M175.4,106.8
					C175.5,106.8,175.5,106.8,175.4,106.8C175.5,106.8,175.5,106.8,175.4,106.8L175.4,106.8L175.4,106.8z"/>
				<path class="st0" d="M184,106.2c-0.2,0.1-0.5,0.1-0.7,0.2c0,0,0.1,0,0.1,0c-1.2,0.2-2.5,0.4-3.7,0.5c-1.3,0.1-2.5,0.1-3.8,0
					c0,0,0.1,0,0.1,0c-0.4,0-0.8-0.1-1.2-0.1c-0.2,0-0.4,0.1-0.4,0.3c0,0.2,0.1,0.4,0.3,0.4c1.6,0.2,3.2,0.3,4.8,0.3
					c1.6-0.1,3.2-0.3,4.8-0.7c0.2-0.1,0.3-0.3,0.3-0.6c0-0.1-0.1-0.2-0.2-0.2c-0.1,0-0.1,0-0.2,0C184.1,106.1,184.1,106.1,184,106.2
					L184,106.2L184,106.2z"/>
				<path class="st0" d="M184.5,109.1c-0.7,0.3-1.4,0.5-2.2,0.6c0,0,0.1,0,0.1,0c-1.4,0.3-2.8,0.4-4.2,0.3c0,0,0.1,0,0.1,0
					c-0.5,0-1.1-0.1-1.6-0.2c-0.5-0.1-1-0.2-1.5-0.4c-0.2,0-0.4,0.1-0.4,0.3c0,0.2,0.1,0.4,0.3,0.4c1.6,0.5,3.2,0.7,4.9,0.7
					c0.9,0,1.7-0.1,2.6-0.2c0.8-0.1,1.5-0.4,2.3-0.7c0.1-0.1,0.2-0.1,0.3-0.2c0.1-0.1,0.1-0.2,0-0.4c-0.1-0.2-0.2-0.3-0.4-0.3
					C184.6,109.1,184.6,109.1,184.5,109.1L184.5,109.1L184.5,109.1z"/>
				<path class="st0" d="M179.4,56.1c-1.1,3-2.1,6.1-2.9,9.2c-0.9,3.1-1.6,6.3-2.3,9.4c-1.3,6.3-2.2,12.7-2.6,19.1
					c0,0.2,0.2,0.4,0.4,0.4c0.1,0,0.2,0,0.3-0.1c0.1-0.1,0.1-0.2,0.1-0.3c0.3-3,0.6-6.1,1-9.1c0,0,0,0.1,0,0.1
					c1.3-9.7,3.5-19.3,6.8-28.5c0.1-0.2-0.1-0.4-0.2-0.4c0,0-0.1,0-0.1,0C179.6,55.8,179.5,56,179.4,56.1L179.4,56.1L179.4,56.1z"/>
				<path class="st0" d="M171.5,97.3c0,0.9-0.1,1.8-0.1,2.7c0,1-0.1,2-0.1,3c0,0.2,0.2,0.4,0.4,0.4c0.2,0,0.4-0.2,0.4-0.4
					c0-0.9,0-1.8,0-2.7c0-1,0-2,0.1-3c0-0.2-0.2-0.4-0.4-0.4C171.6,96.9,171.5,97.1,171.5,97.3L171.5,97.3L171.5,97.3z"/>
				<path class="st2" d="M179.5,115.2C179.5,115.2,179.5,115.2,179.5,115.2c-0.1,0-0.1,0-0.1,0c-0.1,0-0.2,0.1-0.3,0.1c0,0,0,0,0,0
					c-0.1,0-0.1,0.1-0.2,0.1c0,0-0.1,0-0.1,0.1c0,0,0,0-0.1,0c-0.1,0.1-0.2,0.2-0.4,0.3c-0.1,0.1-0.1,0.1-0.2,0.2c0,0,0,0,0,0.1
					c0,0.1-0.1,0.2-0.1,0.2c0,0.1-0.1,0.2-0.1,0.3c0,0,0,0.1,0,0.1c0,0.1,0,0.3-0.1,0.4c0,0.2,0,0.4,0.1,0.6c0,0.1,0.1,0.3,0.1,0.4
					c0,0.1,0.1,0.1,0.1,0.2c0.1,0.1,0.1,0.2,0.2,0.3c0.2,0.2,0.5,0.4,0.8,0.5c0.3,0.1,0.6,0.2,0.9,0.2c0.2,0,0.4,0,0.6-0.1
					c0.1,0,0.2-0.1,0.4-0.2c0,0,0.1,0,0.1,0c0.1-0.1,0.2-0.2,0.4-0.3c0.6-0.5,0.8-1.3,0.7-2c-0.1-0.3-0.2-0.6-0.4-0.8
					c-0.2-0.3-0.5-0.5-0.8-0.6c-0.1-0.1-0.3-0.1-0.4-0.1c-0.1,0-0.3-0.1-0.5-0.1c0,0-0.1,0-0.1,0
					C179.8,115.1,179.7,115.1,179.5,115.2L179.5,115.2L179.5,115.2z M180,115.8c0.2,0,0.3,0,0.5,0.1c0.1,0,0.2,0.1,0.3,0.1
					c0.1,0.1,0.2,0.2,0.3,0.3c0,0,0,0-0.1-0.1c0.1,0.1,0.1,0.2,0.2,0.3c0.1,0.1,0.1,0.2,0.1,0.4c0,0.1,0,0.2,0,0.3c0,0,0,0,0,0
					c0,0.1,0,0.1,0,0.2c0,0.1,0,0.2-0.1,0.3c0,0,0,0,0-0.1c0,0.1-0.1,0.2-0.2,0.4c0,0,0,0,0,0c-0.1,0.1-0.1,0.2-0.2,0.2c0,0,0,0,0,0
					c-0.1,0.1-0.2,0.1-0.3,0.2c0,0-0.1,0-0.1,0.1c-0.1,0-0.2,0.1-0.3,0.1c-0.1,0-0.3,0-0.4,0c0,0,0.1,0,0.1,0c-0.1,0-0.2,0-0.2,0
					c-0.1,0-0.2,0-0.3-0.1c0,0,0.1,0,0.1,0c-0.1,0-0.2-0.1-0.3-0.1c-0.1-0.1-0.2-0.2-0.3-0.2c0,0,0,0,0,0c-0.1-0.1-0.1-0.2-0.2-0.2
					c0,0-0.1-0.1-0.1-0.1c0,0,0,0,0,0c0-0.1-0.1-0.2-0.1-0.4c0-0.1,0-0.2,0-0.3c0,0,0,0,0-0.1c0-0.1,0-0.2,0-0.2c0,0,0-0.1,0-0.1
					c0-0.1,0.1-0.2,0.1-0.3c0,0,0,0,0,0c0,0,0-0.1,0.1-0.1c0-0.1,0.1-0.1,0.2-0.2c0,0,0,0,0.1-0.1c0.1-0.1,0.2-0.1,0.3-0.2
					c0.1,0,0.2-0.1,0.3-0.1c0,0,0,0,0.1,0C179.8,115.8,179.9,115.8,180,115.8L180,115.8L180,115.8z M179.1,116.2
					C179.1,116.2,179.1,116.2,179.1,116.2C179.1,116.2,179.1,116.2,179.1,116.2C179.1,116.2,179.1,116.2,179.1,116.2L179.1,116.2
					L179.1,116.2z M181.4,117.2C181.4,117.2,181.4,117.2,181.4,117.2C181.4,117.2,181.4,117.2,181.4,117.2L181.4,117.2L181.4,117.2z
					 M178.7,117.8C178.7,117.8,178.7,117.8,178.7,117.8C178.7,117.8,178.7,117.8,178.7,117.8L178.7,117.8L178.7,117.8z M180.7,118.4
					C180.7,118.4,180.7,118.4,180.7,118.4C180.7,118.4,180.7,118.4,180.7,118.4L180.7,118.4L180.7,118.4z"/>
				<path class="st0" d="M182,120.7c-0.2,0-0.3,0.2-0.3,0.4c0.1,5.6,0.3,11.3,0.4,16.9c0.1,2.9,0.1,5.9,0.2,8.8
					c0,1.2,0.1,2.4,0.1,3.6c0,0.6,0,1.1,0,1.7c0,0.2,0,0.5,0,0.7c0,0.1,0,0.2,0,0.3c0,0.2,0.2,0.2,0.4,0.2c0.2,0,0.3-0.1,0.3-0.3
					c0-0.1,0-0.2,0-0.2c0-0.2,0-0.4,0-0.6c0-0.3,0-0.7,0-1c0-0.2,0-0.5,0-0.7c0-1.2,0-2.3-0.1-3.5c-0.1-3-0.1-6-0.2-9
					c-0.1-5.6-0.3-11.2-0.4-16.9C182.3,120.9,182.2,120.7,182,120.7C182,120.7,182,120.7,182,120.7L182,120.7L182,120.7z"/>
				<path class="st0" d="M180.8,138.2c-0.2,0-0.3,0.2-0.3,0.4c0,1.3,0.1,2.7,0.1,4c0,0.7,0,1.4,0,2c0,0.7,0,1.5,0,2.2
					c0,1.4-0.1,2.8-0.1,4.1c0,1.1,0,2.2,0,3.3c0,0.2,0.1,0.4,0.2,0.5c0.1,0.1,0.3,0.2,0.5,0.2c0.4,0,0.7-0.4,0.6-0.7
					c-0.1-1-0.1-2.1-0.2-3.1c-0.1-1.4-0.2-2.7-0.2-4.1c0-0.7-0.1-1.3-0.1-1.9c0-0.7-0.1-1.5-0.1-2.2c0-1.4-0.1-2.8-0.1-4.2
					C181.1,138.3,181,138.2,180.8,138.2C180.8,138.2,180.8,138.2,180.8,138.2L180.8,138.2L180.8,138.2z"/>
				<path class="st0" d="M180.5,127.5c-0.2,0-0.3,0.2-0.3,0.4c0,1.7,0.1,3.4,0.1,5c0,0.2,0.2,0.3,0.4,0.3c0.2,0,0.3-0.2,0.3-0.4
					c0-1.7-0.1-3.4-0.1-5C180.9,127.7,180.7,127.5,180.5,127.5C180.5,127.5,180.5,127.5,180.5,127.5L180.5,127.5L180.5,127.5z"/>
			</g>
			<g>
				<path class="st2" d="M36,114.2c-0.1,0.2-0.2,0.4-0.3,0.5c0,0,0-0.1,0.1-0.1c-0.1,0.2-0.2,0.3-0.3,0.5c-0.1,0.1-0.2,0.3-0.4,0.4
					c-0.2,0.2-0.4,0.4-0.7,0.6c-0.3,0.2-0.5,0.4-0.8,0.5c0,0,0,0,0,0c-0.5,0.3-1.1,0.6-1.7,0.8c-0.6,0.2-1.2,0.5-1.8,0.7
					c-0.2,0.1-0.3,0.3-0.2,0.5c0.1,0.2,0.3,0.3,0.5,0.2c0.6-0.2,1.2-0.4,1.8-0.7c0.6-0.3,1.3-0.6,1.9-0.9c0.5-0.3,1-0.7,1.4-1.1
					c0.2-0.2,0.4-0.5,0.6-0.7c0.2-0.3,0.4-0.6,0.5-0.9c0.1-0.2,0-0.4-0.2-0.5c0,0-0.1,0-0.1,0C36.2,114,36.1,114.1,36,114.2
					L36,114.2L36,114.2z"/>
				<path class="st0" d="M33.8,111.2c-0.2,0.4-0.5,0.7-0.8,1c0,0,0,0,0,0c-0.3,0.3-0.6,0.6-0.9,0.9c-0.3,0.3-0.6,0.5-1,0.8
					c-0.3,0.2-0.6,0.4-0.9,0.5c-0.4,0.2-0.8,0.4-1.2,0.5c0,0,0.1,0,0.1,0c-0.1,0-0.3,0.1-0.4,0.1c-0.1,0-0.2,0.1-0.2,0.2
					c-0.1,0.1-0.1,0.2-0.1,0.3c0,0.2,0.2,0.3,0.4,0.3c0.5-0.1,1-0.3,1.5-0.5c0.6-0.3,1.1-0.6,1.6-0.9c1-0.7,1.8-1.6,2.5-2.6
					c0.1-0.2,0.1-0.4-0.1-0.5c-0.1,0-0.1-0.1-0.2-0.1C34,111.1,33.9,111.1,33.8,111.2L33.8,111.2L33.8,111.2z M33,112.2
					C33,112.2,33,112.2,33,112.2C33,112.2,33,112.2,33,112.2L33,112.2L33,112.2z"/>
				<path class="st0" d="M33,110.8c-0.3,0.3-0.6,0.6-0.9,0.8c-0.3,0.3-0.7,0.6-1.1,0.8c-1,0.6-2,1.1-3,1.6c-0.2,0.1-0.2,0.2-0.2,0.4
					c0,0.1,0.1,0.2,0.2,0.3c0,0,0,0,0,0c0,0.2,0.2,0.3,0.4,0.3c0.3-0.1,0.7-0.2,1-0.3c0.4-0.2,0.8-0.3,1.3-0.5
					c0.8-0.4,1.5-0.9,2.1-1.5c0.1-0.1,0.2-0.3,0.1-0.4c0-0.1-0.1-0.2-0.2-0.2c0.3-0.2,0.5-0.5,0.8-0.8c0.1-0.1,0.1-0.1,0.1-0.3
					c0-0.1,0-0.2-0.1-0.3c-0.1-0.1-0.2-0.1-0.3-0.1C33.1,110.7,33.1,110.7,33,110.8L33,110.8L33,110.8z M31.1,112.3
					C31.1,112.4,31.1,112.4,31.1,112.3C31.1,112.4,31.1,112.4,31.1,112.3L31.1,112.3L31.1,112.3z"/>
				<path class="st0" d="M31.6,112c-0.6,0.4-1.2,0.7-1.7,1c-0.7,0.3-1.4,0.6-2.1,0.9c-0.1,0-0.2,0.1-0.2,0.2c0,0.1,0,0.2,0,0.3
					c0,0.1,0.1,0.2,0.2,0.2c0.1,0,0.2,0,0.3,0c0.6-0.2,1.3-0.5,1.9-0.8c0.7-0.3,1.3-0.7,2-1.1c0.1-0.1,0.2-0.1,0.2-0.2
					c0-0.1,0-0.2,0-0.3c0-0.1-0.1-0.2-0.2-0.2c0,0-0.1,0-0.1,0C31.7,111.9,31.6,111.9,31.6,112L31.6,112L31.6,112z"/>
				<path class="st0" d="M33.1,110.6c-0.1,0.2-0.2,0.3-0.4,0.5c0,0,0,0,0,0c0,0,0,0,0,0c0,0,0,0,0,0c0,0,0,0,0,0
					c-0.2,0.2-0.5,0.5-0.7,0.7c-0.3,0.2-0.6,0.4-0.9,0.6c0,0,0.1,0,0.1-0.1c-0.4,0.3-0.9,0.5-1.4,0.7c-0.5,0.2-0.9,0.4-1.4,0.5
					c0,0,0.1,0,0.1,0c-0.1,0-0.3,0.1-0.4,0.1c-0.1,0-0.2,0.1-0.2,0.2c-0.1,0.1-0.1,0.2-0.1,0.3c0,0.1,0.1,0.2,0.2,0.2
					c0.1,0,0.2,0.1,0.3,0.1c0.5-0.2,1-0.3,1.5-0.5c0.5-0.2,1.1-0.5,1.6-0.8c0.5-0.3,0.9-0.6,1.3-1c0.4-0.3,0.8-0.7,1.1-1.2
					c0.1-0.2,0.1-0.4-0.1-0.5c-0.1,0-0.1-0.1-0.2-0.1C33.3,110.5,33.2,110.5,33.1,110.6L33.1,110.6L33.1,110.6z M32.8,111.1
					C32.8,111.1,32.8,111.1,32.8,111.1C32.8,111.1,32.8,111.1,32.8,111.1C32.8,111.1,32.8,111.1,32.8,111.1L32.8,111.1L32.8,111.1z"
					/>
				<path class="st0" d="M33.6,110.7c-0.1,0-0.2,0.1-0.2,0.2c-0.1,0.1-0.1,0.2-0.2,0.3c-0.1,0.1-0.1,0.2-0.2,0.3c0,0,0,0,0,0
					c0,0,0,0-0.1,0.1c0,0,0,0,0,0c0,0,0,0,0,0c-0.2,0.2-0.3,0.4-0.5,0.5c-0.2,0.2-0.4,0.3-0.6,0.5c-0.3,0.2-0.6,0.3-0.9,0.5
					c-0.2,0.1-0.2,0.3-0.2,0.5c0.1,0.2,0.3,0.2,0.5,0.2c0.3-0.1,0.5-0.2,0.7-0.4c0.3-0.2,0.5-0.3,0.8-0.5c0.3-0.2,0.5-0.5,0.8-0.7
					c0.2-0.2,0.3-0.4,0.5-0.7c0-0.1,0.1-0.2,0.1-0.3c0-0.1-0.1-0.2-0.2-0.2C33.8,110.7,33.7,110.7,33.6,110.7
					C33.6,110.7,33.6,110.7,33.6,110.7L33.6,110.7L33.6,110.7z M33,111.5C33,111.5,33,111.5,33,111.5C33,111.4,33,111.4,33,111.5
					C33,111.4,33,111.4,33,111.5L33,111.5L33,111.5z"/>
				<path class="st0" d="M33.6,111.1c-0.2,0.2-0.5,0.4-0.7,0.7c-0.2,0.2-0.5,0.4-0.7,0.5c-0.2,0.1-0.4,0.2-0.6,0.3
					c-0.2,0.1-0.3,0.3-0.2,0.5c0.1,0.2,0.3,0.2,0.5,0.2c0.2-0.1,0.4-0.2,0.7-0.3c0.2-0.1,0.3-0.2,0.5-0.3c0.4-0.3,0.7-0.6,1.1-1
					c0.1-0.1,0.2-0.4,0-0.5c-0.1-0.1-0.2-0.1-0.3-0.1C33.8,111,33.7,111.1,33.6,111.1L33.6,111.1L33.6,111.1z"/>
				<path class="st0" d="M33.7,111.8c-0.2,0.2-0.3,0.3-0.5,0.5c-0.2,0.1-0.4,0.3-0.5,0.4c0,0,0.1,0,0.1-0.1
					c-0.3,0.2-0.5,0.3-0.8,0.4c-0.2,0.1-0.3,0.3-0.2,0.5c0.1,0.2,0.3,0.3,0.5,0.2c0.3-0.1,0.6-0.3,0.9-0.5c0.2-0.1,0.4-0.3,0.5-0.4
					c0.2-0.1,0.3-0.3,0.5-0.5c0.1-0.1,0.1-0.1,0.1-0.2c0-0.1,0-0.2-0.1-0.3c-0.1-0.1-0.1-0.1-0.2-0.1c0,0,0,0,0,0
					C33.9,111.8,33.8,111.8,33.7,111.8L33.7,111.8L33.7,111.8z"/>
				<path class="st0" d="M34.1,111.7c-0.1,0.2-0.3,0.3-0.4,0.5c-0.2,0.2-0.3,0.3-0.5,0.5c0,0-0.1,0-0.1,0.1c0,0,0,0,0,0
					c-0.1,0-0.2,0-0.3,0c-0.1,0-0.1,0.1-0.2,0.2c0,0,0,0.1-0.1,0.1c0,0,0-0.1,0-0.1c0,0,0,0.1-0.1,0.1c0,0,0,0.1-0.1,0.1
					c-0.1,0.1,0,0.3,0.1,0.4c0,0,0,0,0.1,0c0,0,0.1,0.1,0.2,0.1c0.1,0,0.2,0,0.3-0.1c0.1-0.1,0.3-0.2,0.4-0.3
					c0.2-0.1,0.4-0.3,0.5-0.5c0.3-0.2,0.5-0.5,0.7-0.8c0.1-0.2,0.1-0.4-0.1-0.5c-0.1,0-0.1-0.1-0.2-0.1
					C34.3,111.5,34.2,111.6,34.1,111.7L34.1,111.7L34.1,111.7z M33.7,112.2C33.7,112.2,33.7,112.2,33.7,112.2
					C33.7,112.2,33.7,112.2,33.7,112.2L33.7,112.2L33.7,112.2z"/>
				<path class="st0" d="M26.9,113.1c-0.3,0.1-0.4,0.5-0.3,0.8c0.9,1.5,1.8,3,2.6,4.4c0.8,1.4,1.6,2.8,2.4,4.1c2,3.4,4,6.8,6.1,10.2
					c4,6.6,8.1,13.3,12.1,19.9c1.8,3,3.7,6,5.6,9.1c0.7,1.2,1.5,2.3,2.2,3.5c0.4,0.6,0.8,1.2,1.1,1.8c0.2,0.4,0.5,0.7,0.6,1.1
					c0.2,0.3,0.4,0.5,0.6,0.8c0.4,0.3,0.9,0.3,1.3,0.1c0.4-0.2,0.7-0.6,0.7-1.1c0-0.4-0.1-0.7-0.4-1c0,0,0,0,0,0
					c-0.8-1.2-1.5-2.4-2.2-3.6c-0.9-1.5-1.8-3-2.8-4.5c-2-3.3-4.1-6.5-6.2-9.7c-4.3-6.8-8.5-13.6-12.8-20.3
					c-1.7-2.7-3.5-5.5-5.3-8.2c-0.7-1.1-1.4-2.1-2.1-3.2c-0.9-1.3-1.7-2.6-2.6-4c-0.1-0.2-0.3-0.3-0.5-0.3C27,113,27,113,26.9,113.1
					L26.9,113.1L26.9,113.1z M61.4,166.6C61.4,166.6,61.4,166.6,61.4,166.6C61.4,166.6,61.4,166.6,61.4,166.6
					C61.4,166.6,61.4,166.6,61.4,166.6L61.4,166.6L61.4,166.6z"/>
				<path class="st0" d="M33,109c-0.3,0.2-0.5,0.6-0.3,0.9c1.1,1.6,2.2,3.2,3.2,4.9c0.9,1.4,1.7,2.7,2.6,4.1
					c2.1,3.2,4.2,6.4,6.3,9.6c4,6,8.1,12,12.2,18c1.8,2.7,3.7,5.4,5.5,8c1,1.4,2,2.8,2.9,4.2c0.4,0.6,0.8,1.2,1.2,1.7
					c0.3,0.4,0.5,0.7,0.8,1.1c0.2,0.3,0.4,0.6,0.7,0.9c0.1,0.1,0.2,0.2,0.3,0.3c0,0.1,0.1,0.1,0.1,0.2c0.1,0.1,0.2,0.3,0.2,0.4
					c0.2,0.7,1.1,1,1.7,0.7c0.2-0.1,0.4-0.3,0.5-0.5c0,0,0,0,0,0c0-0.1,0-0.1,0-0.2c0-0.1,0-0.2,0-0.3c0-0.1,0-0.3,0-0.4
					c0-0.1-0.1-0.1-0.1-0.2c0-0.1-0.1-0.1-0.1-0.2c-0.1-0.2-0.2-0.4-0.3-0.5c0,0-0.1-0.1-0.1-0.1c-0.1-0.2-0.2-0.3-0.3-0.5
					c-0.2-0.3-0.4-0.6-0.6-0.9c-0.3-0.5-0.6-0.9-0.9-1.3c-0.3-0.5-0.7-1-1-1.5c-1.7-2.5-3.4-5-5.1-7.5c-3.3-4.8-6.6-9.6-9.9-14.3
					c0.1,0.1,0.1,0.2,0.2,0.3c-3-4.4-6-8.7-9.1-13c-1.5-2.1-3-4.3-4.6-6.4c-1.4-1.9-2.9-3.9-4.2-5.9c0,0,0,0,0,0c0,0,0,0,0,0
					c0,0,0,0,0,0c0,0,0,0,0,0c0,0,0,0,0,0l0,0c0,0,0,0,0,0c-0.3-0.4-0.5-0.8-0.8-1.1c-0.1-0.2-0.2-0.3-0.4-0.3c-0.1,0-0.1,0-0.2,0
					C33.2,108.9,33.1,108.9,33,109L33,109L33,109z"/>
				<path class="st0" d="M70.9,163.5C70.9,163.5,70.9,163.5,70.9,163.5C70.9,163.5,70.9,163.5,70.9,163.5
					C70.9,163.5,70.9,163.5,70.9,163.5C70.9,163.5,70.9,163.5,70.9,163.5L70.9,163.5L70.9,163.5z"/>
				<polygon class="st0" points="34.7,110.4 34.7,110.4 34.7,110.4 34.7,110.4 34.7,110.4 				"/>
				<path class="st0" d="M34.7,110.4C34.7,110.4,34.7,110.4,34.7,110.4C34.7,110.4,34.7,110.4,34.7,110.4
					C34.7,110.4,34.7,110.4,34.7,110.4C34.7,110.4,34.7,110.4,34.7,110.4L34.7,110.4L34.7,110.4z"/>
				<path class="st0" d="M69.7,161.7c-0.3,0-0.5,0.2-0.7,0.4c-0.2,0.2-0.2,0.4-0.2,0.6c0,0,0,0,0,0c0,0,0,0.1,0,0.1
					c-0.1,0.3-0.2,0.5-0.4,0.8c-0.4,0.6-0.8,1.1-1.3,1.6c-0.6,0.6-1.3,1.1-2,1.5c-0.6,0.3-1.1,0.6-1.7,0.8c-0.4,0.1-0.8,0.2-1.2,0.2
					c-0.2,0-0.4,0-0.6-0.1c-0.1,0-0.3-0.1-0.4-0.2c0,0-0.1,0-0.1-0.1c-0.4-0.3-1-0.3-1.3,0.2c-0.2,0.3-0.2,0.7-0.1,1
					c0.1,0.1,0.1,0.2,0.2,0.3c0,0,0,0,0,0c0,0,0.1,0,0.1,0.1c0.2,0.1,0.4,0.3,0.6,0.4c0.3,0.1,0.6,0.2,0.8,0.3
					c0.5,0.1,1.1,0.1,1.6,0.1c0.6,0,1.2-0.2,1.8-0.4c0.6-0.2,1.3-0.4,1.8-0.7c1.2-0.6,2.3-1.4,3.2-2.5c0.2-0.2,0.3-0.5,0.5-0.8
					c0.2-0.3,0.3-0.6,0.4-0.9c0.1-0.3,0.1-0.5,0.1-0.8c0-0.2,0-0.4,0-0.5c0-0.1,0-0.2,0-0.4c0-0.1,0-0.2-0.1-0.2
					c0-0.1-0.1-0.1-0.1-0.2c0,0,0-0.1-0.1-0.1c-0.2-0.2-0.5-0.4-0.8-0.4C69.8,161.7,69.8,161.7,69.7,161.7L69.7,161.7L69.7,161.7z
					 M68.8,162.9C68.8,162.9,68.8,162.9,68.8,162.9C68.8,162.9,68.8,162.9,68.8,162.9L68.8,162.9L68.8,162.9z M68.6,163.3
					c0,0.1-0.1,0.1-0.1,0.1C68.6,163.4,68.6,163.4,68.6,163.3L68.6,163.3L68.6,163.3z"/>
				<path class="st0" d="M61,166.9c-0.2,0.1-0.2,0.3-0.1,0.5c0.2,0.4,0.5,0.7,0.8,1c0.1,0.1,0.3,0.2,0.5,0.1
					c0.2-0.1,0.2-0.4,0.1-0.5c-0.3-0.3-0.5-0.7-0.8-1c-0.1-0.1-0.2-0.1-0.3-0.1C61.1,166.9,61,166.9,61,166.9L61,166.9L61,166.9z"/>
				<path class="st0" d="M60.6,166.1c-0.2,0.1-0.2,0.3-0.1,0.5c0.5,0.6,1,1.3,1.4,1.9c0.1,0.2,0.3,0.2,0.5,0.1
					c0.2-0.1,0.2-0.3,0.1-0.5c-0.5-0.7-0.9-1.3-1.4-1.9c-0.1-0.1-0.2-0.1-0.3-0.1C60.7,166.1,60.7,166.1,60.6,166.1L60.6,166.1
					L60.6,166.1z"/>
				<path class="st0" d="M60.6,165.9c-0.2,0.1-0.2,0.3-0.1,0.5c0.5,0.7,1,1.4,1.4,2.1c0.1,0.2,0.4,0.2,0.5,0.1
					c0.2-0.1,0.2-0.3,0.1-0.5c-0.5-0.7-0.9-1.4-1.5-2.1c-0.1-0.1-0.2-0.1-0.3-0.1C60.7,165.8,60.7,165.8,60.6,165.9L60.6,165.9
					L60.6,165.9z"/>
				<path class="st0" d="M60.5,165.7c-0.2,0.1-0.2,0.3-0.1,0.5c0.5,0.7,1,1.3,1.4,2c0.1,0.2,0.4,0.2,0.5,0.1
					c0.2-0.1,0.2-0.3,0.1-0.5c-0.4-0.7-0.9-1.4-1.4-2c-0.1-0.1-0.2-0.1-0.3-0.1C60.6,165.6,60.5,165.6,60.5,165.7L60.5,165.7
					L60.5,165.7z"/>
				<path class="st0" d="M3.3,85.4c-0.2,0.1-0.3,0.4-0.2,0.6c0.9,1.9,1.8,3.9,2.7,5.8c0.9,2,1.8,3.9,2.7,5.8
					c0.8,1.9,1.7,3.7,2.6,5.5c0.6,1.3,1.1,2.7,1.8,4c0.6,1.3,1.3,2.6,2.1,3.9c0.4,0.7,0.9,1.3,1.4,1.9c0.5,0.6,1.1,1.1,1.6,1.6
					c0.5,0.4,1.1,0.7,1.8,1c0.8,0.4,1.7,0.6,2.6,0.6c1.9,0,3.7-0.9,4.9-2.2c0.2-0.2,0.3-0.5,0.1-0.8c-0.2-0.3-0.6-0.5-0.9-0.3
					c-0.6,0.3-1.1,0.6-1.7,0.8c-0.5,0.2-1.1,0.3-1.6,0.4c-0.4,0-0.8,0-1.2-0.1c-0.5-0.1-1-0.3-1.5-0.5c-0.6-0.3-1.2-0.7-1.7-1.1
					c-0.8-0.7-1.6-1.6-2.2-2.5c-1-1.5-1.8-3-2.6-4.6c-0.4-0.8-0.8-1.5-1.1-2.2c-0.5-1-1.1-2.1-1.7-3.1c-1.2-2.3-2.4-4.6-3.6-7
					c-1.2-2.4-2.4-4.8-3.6-7.3c-0.1-0.2-0.2-0.2-0.4-0.2C3.4,85.3,3.3,85.3,3.3,85.4L3.3,85.4L3.3,85.4z"/>
				<path class="st0" d="M18.1,76.3c0.2-0.1,0.5-0.1,0.6,0.1c1.4,1.7,2.7,3.3,4.1,4.9c1.4,1.6,2.8,3.3,4.2,4.9
					c1.3,1.5,2.6,3.1,3.9,4.7c0.9,1.1,1.9,2.2,2.9,3.3c0.9,1.1,1.8,2.3,2.6,3.5c0.4,0.7,0.8,1.3,1.1,2c0.3,0.7,0.5,1.4,0.7,2.1
					c0.2,0.7,0.2,1.3,0.2,2c0,0.9-0.2,1.8-0.6,2.6c-0.8,1.7-2.3,2.9-4.1,3.5c-0.3,0.1-0.6,0-0.8-0.2c-0.2-0.3-0.2-0.7,0.1-0.9
					c0.5-0.4,1-0.8,1.5-1.2c0.4-0.4,0.7-0.8,1-1.3c0.2-0.4,0.3-0.8,0.5-1.2c0.1-0.5,0.2-1,0.2-1.6c0-0.7-0.1-1.4-0.3-2
					c-0.3-1.1-0.8-2.1-1.3-3.1c-0.9-1.5-2-2.9-3.1-4.3c-0.5-0.7-1-1.3-1.5-2c-0.7-0.9-1.4-1.9-2.1-2.8c-1.6-2.1-3.2-4.1-4.8-6.2
					c-1.7-2.1-3.4-4.2-5.1-6.3c-0.1-0.1-0.1-0.3-0.1-0.5C18,76.4,18,76.3,18.1,76.3L18.1,76.3L18.1,76.3z"/>
				<path class="st0" d="M9.8,81.5c0.1,0.3,0.3,0.5,0.4,0.8c0,0,0.1,0.1,0.1,0.1c0.2,0.5,0.5,0.9,0.7,1.4c0.7,1.2,1.4,2.5,2.1,3.8
					c0.2,0.4,0.4,0.7,0.6,1.1c0,0,0,0,0,0c0.4,0.8,0.8,1.6,1.2,2.3c0.4,0.8,0.9,1.6,1.3,2.4c0.4,0.7,0.7,1.5,1,2.3
					c0.5,1.2,0.9,2.5,1,3.9c0,0.3,0,0.5,0,0.8c0,0.1,0,0.1-0.1,0.2c0,0,0,0,0,0c0,0,0,0,0,0c0,0,0,0,0,0c0,0-0.1,0-0.1,0
					c-0.1,0-0.3-0.1-0.4-0.1c-0.4-0.2-0.8-0.5-1.2-0.8c0,0,0,0,0,0c0,0,0,0-0.1-0.1c-1.9-1.6-3.5-3.5-5-5.4c-2.2-3-4.1-6.3-5.8-9.7
					c-0.1-0.2-0.4-0.3-0.6-0.2c-0.2,0.1-0.3,0.4-0.2,0.6c1.8,3.5,3.7,7,6,10.2c1.1,1.6,2.3,3,3.7,4.4c0.6,0.6,1.1,1.1,1.8,1.5
					c0.4,0.3,0.9,0.6,1.4,0.7c0.2,0.1,0.4,0.1,0.5,0.1c0.2,0,0.4-0.1,0.6-0.1c0.1-0.1,0.3-0.2,0.4-0.3c0.2-0.2,0.2-0.4,0.3-0.6
					c0.1-0.2,0.1-0.4,0.1-0.5c0-0.2,0-0.4,0-0.6c0-0.5-0.1-1-0.2-1.5c-0.2-1.1-0.6-2.2-1.1-3.3c-0.2-0.5-0.4-1-0.7-1.4
					c-0.5-0.9-1-1.9-1.5-2.8c-1.8-3.1-3.7-6.2-5.9-9C10.1,81.6,10,81.5,9.8,81.5C9.8,81.5,9.8,81.5,9.8,81.5L9.8,81.5L9.8,81.5z
					 M18.2,100.5C18.2,100.5,18.2,100.5,18.2,100.5C18.2,100.5,18.2,100.5,18.2,100.5L18.2,100.5L18.2,100.5z"/>
				<path class="st0" d="M16.4,99.7C16.4,99.7,16.4,99.7,16.4,99.7C16.4,99.7,16.4,99.7,16.4,99.7C16.4,99.7,16.4,99.7,16.4,99.7
					C16.4,99.7,16.4,99.7,16.4,99.7C16.4,99.7,16.4,99.7,16.4,99.7L16.4,99.7L16.4,99.7z"/>
				<path class="st0" d="M16.4,99.7C16.4,99.7,16.4,99.7,16.4,99.7C16.4,99.7,16.4,99.7,16.4,99.7L16.4,99.7L16.4,99.7z"/>
				<path class="st0" d="M16.4,77.1c-0.1,0.1-0.2,0.2-0.3,0.4c0,0.1,0,0.3,0,0.5c1.7,2.4,3.3,4.8,4.8,7.3c0.7,1.2,1.4,2.5,2,3.7
					c0.4,0.7,0.7,1.5,1,2.3c0.5,1.2,0.9,2.5,1,3.8c0,0.3,0,0.5,0,0.8c0,0.1,0,0.1-0.1,0.2c0,0,0,0,0,0.1c0,0,0,0,0,0h0
					c0,0-0.1,0-0.1,0c-0.1,0-0.3-0.1-0.4-0.1c-0.4-0.2-0.8-0.5-1.2-0.8c0,0,0,0,0,0c0,0,0,0,0,0c0,0,0,0,0,0c0,0-0.1-0.1-0.1-0.1
					c0,0,0,0,0.1,0c-1.9-1.6-3.5-3.5-5-5.5c-0.5-0.8-1.1-1.5-1.6-2.3c-0.6-0.8-1.2-1.6-1.7-2.4c-0.7-0.9-1.4-1.9-2-2.9c0,0,0,0,0,0
					c-0.3-0.3-0.5-0.6-0.7-1c-0.2-0.3-0.4-0.6-0.6-0.9c0,0.1,0,0.1,0,0.2c1.8,3.5,3.7,7,6,10.2c1.1,1.6,2.3,3,3.7,4.4
					c0.6,0.6,1.1,1.1,1.8,1.5c0.4,0.3,0.9,0.6,1.4,0.7c0.2,0,0.4,0.1,0.5,0.1c0.2,0,0.4-0.1,0.6-0.1c0.1-0.1,0.3-0.2,0.4-0.3
					c0.2-0.2,0.2-0.4,0.3-0.6c0.1-0.2,0.1-0.4,0.1-0.5c0-0.2,0-0.4,0-0.6c0-0.5-0.1-1-0.2-1.5c-0.2-1.1-0.6-2.2-1.1-3.3
					c-0.2-0.5-0.4-1-0.7-1.4c-0.5-0.9-1-1.9-1.5-2.8c-1.8-3.1-3.7-6.2-5.9-9C17,77.1,16.8,77,16.7,77C16.6,77,16.5,77,16.4,77.1
					L16.4,77.1L16.4,77.1z M25.1,96C25,96,25,96,25.1,96C25,96,25,96,25.1,96L25.1,96L25.1,96z"/>
				<path class="st0" d="M23.3,95.2C23.3,95.2,23.3,95.2,23.3,95.2C23.3,95.2,23.3,95.2,23.3,95.2C23.3,95.2,23.3,95.2,23.3,95.2
					C23.3,95.2,23.2,95.2,23.3,95.2C23.2,95.2,23.3,95.2,23.3,95.2L23.3,95.2L23.3,95.2z"/>
				<polygon class="st0" points="23.3,95.2 23.3,95.2 23.3,95.2 23.3,95.2 				"/>
				<path class="st0" d="M4.5,84.2c-0.1,0-0.2,0-0.3,0.1c-0.1,0-0.3,0.1-0.4,0.2c-0.2,0.1-0.3,0.2-0.4,0.4c-0.1,0.1-0.1,0.2-0.2,0.3
					c-0.1,0.1-0.1,0.3-0.2,0.5C3,85.8,3.1,86,3.3,86.1c0.2,0.1,0.5-0.1,0.5-0.3c0-0.1,0.1-0.2,0.1-0.3c0-0.1,0.1-0.1,0.1-0.2
					c0.1-0.1,0.2-0.2,0.3-0.3c0.1,0,0.2-0.1,0.2-0.1c0.1,0,0.2,0,0.3,0c0,0-0.1,0-0.1,0c0.1,0,0.2,0,0.4,0c0.2,0,0.4-0.2,0.4-0.3
					c0-0.1,0-0.2-0.1-0.3c-0.1-0.1-0.2-0.1-0.2-0.1c-0.1,0-0.3,0-0.4,0C4.7,84.2,4.6,84.2,4.5,84.2L4.5,84.2L4.5,84.2z"/>
				<path class="st0" d="M17.9,76.1c-0.1,0-0.2,0-0.3,0c-0.1,0-0.2,0.1-0.3,0.1c-0.1,0-0.3,0.1-0.4,0.2c-0.1,0.1-0.1,0.1-0.2,0.2
					c-0.1,0.1-0.2,0.2-0.2,0.3c-0.1,0.1-0.1,0.1-0.2,0.2c0,0,0,0.1,0,0.1c-0.1,0.1-0.1,0.2-0.1,0.3c-0.1,0.2,0,0.4,0.2,0.4
					c0.2,0.1,0.4,0,0.5-0.2c0-0.1,0.1-0.2,0.1-0.3c0,0,0,0,0,0c0,0,0.1-0.1,0.1-0.1c0,0,0,0,0.1-0.1c0.1-0.1,0.1-0.1,0.2-0.2
					c0.1,0,0.1-0.1,0.2-0.1c0.1,0,0.2-0.1,0.3-0.1c0,0,0.1,0,0.1,0c0.1,0,0.2,0,0.4,0c0.2,0,0.4-0.2,0.4-0.3c0-0.1,0-0.2-0.1-0.3
					c-0.1-0.1-0.2-0.1-0.2-0.1C18.2,76.2,18.1,76.1,17.9,76.1C18,76.1,18,76.1,17.9,76.1L17.9,76.1L17.9,76.1z M17.6,76.9
					C17.5,76.9,17.5,76.9,17.6,76.9C17.5,76.9,17.5,76.9,17.6,76.9L17.6,76.9L17.6,76.9z M17.3,77C17.3,77,17.3,77,17.3,77
					C17.3,77,17.3,77,17.3,77L17.3,77L17.3,77z M17,77.4C17,77.4,17,77.4,17,77.4C17,77.4,17,77.4,17,77.4L17,77.4L17,77.4z"/>
				<path class="st0" d="M11.5,80c-0.2,0-0.4,0.1-0.6,0.2c-0.2,0.1-0.4,0.2-0.6,0.3c-0.2,0.1-0.3,0.3-0.5,0.4c0,0.1-0.1,0.2-0.1,0.2
					c0,0,0,0.1-0.1,0.2c0,0.1,0,0.2-0.1,0.3c0,0.2,0.1,0.4,0.3,0.4c0.2,0,0.4-0.1,0.4-0.3c0,0,0-0.1,0-0.1c0,0,0-0.1,0.1-0.1
					c0,0,0,0,0,0c0-0.1,0.1-0.1,0.1-0.2c0,0,0.1-0.1,0.1-0.1c0.1-0.1,0.2-0.1,0.2-0.2c0.1-0.1,0.2-0.1,0.3-0.2
					c0.1,0,0.2-0.1,0.3-0.1c0,0-0.1,0-0.1,0c0.1,0,0.1,0,0.2,0c0.2,0,0.3-0.2,0.3-0.4C11.9,80.1,11.8,80,11.5,80
					C11.6,80,11.6,80,11.5,80L11.5,80L11.5,80z M11,80.9C10.9,80.9,10.9,81,11,80.9C10.9,81,10.9,80.9,11,80.9L11,80.9L11,80.9z
					 M10.4,81.5C10.4,81.5,10.4,81.5,10.4,81.5C10.4,81.5,10.4,81.5,10.4,81.5C10.4,81.5,10.4,81.5,10.4,81.5L10.4,81.5L10.4,81.5z
					 M10.4,81.5C10.4,81.5,10.4,81.5,10.4,81.5C10.4,81.5,10.4,81.5,10.4,81.5C10.4,81.5,10.4,81.5,10.4,81.5L10.4,81.5L10.4,81.5z"
					/>
				<path class="st0" d="M9.8,81.5c-0.1,0.1-0.1,0.2-0.2,0.3c0.1,0.2,0.2,0.4,0.3,0.6c0.1,0.1,0.3,0.1,0.4,0
					c0.1-0.1,0.2-0.3,0.1-0.4c0,0,0,0,0-0.1c0-0.1-0.1-0.2-0.2-0.2c-0.1-0.1-0.2-0.2-0.3-0.2C9.9,81.4,9.8,81.4,9.8,81.5L9.8,81.5
					L9.8,81.5z"/>
				<path class="st0" d="M9.8,81.5c-0.1,0-0.1,0.1-0.2,0.2c0,0,0,0,0,0.1c0.2,0.4,0.4,0.8,0.6,1.2c0.1,0.1,0.1,0.2,0.2,0.3
					c0.1,0.2,0.3,0.2,0.5,0.1c0.2-0.1,0.2-0.3,0.1-0.5c-0.3-0.4-0.5-0.8-0.8-1.3c-0.1-0.1-0.2-0.2-0.3-0.2
					C9.9,81.4,9.8,81.4,9.8,81.5L9.8,81.5L9.8,81.5z"/>
				<path class="st0" d="M9.8,81.6c-0.1,0.1-0.2,0.2-0.2,0.3c0.1,0.3,0.3,0.5,0.4,0.8c0.4,0.7,0.9,1.3,1.3,2
					c0.1,0.2,0.3,0.2,0.5,0.1c0.2-0.1,0.2-0.3,0.1-0.5c-0.5-0.8-1-1.5-1.4-2.3c0,0-0.1-0.1-0.1-0.1c0,0-0.1-0.1-0.1-0.1
					c-0.1-0.1-0.2-0.2-0.3-0.2C10,81.5,9.9,81.5,9.8,81.6L9.8,81.6L9.8,81.6z"/>
				<path class="st0" d="M10.3,82.2c-0.2,0.1-0.2,0.3-0.1,0.5c0.6,1.1,1.3,2.1,1.9,3.2c0.1,0.2,0.3,0.2,0.5,0.1
					c0.2-0.1,0.2-0.3,0.1-0.5c-0.7-1-1.3-2.1-1.9-3.1c0,0,0-0.1-0.1-0.1c0,0,0,0-0.1-0.1c0,0,0,0,0,0c-0.1,0-0.1,0-0.2,0
					C10.4,82.1,10.4,82.1,10.3,82.2L10.3,82.2L10.3,82.2z"/>
				<path class="st0" d="M9.9,81.6c-0.1,0.1-0.1,0.1-0.2,0.2c0,0.1,0,0.2,0.1,0.3c0.7,1.4,1.5,2.7,2.4,4.1c0.4,0.7,0.8,1.3,1.2,2
					c0.4,0.8,0.9,1.5,1.3,2.3c0.1,0.2,0.3,0.2,0.5,0.1c0.2-0.1,0.2-0.3,0.1-0.5c-0.4-0.7-0.8-1.4-1.2-2.1c-0.4-0.7-0.8-1.4-1.2-2
					c-0.8-1.3-1.5-2.5-2.2-3.8c0,0,0,0,0,0c0-0.1-0.1-0.1-0.1-0.1c0,0,0,0.1,0.1,0.1c0,0-0.1-0.1-0.1-0.1c-0.1-0.1-0.1-0.1-0.1-0.2
					c0,0,0,0,0-0.1c0,0,0,0,0,0c-0.1-0.1-0.1-0.1-0.2-0.1c0,0,0,0-0.1,0C10.1,81.5,10,81.5,9.9,81.6L9.9,81.6L9.9,81.6z"/>
				<path class="st0" d="M11.6,80c-0.1,0.1-0.1,0.1-0.2,0.2c0,0.1,0,0.2,0.1,0.3c0.9,1.6,1.8,3.2,2.8,4.8c1.1,1.6,2.2,3.2,3.2,4.9
					c0.1,0.2,0.3,0.2,0.5,0.1c0.2-0.1,0.2-0.3,0.1-0.5c-1-1.6-2-3.1-3.1-4.6c-1.1-1.6-2.1-3.3-3-5c0-0.1-0.1-0.1-0.2-0.2
					c0,0,0,0-0.1,0C11.7,80,11.6,80,11.6,80L11.6,80L11.6,80z"/>
				<path class="st0" d="M11.7,80.2c-0.1,0.1-0.1,0.1-0.2,0.2c0,0.1,0,0.2,0.1,0.3c1.1,2.1,2.4,4.1,3.7,6.1c1.3,2,2.7,3.9,4.1,5.9
					c0.1,0.2,0.3,0.2,0.5,0.1c0.2-0.1,0.2-0.3,0.1-0.5c-1.4-2-2.7-3.9-4.1-5.9c-1.2-1.8-2.4-3.7-3.4-5.6c-0.1-0.2-0.3-0.4-0.4-0.6
					c0,0-0.1,0-0.1,0c0,0,0,0-0.1,0C11.9,80.1,11.8,80.1,11.7,80.2L11.7,80.2L11.7,80.2z"/>
				<path class="st0" d="M9.9,81.5c-0.1,0.1-0.1,0.1-0.2,0.2c0,0.1,0,0.2,0,0.3c0.3,0.6,0.6,1.1,1,1.6c0.1,0.2,0.3,0.2,0.5,0.1
					c0.2-0.1,0.2-0.3,0.1-0.5c-0.3-0.5-0.7-1.1-1-1.6c0-0.1-0.1-0.1-0.2-0.2c0,0,0,0-0.1,0C10.1,81.4,10,81.5,9.9,81.5L9.9,81.5
					L9.9,81.5z"/>
				<path class="st0" d="M10,81.5c-0.2,0.1-0.2,0.3-0.1,0.5c0.6,1,1.2,1.9,1.8,2.8c0.1,0.2,0.3,0.2,0.5,0.1c0.2-0.1,0.2-0.3,0.1-0.5
					c-0.6-0.9-1.2-1.9-1.8-2.8c-0.1-0.1-0.2-0.2-0.3-0.2C10.1,81.4,10,81.4,10,81.5L10,81.5L10,81.5z"/>
				<path class="st0" d="M15.7,105.4c-0.2,0.1-0.2,0.3-0.1,0.5c0.7,1,1.3,2,2,3c0.7,0.9,1.4,1.8,2.3,2.5c0.4,0.3,0.8,0.6,1.3,0.8
					c0.5,0.2,1.1,0.3,1.6,0.4c0.2,0,0.5,0,0.7,0c0.3,0,0.6-0.1,0.9-0.2c0.3-0.1,0.6-0.2,0.9-0.4c0.3-0.2,0.7-0.4,1-0.6
					c0.2-0.1,0.3-0.2,0.3-0.4c0.1-0.2,0-0.4-0.1-0.6c-0.1-0.2-0.3-0.3-0.4-0.3c-0.2-0.1-0.4,0-0.6,0.1c-0.4,0.3-0.9,0.6-1.4,0.8
					c-0.4,0.1-0.7,0.2-1.1,0.3c-0.3,0-0.5,0-0.8,0c-0.4-0.1-0.7-0.2-1.1-0.3c-0.5-0.2-0.9-0.5-1.4-0.9c-1-0.8-1.9-1.8-2.7-2.9
					c0,0,0,0,0,0c-0.3-0.4-0.6-0.9-0.9-1.4c-0.1-0.1-0.2-0.2-0.3-0.2C15.8,105.3,15.8,105.3,15.7,105.4L15.7,105.4L15.7,105.4z
					 M19.8,109.8C19.8,109.8,19.8,109.8,19.8,109.8C19.8,109.8,19.8,109.8,19.8,109.8L19.8,109.8L19.8,109.8z M22.1,110.9
					C22.1,110.9,22.2,110.9,22.1,110.9C22.2,110.9,22.1,110.9,22.1,110.9L22.1,110.9L22.1,110.9z"/>
				<path class="st0" d="M16,102.7c-0.2,0.1-0.2,0.3-0.1,0.5c1.2,1.8,2.4,3.6,3.6,5.3c0.1,0.1,0.1,0.1,0.2,0.2c0.1,0,0.2,0,0.3,0
					c0.1,0,0.1-0.1,0.2-0.2c0-0.1,0-0.2,0-0.3c-1.2-1.8-2.4-3.5-3.6-5.3c-0.1-0.1-0.2-0.2-0.3-0.2C16.1,102.6,16,102.7,16,102.7
					L16,102.7L16,102.7z"/>
				<path class="st0" d="M32.9,109.6c-0.3,0.3-0.5,0.7-0.8,1c0,0,0.1-0.1,0.1-0.1c-0.3,0.3-0.6,0.6-1,0.9c-0.3,0.3-0.7,0.5-1,0.7
					c0,0,0,0,0,0c0,0-0.1,0-0.1,0c0,0,0,0,0,0c0,0,0,0,0,0c-0.8,0.4-1.6,0.8-2.4,1c-0.1,0-0.3,0.1-0.4,0.1c-0.1,0-0.2,0.1-0.3,0.2
					c-0.1,0.1-0.1,0.2-0.1,0.3c0,0.1,0.1,0.2,0.2,0.3c0.1,0.1,0.2,0.1,0.3,0.1c1.2-0.3,2.4-0.7,3.4-1.4c0.3-0.2,0.5-0.3,0.7-0.5
					c0.3-0.2,0.6-0.5,0.8-0.7c0.2-0.2,0.5-0.5,0.7-0.7c0.2-0.3,0.4-0.5,0.5-0.8c0.1-0.2,0-0.4-0.1-0.5c-0.1-0.1-0.2-0.1-0.2-0.1
					C33.1,109.4,33,109.5,32.9,109.6L32.9,109.6L32.9,109.6z M30.1,112.1C30.1,112.1,30.1,112.1,30.1,112.1
					C30.2,112.1,30.2,112.1,30.1,112.1C30.2,112.1,30.1,112.1,30.1,112.1L30.1,112.1L30.1,112.1z"/>
				<path class="st0" d="M34.4,112c-0.1,0-0.2,0.1-0.3,0.2c-0.2,0.2-0.4,0.4-0.6,0.6c-0.3,0.3-0.6,0.5-0.9,0.8
					c-0.3,0.3-0.7,0.5-1,0.7c-1,0.6-2,1-3.1,1.4c-0.2,0.1-0.3,0.3-0.2,0.5c0.1,0.2,0.3,0.3,0.5,0.2c0.5-0.2,1.1-0.4,1.6-0.6
					c0.6-0.2,1.2-0.5,1.8-0.8c0.5-0.3,0.9-0.6,1.4-0.9c0.2-0.2,0.4-0.3,0.6-0.5c0.1-0.1,0.2-0.2,0.3-0.3c0.2-0.2,0.3-0.4,0.4-0.5
					c0.1-0.1,0.1-0.2,0.1-0.3c0-0.1-0.1-0.2-0.2-0.3C34.7,112,34.6,112,34.4,112C34.5,112,34.5,112,34.4,112L34.4,112L34.4,112z"/>
				<path class="st0" d="M38.4,126.3c-0.2,0.1-0.2,0.3-0.1,0.5c4.1,6.4,8.1,12.9,12.2,19.3c2,3.1,4,6.3,5.9,9.4
					c0.9,1.4,1.8,2.8,2.6,4.2c0.4,0.6,0.7,1.1,1,1.7c0.4,0.6,0.8,1.3,1.2,1.9c0.2,0.3,0.3,0.6,0.5,0.8c0.1,0.1,0.1,0.2,0.2,0.3
					c0.1,0.1,0.1,0.1,0.1,0.2c0.1,0.1,0.2,0.1,0.4,0.1c0.1,0,0.1-0.1,0.2-0.1c0.1-0.1,0.1-0.2,0.1-0.3c0-0.1,0-0.2-0.1-0.2
					c0-0.1-0.1-0.2-0.1-0.3c-0.2-0.3-0.4-0.6-0.6-0.9c-0.4-0.6-0.8-1.3-1.2-1.9c-0.4-0.6-0.7-1.1-1.1-1.7c-0.4-0.7-0.9-1.4-1.3-2
					c-2-3.1-4-6.3-6-9.4c-4.1-6.4-8.1-12.9-12.2-19.3c-0.5-0.7-0.9-1.4-1.4-2.2c-0.1-0.1-0.2-0.1-0.3-0.1
					C38.5,126.3,38.4,126.3,38.4,126.3L38.4,126.3L38.4,126.3z"/>
				<path class="st0" d="M51.5,143.9c-0.2,0.1-0.2,0.3-0.1,0.5c2.4,3.8,4.8,7.6,7.2,11.5c0.1,0.2,0.3,0.2,0.5,0.1
					c0.2-0.1,0.2-0.3,0.1-0.5c-2.4-3.8-4.8-7.6-7.2-11.5c-0.1-0.1-0.2-0.1-0.3-0.1C51.7,143.9,51.6,143.9,51.5,143.9L51.5,143.9
					L51.5,143.9z"/>
				<path class="st0" d="M60.5,158.1c-0.2,0.1-0.2,0.3-0.1,0.5c1.4,2.2,2.8,4.4,4.1,6.5c0.1,0.2,0.3,0.2,0.5,0.1
					c0.2-0.1,0.2-0.3,0.1-0.5c-1.4-2.2-2.8-4.4-4.1-6.5c-0.1-0.1-0.2-0.2-0.3-0.2C60.6,158,60.5,158,60.5,158.1L60.5,158.1
					L60.5,158.1z"/>
			</g>
		</g>
	</g>
	<path class="st2" d="M33.6,45.4c-0.2,0-0.4,0-0.6,0.1c-0.7,0.1-1.3,0.4-1.7,1c-0.2,0.3-0.4,0.6-0.6,1c-0.2,0.4-0.4,0.9-0.5,1.4
		c-0.2,0.9-0.2,1.8,0,2.8c0.2,0.9,0.5,1.7,1.1,2.7c0.5,0.8,1.1,1.7,2,2.6c0.7,0.8,1.6,1.6,2.7,2.6c0.9,0.8,2,1.5,3.2,2.4
		c2.9,2,6.1,3.8,10.2,5.7c1.4,0.7,2.8,1.3,4.5,2c1.3,0.5,2.3,0.9,3.2,1.2c0,0,0.1,0,0.1,0c0.1,0,0.2,0,0.2,0c0,0,0,0,0,0
		c0.1,0,0.2,0,0.2-0.1c0.1-0.1,0.2-0.2,0.2-0.3c0-0.1,0-0.2-0.1-0.3c-1.1-1.7-2.4-3.3-3.6-4.9l-1-1.3c-0.4-0.5-0.8-1.1-1.3-1.7
		c-0.5-0.7-1-1.4-1.6-2c-1.5-2-3.1-3.9-4.6-5.7c-2-2.3-3.7-4-5.3-5.5c-0.9-0.8-1.8-1.5-2.6-2c-0.8-0.6-1.6-1-2.4-1.3
		C34.6,45.5,34.1,45.4,33.6,45.4L33.6,45.4L33.6,45.4z"/>
	<path class="st3" d="M49.2,27.7c-0.3,0-0.7,0.1-1,0.2c-0.4,0.1-0.7,0.3-1,0.6c-0.3,0.2-0.6,0.5-0.8,0.9c-0.4,0.6-0.6,1.3-0.7,2.2
		c-0.1,0.8,0,1.6,0.3,2.6c0.2,0.9,0.6,1.8,1.1,3c0.4,1,1,2,1.7,3.2c1.4,2.4,3.1,4.6,4.3,6.3c1,1.3,2,2.7,3.1,4l0.7,0.8
		c0.4,0.5,0.8,1,1.2,1.5c0.1,0.1,0.1,0.1,0.3,0.1c0.1,0,0.2,0,0.3-0.1c0.2-0.2,0.2-0.4,0.2-0.5c-0.1-0.3-0.1-0.7-0.2-1l-0.1-0.7
		l-0.4-1.7c-0.1-0.4-0.2-0.8-0.2-1.2l0-0.2c-0.1-0.7-0.2-1.4-0.4-2.2c-0.4-2.5-0.9-4.7-1.5-6.8c-0.7-2.9-1.5-5-2.4-6.9
		c-0.5-1-1-1.8-1.6-2.5c-0.6-0.7-1.2-1.2-1.9-1.5C50,27.8,49.6,27.7,49.2,27.7L49.2,27.7L49.2,27.7z"/>
	<path class="st2" d="M161.6,30.8c-0.2-0.1-0.4-0.2-0.6-0.3c-0.3-0.1-0.7-0.2-1.1-0.2c-0.4,0-0.9,0-1.5,0.1
		c-0.9,0.1-1.9,0.5-2.9,1.1c-0.5,0.3-1,0.7-1.4,1c-0.5,0.4-1,0.8-1.5,1.3c-1.1,1.1-2,2.2-2.7,3.2c-1.6,2.1-3.1,4.5-4.7,7.5
		c-0.8,1.4-1.5,2.9-2.2,4.4c-0.6,1.2-1.1,2.4-1.5,3.5c0,0.1-0.1,0.1,0,0.2c0,0.2,0,0.4,0.1,0.5c0,0,0,0,0,0c0.2,0.1,0.4,0.1,0.6,0
		c0.6-0.5,1.2-1,1.8-1.5c0.8-0.6,1.7-1.3,2.6-2l0.9-0.7c0.5-0.4,1-0.7,1.5-1.1c0.4-0.3,0.8-0.7,1.3-1c1.6-1.3,3-2.5,4.4-3.8
		c1.9-1.8,3.4-3.3,4.7-4.8c0.7-0.8,1.3-1.6,1.8-2.4c0.5-0.7,0.8-1.4,1.1-2.1c0.1-0.4,0.3-1.1,0-1.8c-0.1-0.3-0.3-0.5-0.5-0.8
		C161.8,31,161.7,30.9,161.6,30.8L161.6,30.8L161.6,30.8z"/>
	<path class="st2" d="M78.4,29.8c0,2.4,2,4.5,4.5,4.5c2.4,0,4.5-2,4.5-4.5c0-2.4-2-4.5-4.5-4.5C80.4,25.3,78.4,27.3,78.4,29.8
		L78.4,29.8L78.4,29.8z"/>
	<path class="st3" d="M106.9,27c0,1.4,1.2,2.5,2.5,2.5s2.5-1.2,2.5-2.5s-1.2-2.5-2.5-2.5S106.9,25.6,106.9,27L106.9,27L106.9,27z"/>
	<path class="st3" d="M79.9,48.3c0,1.8,1.5,3.2,3.2,3.2c1.8,0,3.2-1.5,3.2-3.2c0-1.8-1.5-3.2-3.2-3.2C81.4,45,79.9,46.5,79.9,48.3
		L79.9,48.3L79.9,48.3z"/>
</g>
</svg>
