<?xml version="1.0" encoding="utf-8"?>
<!-- Generator: Adobe Illustrator 22.0.0, SVG Export Plug-In . SVG Version: 6.00 Build 0)  -->
<svg version="1.1" id="Layer_1" xmlns="http://www.w3.org/2000/svg" xmlns:xlink="http://www.w3.org/1999/xlink" x="0px" y="0px"
	 width="210px" height="210px" viewBox="0 0 210 210" style="enable-background:new 0 0 210 210;" xml:space="preserve">
<style type="text/css">
	.st0{fill:#D5A93D;}
	.st1{fill:#282828;}
	.st2{fill:#C8962C;}
</style>
<g>
	<path class="st0" d="M135.1,25.8c-0.6,0.1-1.3,0.3-2.1,0.6c-1.2,0.4-2.3,1.3-3.3,2.4c-0.9,1-1.6,2.2-2.4,3.7
		c-0.6,1.4-1.1,2.9-1.6,4.8c-0.4,1.6-0.7,3.4-1,5.4c-0.6,4-0.7,8.1-0.8,11.2c0,1.5,0,3.1,0,4.6c0,1.3,0,2.6,0,4
		c0,0.2,0.1,0.5,0.3,0.5c0.4-0.6,0.9-1.3,1.4-1.9c0.2-0.2,0.3-0.5,0.5-0.7c0.1-0.2,0.3-0.4,0.4-0.6c0.1-0.2,0.3-0.4,0.4-0.6
		c0.6-1,1.2-2,1.9-2.9l0.9-1.4c1-1.6,2-3.2,2.8-4.8c1.2-2.2,2.4-4.6,3.5-7c1.1-2.4,2.4-5.6,3.3-8.9c0.4-1.5,0.6-2.7,0.6-3.9
		c0-1.3-0.2-2.2-0.7-2.9c-0.2-0.4-0.6-0.7-0.9-1c-0.5-0.3-1-0.4-1.4-0.5c-0.2,0-0.4-0.1-0.7-0.1C135.8,25.7,135.5,25.7,135.1,25.8
		L135.1,25.8L135.1,25.8z"/>
	<path class="st1" d="M159.2,17.2c-0.7,0.3-1.3,0.7-1.7,1c-0.7,0.5-1.3,1.1-1.8,1.5c-1.1,1.1-2.1,2.3-3.3,3.9c-1,1.4-1.9,3-2.9,4.9
		c-0.8,1.6-1.7,3.3-2.5,5.3c-1.1,2.6-2.1,5.3-3,8.2c-0.6,1.8-1.2,3.9-1.6,6.1c0,0.1,0,0.3,0.1,0.4c1.2-1.1,2.4-2.2,3.6-3.2
		c4.8-4.3,9.9-8.4,14.4-13.1c0,0,0,0,0,0c0.2-0.2,0.5-0.5,0.7-0.7c0,0,0,0,0,0c0.8-0.9,1.7-1.7,2.5-2.6c0.1-0.2,0.3-0.4,0.4-0.5
		c0.1-0.2,0.3-0.4,0.4-0.5c0.3-0.3,0.5-0.6,0.8-0.9c0-0.1,0.1-0.1,0.1-0.2c0.2-0.3,0.4-0.6,0.6-0.9c0.7-1.2,1.2-2.3,1.5-3.3
		c0.3-1.1,0.4-2.1,0.3-2.9c-0.2-0.9-0.7-1.7-1.4-2.2c-0.3-0.2-0.8-0.4-1.3-0.6c-0.5-0.2-1.2-0.3-1.9-0.3c-0.2,0-0.4,0-0.5,0
		C161.5,16.4,160.4,16.7,159.2,17.2L159.2,17.2L159.2,17.2z"/>
	<path class="st0" d="M174.6,42.8c-1.3,0.1-2.6,0.5-4.2,1.3c-1.3,0.6-2.7,1.5-4.3,2.6c-2.7,2-5.2,4.4-8.3,7.9
		c-0.8,0.9-1.7,1.9-2.5,2.9c-0.7,1-1.5,2-2.2,3c-0.1,0.2-0.3,0.4-0.4,0.6c-0.8,1.2-1.6,2.3-2.5,3.5c-1.3,1.8-2.7,3.6-3.8,5.5
		c0,0,0,0,0,0c-0.1,0.1-0.1,0.2-0.1,0.4c0.1,0.3,0.3,0.5,0.6,0.5l1-0.3c0.4-0.1,0.9-0.2,1.3-0.3c0.6-0.2,1.2-0.4,1.8-0.6
		c1.7-0.6,3.2-1.1,4.7-1.8c1.5-0.6,3-1.3,4.5-2l0.2-0.1c2.4-1.1,4.8-2.3,7.1-3.5c3.3-1.7,6.1-3.5,8.5-5.3c1.4-1,2.6-2,3.5-2.9
		c1.1-1,1.9-2,2.5-3c0.6-1,0.9-2.1,0.9-3c0-0.5-0.1-1-0.3-1.5c-0.1-0.4-0.4-0.9-0.8-1.4c-0.3-0.4-0.8-0.8-1.4-1.2
		c-0.6-0.4-1.2-0.7-2-1c-0.9-0.3-1.9-0.5-2.9-0.5C175.3,42.7,175,42.8,174.6,42.8L174.6,42.8L174.6,42.8z"/>
	<path class="st1" d="M9.2,42.7c-0.1,1.6,1.3,3.1,2.9,3.1s3.1-1.2,3.1-2.9c0.1-1.6-1.3-3.1-2.9-3.1S9.3,41,9.2,42.7L9.2,42.7
		L9.2,42.7z"/>
	<path class="st0" d="M6.8,33.7c0,0.4,0.3,0.8,0.8,0.8c0.4,0,0.8-0.3,0.8-0.8C8.3,33.4,8,33,7.6,33C7.1,33,6.8,33.3,6.8,33.7
		L6.8,33.7L6.8,33.7z"/>
	<path class="st1" d="M16,30.2c0,0.9,0.7,1.7,1.6,1.7c0.9,0,1.7-0.7,1.7-1.6c0-0.9-0.7-1.7-1.6-1.7C16.8,28.7,16,29.3,16,30.2
		L16,30.2L16,30.2z"/>
	<path class="st1" d="M32.2,27.2c-0.1,1.6,1.3,3.1,2.9,3.1c1.6,0,3.1-1.2,3.1-2.9c0.1-1.6-1.3-3.1-2.9-3.1
		C33.7,24.3,32.3,25.5,32.2,27.2L32.2,27.2L32.2,27.2z"/>
	<path class="st1" d="M11.8,17.9c-0.1,1.6,1.3,3.1,2.9,3.1c1.6,0,3.1-1.2,3.1-2.9c0.1-1.6-1.3-3.1-2.9-3.1
		C13.3,15,11.9,16.2,11.8,17.9L11.8,17.9L11.8,17.9z"/>
	<path class="st0" d="M23.3,38.7c0,0.6,0.4,1.1,1,1.1c0.6,0,1.1-0.4,1.1-1c0-0.6-0.4-1.1-1-1.1C23.8,37.6,23.3,38.1,23.3,38.7
		L23.3,38.7L23.3,38.7z"/>
	<path class="st1" d="M10.8,63.3c-0.1,1.5,1.1,2.8,2.6,2.8c1.5,0,2.8-1.1,2.8-2.6c0.1-1.5-1.1-2.8-2.6-2.8
		C12.2,60.7,10.9,61.8,10.8,63.3L10.8,63.3L10.8,63.3z"/>
	<path class="st1" d="M183.5,65.9c-0.1,1.6,1.2,3.2,2.9,3.2c1.6,0,3.1-1.2,3.2-2.9c0.1-1.6-1.2-3.2-2.9-3.2
		C185,63,183.6,64.2,183.5,65.9L183.5,65.9L183.5,65.9z"/>
	<path class="st1" d="M178.5,31.2c0,0.9,0.7,1.9,1.7,1.9c1,0,1.8-0.7,1.9-1.7c0-0.9-0.7-1.9-1.7-1.9
		C179.4,29.5,178.5,30.2,178.5,31.2L178.5,31.2L178.5,31.2z"/>
	<path class="st1" d="M46.3,169c0,0-0.1,0-0.1,0c0,0,0,0,0,0c-0.1,0-0.2,0-0.2,0c-4.8,1.3-10.3,2.9-15.4,5.4
		c-2.5,1.2-4.7,2.6-6.7,4.2c-1.3,1.1-2.5,2.4-3.5,3.8c-0.4,0.6-0.8,1.3-1,2c-0.1,0.3-0.2,0.6-0.3,0.9c-0.1,0.4-0.1,0.7-0.1,1
		c0,0.5,0.2,1,0.5,1.5c0.5,0.6,1.2,0.9,1.6,1c0.5,0.1,1,0.2,1.6,0.2c0.4,0,0.8,0,1.2-0.1c0.8-0.1,1.6-0.3,2.6-0.7
		c0.8-0.3,1.5-0.7,2.5-1.2c0.9-0.6,1.9-1.2,2.9-2c1.3-0.9,2.5-2,4.2-3.5c1.3-1.2,2.5-2.4,3.7-3.7c1.1-1.1,2.1-2.2,3.1-3.3l0.3-0.3
		c0.5-0.5,1-1.1,1.5-1.7c0.7-0.9,1.4-1.8,2.1-2.8c0.2-0.3,0.1-0.6-0.1-0.7C46.5,169,46.4,169,46.3,169L46.3,169L46.3,169z"/>
	<path class="st0" d="M61.7,168.4c-0.1,0-0.3,0-0.4,0.1c-1.7,1.6-3.5,3.2-5.2,4.7c-2.4,2.1-4.9,4.2-7.1,6.5c-2,2-3.7,4.1-5.2,6.3
		c-0.8,1.1-1.4,2.4-2,3.8c-0.7,1.7-1.2,3.2-1.3,4.6c-0.1,0.7,0,1.4,0.2,2c0.2,0.7,0.5,1.2,1,1.7c0.5,0.4,1.1,0.7,1.9,0.9
		c0.4,0.1,0.7,0.1,1.1,0.1c0.4,0,0.8,0,1.1-0.1c0.6-0.1,1.2-0.4,1.8-0.8c0.6-0.4,1.2-0.8,1.8-1.5c0.6-0.6,1.3-1.4,2-2.4
		c0.6-0.9,1.3-1.9,2-3.1c1.3-2.2,2.3-4.6,3.2-6.6c0.6-1.5,1.2-2.9,1.8-4.4l0.4-1l0.3-0.7l0.3-0.7c0.4-0.9,0.7-1.9,1-2.9l0.4-1.1
		c0.5-1.5,1-3.1,1.7-4.6c0.1-0.3-0.1-0.5-0.3-0.6C62,168.4,61.9,168.4,61.7,168.4L61.7,168.4L61.7,168.4z"/>
	<g>
		<path class="st1" d="M141.1,81.8c-2.9,0.6-5.8,1.4-8.5,2.5c-2.1,0.9-4.2,1.8-6.3,2.9c0,0,0.1,0.1,0.1,0.1c0,0,0,0,0.1,0
			c0.1-0.1,0.3-0.1,0.4,0c0.1,0,0.2,0.1,0.2,0.1c0.4,0.6,0.9,1.2,1.3,1.8c0,0,0.1,0.1,0.1,0.1c0.2,0.3,0.4,0.5,0.6,0.8
			c1-0.5,2.1-1,3.1-1.5c4.1-1.7,8.4-2.8,12.8-3.4c2.2-0.3,4.5-0.5,6.7-0.4c2.2,0,4.4,0.2,6.6,0.5c4.2,0.6,8.4,1.8,12.3,3.4
			c-0.1-0.1-0.3-0.1-0.4-0.2c2,0.9,4,1.9,5.9,3c1.7,1,3.4,2.2,5.1,3.4c0,0,0,0,0,0c0,0,0.1,0,0.1,0.1c1.5,1.2,2.9,2.4,4.3,3.8
			c1.6,1.5,3,3.2,4.4,4.9c0-0.1-0.1-0.1-0.1-0.2c1.3,1.7,2.5,3.5,3.6,5.3c1,1.8,2,3.7,2.8,5.6c-0.1-0.1-0.1-0.3-0.2-0.4
			c1.6,3.8,2.7,7.8,3.3,12c0.6,4.5,0.7,9.1,0.1,13.7c0,0,0,0,0,0c-0.3,2.2-0.7,4.4-1.3,6.6c-0.3,1.1-0.6,2.3-1,3.4
			c-0.3,1-0.7,2-1.1,3c0-0.1,0.1-0.2,0.1-0.3c-0.3,0.7-0.6,1.4-1,2.1c-0.2,0.5-0.5,1-0.7,1.4c0,0,0,0,0,0c-0.7,1.4-1.4,2.8-2.3,4.1
			c-0.8,1.2-1.6,2.4-2.4,3.5c-2.6,3.4-5.7,6.4-9,9c0.1-0.1,0.1-0.1,0.2-0.2c-3.4,2.6-7.2,4.8-11.1,6.5c0,0,0,0,0,0
			c0,0-0.1,0-0.1,0.1c0,0-0.1,0-0.1,0c-0.1,0.1-0.3,0.1-0.4,0.2c-0.6,0.2-1.3,0.5-1.9,0.7c-3,1-6.2,1.8-9.4,2.2c0.1,0,0.2,0,0.3,0
			c-4.4,0.6-8.7,0.5-13.1,0c-4.5-0.6-8.8-1.8-13-3.6c-3.9-1.7-7.5-3.8-10.9-6.4c0.1,0.1,0.2,0.1,0.3,0.2c-3.4-2.6-6.4-5.6-9-9
			c0.1,0.1,0.1,0.2,0.2,0.3c-0.4-0.5-0.7-1-1.1-1.4c-0.8,0.5-1.6,0.9-2.4,1.2c0.8,1,1.5,2.1,2.4,3c7.7,9.2,18.7,15.6,30.6,17.6
			c5.5,0.9,11.1,1,16.6,0.1c2.9-0.5,5.8-1.2,8.6-2.1c0.2-0.1,0.4-0.1,0.6-0.2c3.1-1.1,6.1-2.4,9-4c3.1-1.8,6.1-3.9,8.8-6.4
			c2.4-2.2,4.7-4.6,6.7-7.3c0.3-0.3,0.6-0.7,0.8-1.1c0.4-0.5,0.8-1,1.1-1.6c0.7-1,1.3-2,1.9-3c0.5-1,1.1-1.9,1.6-2.9
			c0.5-1.1,1-2.2,1.5-3.3c0.9-2.2,1.7-4.4,2.3-6.7c0.6-2.2,0.9-4.5,1.2-6.8c0.2-1.8,0.3-3.6,0.3-5.4c0-2.6-0.2-5.3-0.6-7.8
			c-0.7-4.3-1.9-8.4-3.6-12.4c-4.8-11.2-13.5-20.7-24.4-26.2c-2.7-1.4-5.5-2.5-8.4-3.4c-2.7-0.8-5.5-1.4-8.3-1.8
			c-2.3-0.3-4.6-0.4-6.9-0.4C147.6,80.8,144.3,81.1,141.1,81.8L141.1,81.8L141.1,81.8z M181.2,94.8
			C181.2,94.8,181.2,94.8,181.2,94.8C181.2,94.8,181.2,94.8,181.2,94.8L181.2,94.8L181.2,94.8z M199.5,139.5
			C199.5,139.5,199.5,139.5,199.5,139.5C199.5,139.5,199.5,139.5,199.5,139.5L199.5,139.5L199.5,139.5z"/>
		<path class="st1" d="M110.6,100.5c-1.9,2.4-3.6,5-5,7.7c-1.4,2.7-2.6,5.5-3.6,8.3c-0.9,2.9-1.6,5.8-2,8.8
			c-0.4,2.7-0.6,5.5-0.5,8.3c0.2,5.9,1.2,11.7,3.3,17.2c0.9,2.2,1.8,4.5,3,6.6c0.8-0.5,1.5-1.1,2.3-1.6c-0.5-1.1-1.1-2.1-1.5-3.2
			c-0.9-2.2-1.7-4.4-2.3-6.7c-0.5-2-0.9-3.9-1.2-5.9c-0.5-4.2-0.5-8.5,0-12.8c0-0.1,0-0.1,0-0.2c0,0,0-0.1,0-0.1c0,0,0,0.1,0,0.1
			c0.6-4.2,1.7-8.2,3.3-12.1c1.7-3.9,3.8-7.5,6.3-10.9c2.6-3.4,5.7-6.4,9.1-9.1c0,0,0,0,0,0c0.6-0.4,1.1-0.8,1.7-1.2
			c-0.5-0.7-0.9-1.4-1.3-2.1c-0.2-0.4-0.4-0.8-0.6-1.3C117.5,93,113.7,96.5,110.6,100.5L110.6,100.5L110.6,100.5z"/>
		<path class="st2" d="M121.7,94.7C121.7,94.7,121.7,94.7,121.7,94.7C121.7,94.7,121.7,94.7,121.7,94.7L121.7,94.7L121.7,94.7z"/>
		<path class="st2" d="M169.7,178.7C169.7,178.7,169.7,178.7,169.7,178.7C169.7,178.7,169.8,178.7,169.7,178.7
			C169.7,178.7,169.7,178.7,169.7,178.7L169.7,178.7L169.7,178.7z"/>
		<path class="st2" d="M103,126.9C103,126.9,103,126.9,103,126.9C103,126.9,103,126.8,103,126.9C103,126.8,103,126.8,103,126.9
			L103,126.9L103,126.9z"/>
		<path class="st1" d="M148.5,89.5c-3.1,0.2-6.2,0.7-9.2,1.6c-2.6,0.8-5.1,1.8-7.5,3c0.2,0.3,0.4,0.7,0.5,1.1c0.1,0.3,0.3,0.7,0.4,1
			c0.7-0.4,1.5-0.7,2.2-1c3.5-1.5,7.2-2.4,10.9-3c3.7-0.4,7.4-0.4,11,0.1c1.6,0.2,3.3,0.6,4.9,1c1.6,0.4,3.2,1,4.7,1.6c0,0,0,0,0,0
			c1.7,0.7,3.3,1.6,4.9,2.5c1.5,0.9,2.9,1.9,4.3,2.9c2.9,2.3,5.4,4.8,7.6,7.7c2,2.7,3.7,5.6,5.1,8.7c0,0,0,0,0,0
			c1.4,3.3,2.3,6.7,2.8,10.2c0.5,3.7,0.5,7.4,0,11.1c-0.5,3.6-1.4,7-2.8,10.3c0,0,0-0.1,0.1-0.1c0,0.1-0.1,0.2-0.1,0.3c0,0,0,0,0,0
			c0,0,0,0,0,0c0,0,0,0,0,0c0,0,0,0,0,0c-1.4,3.1-3.1,6-5.1,8.7c-2.2,2.8-4.7,5.3-7.5,7.5c0,0,0.1-0.1,0.1-0.1
			c-0.1,0.1-0.1,0.1-0.2,0.2c0,0,0,0-0.1,0c-2.8,2.1-5.7,3.8-8.9,5.2c-3.3,1.4-6.8,2.3-10.4,2.8c0.1,0,0.3,0,0.4,0
			c-2,0.3-4,0.4-6,0.4c-1.7,0-3.5-0.1-5.2-0.3c-0.1,0-0.1,0-0.2,0c0,0,0,0,0,0c-0.1,0-0.1,0-0.2,0c0.1,0,0.1,0,0.2,0
			c-1.9-0.3-3.7-0.7-5.5-1.2c-1.6-0.5-3.2-1-4.8-1.7c0,0,0,0,0.1,0c0,0,0,0-0.1,0c0,0,0,0,0,0c0,0,0,0,0,0c0,0,0,0,0,0
			c0,0,0,0-0.1,0c0,0,0,0,0,0s0,0,0,0c-3.1-1.4-5.9-3-8.6-5.1c-2.8-2.2-5.3-4.7-7.5-7.5c0.1,0.1,0.1,0.2,0.2,0.3
			c-0.1-0.2-0.2-0.3-0.4-0.5c-0.7,0.5-1.3,1-2,1.4c2.2,3,4.8,5.6,7.6,7.9c2.3,1.8,4.8,3.5,7.5,4.8c2.7,1.4,5.5,2.5,8.5,3.3
			c5.8,1.5,11.8,1.8,17.7,0.9c3.1-0.5,6.1-1.3,9-2.4c2.8-1.1,5.5-2.5,8-4.1c2.4-1.6,4.8-3.5,6.9-5.6c2.1-2.1,4-4.4,5.6-6.8
			c3.2-4.9,5.5-10.4,6.5-16.1c0.4-2.6,0.7-5.2,0.7-7.8c0-0.3,0-0.7,0-1c-0.1-3-0.4-5.9-1.1-8.8c-1.4-5.7-3.8-11.2-7.4-15.9
			c-1.8-2.3-3.7-4.5-5.9-6.5c-2.2-1.9-4.6-3.7-7.1-5.1c-5-2.8-10.5-4.7-16.2-5.5c-1.9-0.3-3.9-0.4-5.8-0.4
			C150.2,89.4,149.3,89.5,148.5,89.5L148.5,89.5L148.5,89.5z M126.1,164.7C126.1,164.7,126.1,164.7,126.1,164.7
			C126.1,164.7,126.1,164.7,126.1,164.7L126.1,164.7L126.1,164.7z"/>
		<path class="st2" d="M166.5,94.9C166.5,94.9,166.5,94.9,166.5,94.9C166.5,94.9,166.5,94.9,166.5,94.9L166.5,94.9L166.5,94.9z"/>
		<path class="st1" d="M124,99.2c-3.6,2.9-6.7,6.4-9.2,10.3c-1.7,2.6-3.1,5.4-4.2,8.4c-2.1,5.8-3,12-2.5,18.1
			c0.3,3.1,0.8,6.2,1.7,9.1c0.8,2.6,1.8,5.2,3.1,7.6c0.7-0.4,1.4-0.7,2.2-1.1c-0.6-1-1.1-2.1-1.6-3.2c0,0,0,0,0,0
			c-1.4-3.4-2.4-6.9-2.9-10.6c0,0.1,0,0.2,0,0.3c-0.5-3.8-0.5-7.6,0-11.4c0,0.1,0,0.2,0,0.3c0.3-1.8,0.6-3.6,1.1-5.4
			c0.5-1.8,1.1-3.6,1.8-5.3c0,0.1,0,0.1-0.1,0.2c1.3-2.9,2.8-5.6,4.7-8.2c0.2-0.2,0.4-0.5,0.5-0.7c0,0,0,0,0,0
			c2.2-2.8,4.8-5.4,7.6-7.6c-0.1,0.1-0.1,0.1-0.2,0.2c0.4-0.3,0.8-0.6,1.1-0.8c-0.4-0.7-0.7-1.3-1.1-2
			C125.4,98.1,124.7,98.6,124,99.2L124,99.2L124,99.2z M126.4,100C126.4,100,126.4,99.9,126.4,100C126.4,100,126.4,100,126.4,100
			C126.3,100,126.4,100,126.4,100L126.4,100L126.4,100z"/>
		<path class="st2" d="M188.4,116.8C188.4,116.8,188.4,116.8,188.4,116.8C188.4,116.8,188.4,116.8,188.4,116.8L188.4,116.8
			L188.4,116.8z"/>
		<path class="st2" d="M135,169.9C135,169.9,135,169.9,135,169.9C135,169.9,135,169.9,135,169.9C135,169.9,135,169.9,135,169.9
			L135,169.9L135,169.9z"/>
		<path class="st2" d="M188.4,116.7C188.4,116.7,188.4,116.7,188.4,116.7C188.4,116.7,188.4,116.7,188.4,116.7L188.4,116.7
			L188.4,116.7z"/>
		<path class="st2" d="M188.4,148.5c0,0,0-0.1,0.1-0.1C188.5,148.4,188.4,148.4,188.4,148.5L188.4,148.5L188.4,148.5z"/>
		<path class="st2" d="M188.4,148.5C188.4,148.5,188.4,148.5,188.4,148.5C188.4,148.5,188.4,148.5,188.4,148.5
			C188.4,148.5,188.4,148.5,188.4,148.5L188.4,148.5L188.4,148.5z"/>
		<path class="st2" d="M175.7,164.9C175.7,164.8,175.7,164.8,175.7,164.9c0.1-0.1,0.1-0.1,0.1-0.1
			C175.8,164.8,175.7,164.8,175.7,164.9L175.7,164.9L175.7,164.9z"/>
		<path class="st2" d="M134.9,169.9C134.9,169.9,134.9,169.9,134.9,169.9C134.9,169.9,134.9,169.9,134.9,169.9L134.9,169.9
			L134.9,169.9z"/>
		<path class="st2" d="M135,169.9C135,169.9,134.9,169.9,135,169.9C134.9,169.9,135,169.9,135,169.9L135,169.9L135,169.9z"/>
		<path class="st2" d="M135,170C135,170,135,170,135,170C135,170,135,170,135,170C135,170,135,170,135,170L135,170L135,170z"/>
		<path class="st2" d="M145.4,172.8C145.4,172.8,145.4,172.8,145.4,172.8C145.4,172.8,145.4,172.8,145.4,172.8L145.4,172.8
			L145.4,172.8z"/>
		<path class="st2" d="M145.6,172.8C145.6,172.8,145.5,172.8,145.6,172.8C145.5,172.8,145.6,172.8,145.6,172.8L145.6,172.8
			L145.6,172.8z"/>
		<path class="st2" d="M119.8,165.3c-0.3,0.1-0.4,0.4-0.3,0.6c0.3,1,0.7,1.9,1.1,2.9c0.4,1,1,2,1.6,2.9c0.1,0.2,0.4,0.3,0.7,0.2
			c0.2-0.1,0.3-0.5,0.2-0.7c-0.6-1-1.2-2.1-1.7-3.1c-0.3-0.8-0.6-1.6-0.9-2.4c-0.1-0.2-0.3-0.4-0.5-0.4
			C119.8,165.3,119.8,165.3,119.8,165.3L119.8,165.3L119.8,165.3z"/>
		<path class="st2" d="M121.8,167.1c-0.3,0.1-0.4,0.4-0.4,0.6c0.4,1,0.8,2.1,1.3,3.1c0.6,1.2,1.3,2.3,2.1,3.3
			c0.1,0.1,0.2,0.2,0.3,0.2c0.1,0,0.3,0,0.4,0c0.1-0.1,0.2-0.2,0.2-0.3c0-0.1,0-0.3,0-0.4c-0.6-0.8-1.1-1.5-1.6-2.4
			c-0.5-0.8-0.9-1.7-1.3-2.6c0,0,0,0.1,0,0.1c-0.2-0.4-0.4-0.9-0.5-1.3c-0.1-0.2-0.3-0.4-0.5-0.4
			C121.9,167.1,121.8,167.1,121.8,167.1L121.8,167.1L121.8,167.1z"/>
		<path class="st2" d="M123.2,168.3c-0.1,0.1-0.2,0.2-0.2,0.3c0,0.1,0,0.3,0.1,0.4c0.5,1,1.1,2.1,1.7,3c0.7,1,1.4,2,2.2,2.9
			c0.2,0.2,0.5,0.2,0.7,0c0.2-0.2,0.2-0.5,0-0.7c-0.4-0.4-0.7-0.9-1.1-1.3c0,0,0,0,0,0c-0.5-0.6-1-1.3-1.4-2
			c-0.5-0.8-0.9-1.6-1.3-2.5c-0.1-0.2-0.3-0.2-0.4-0.2C123.4,168.3,123.3,168.3,123.2,168.3L123.2,168.3L123.2,168.3z"/>
		<path class="st2" d="M126.3,170.4c-0.2,0.1-0.3,0.5-0.2,0.7c1.1,1.8,2.3,3.4,3.6,5.1c0.1,0.1,0.2,0.1,0.4,0.1
			c0.1,0,0.3-0.1,0.4-0.1c0.1-0.1,0.1-0.2,0.1-0.4c0-0.1-0.1-0.3-0.1-0.4c-0.1-0.2-0.3-0.4-0.4-0.6c-1.1-1.4-2.1-2.8-3-4.3
			c-0.1-0.2-0.3-0.3-0.4-0.3C126.4,170.3,126.3,170.3,126.3,170.4L126.3,170.4L126.3,170.4z"/>
		<path class="st2" d="M129,171.8c-0.2,0.1-0.3,0.5-0.2,0.7c1,1.5,2,3,3.1,4.4c0.1,0.1,0.2,0.1,0.4,0.1c0.1,0,0.3-0.1,0.4-0.1
			c0.1-0.1,0.1-0.2,0.1-0.4c0-0.1-0.1-0.2-0.1-0.4c-0.2-0.3-0.4-0.5-0.6-0.8c0,0,0,0,0,0c0,0,0,0,0,0c0,0,0,0,0-0.1c0,0,0,0,0,0
			c-0.8-1.1-1.6-2.2-2.3-3.3c-0.1-0.2-0.3-0.2-0.4-0.2C129.2,171.7,129.1,171.7,129,171.8L129,171.8L129,171.8z M132,175.3
			C132.1,175.3,132.1,175.3,132,175.3C132.1,175.3,132,175.3,132,175.3C132,175.3,132,175.3,132,175.3L132,175.3L132,175.3z"/>
		<path class="st2" d="M132,173.2c-0.2,0.1-0.3,0.5-0.2,0.7c0.5,0.7,1,1.4,1.6,2.1c0.7,0.8,1.5,1.5,2.3,2.2c0.1,0.1,0.2,0.1,0.4,0.1
			c0.1,0,0.3-0.1,0.4-0.1c0.2-0.2,0.2-0.5,0-0.7c-0.5-0.4-1.1-0.9-1.6-1.4c-0.5-0.5-1-1-1.4-1.6c0,0,0,0,0,0
			c-0.3-0.3-0.5-0.7-0.8-1.1c-0.1-0.2-0.3-0.3-0.4-0.3C132.2,173.1,132.1,173.1,132,173.2L132,173.2L132,173.2z"/>
		<path class="st2" d="M136.1,174.9c-0.2,0.1-0.3,0.5-0.2,0.7c0.4,0.5,0.7,1,1.1,1.5c0.5,0.6,1.1,1.2,1.7,1.7
			c0.1,0.1,0.2,0.1,0.4,0.1c0.1,0,0.3-0.1,0.4-0.1c0.2-0.2,0.2-0.5,0-0.7c-0.3-0.3-0.7-0.6-1-0.9c-0.4-0.4-0.8-0.8-1.1-1.2
			c0,0,0,0,0,0c0,0,0,0-0.1-0.1c0,0,0,0,0,0c0,0,0,0,0,0c-0.2-0.2-0.4-0.5-0.5-0.8c-0.1-0.2-0.3-0.3-0.4-0.3
			C136.3,174.8,136.2,174.8,136.1,174.9L136.1,174.9L136.1,174.9z M137.3,175.8C137.3,175.8,137.3,175.8,137.3,175.8
			C137.3,175.8,137.3,175.8,137.3,175.8C137.3,175.8,137.3,175.8,137.3,175.8L137.3,175.8L137.3,175.8z"/>
		<path class="st2" d="M182.6,97.6c-0.1,0.1-0.2,0.2-0.2,0.3c0,0.1,0,0.3,0,0.4c0.1,0.2,0.2,0.4,0.3,0.6c0.2,0.4,0.3,0.9,0.5,1.3
			c0.2,0.6,0.3,1.2,0.4,1.8c0,0.1,0.1,0.2,0.2,0.3c0.1,0.1,0.3,0.1,0.4,0c0.1,0,0.2-0.1,0.3-0.2c0.1-0.1,0.1-0.3,0-0.4
			c-0.1-0.4-0.1-0.7-0.2-1.1c-0.1-0.4-0.2-0.7-0.3-1.1c-0.2-0.6-0.5-1.2-0.7-1.8c-0.1-0.2-0.3-0.2-0.4-0.2
			C182.8,97.6,182.7,97.6,182.6,97.6L182.6,97.6L182.6,97.6z"/>
		<path class="st2" d="M184.6,99.4c-0.3,0.1-0.4,0.4-0.4,0.6c0.2,0.6,0.4,1.2,0.5,1.8c0.2,0.7,0.3,1.4,0.4,2.2c0,0,0-0.1,0-0.1
			c0,0.1,0,0.2,0,0.3c0,0.1,0,0.3,0.1,0.4c0.1,0.1,0.2,0.1,0.4,0.1c0.1,0,0.3-0.1,0.4-0.1c0.1-0.1,0.2-0.2,0.1-0.4
			c-0.1-0.7-0.2-1.3-0.3-2c-0.2-0.8-0.4-1.7-0.7-2.5c-0.1-0.2-0.3-0.4-0.5-0.4C184.7,99.4,184.7,99.4,184.6,99.4L184.6,99.4
			L184.6,99.4z"/>
		<path class="st2" d="M186.4,101.6c-0.2,0.1-0.4,0.4-0.3,0.6c0.2,0.6,0.4,1.1,0.5,1.7c0.2,0.6,0.3,1.2,0.3,1.8c0,0,0,0,0,0
			c0,0.2,0.1,0.4,0.1,0.6c0,0.1,0,0.3,0.1,0.4c0.1,0.1,0.2,0.1,0.4,0.1c0.1,0,0.3-0.1,0.4-0.1c0.1-0.1,0.2-0.2,0.1-0.4
			c-0.1-0.7-0.2-1.3-0.3-1.9c-0.2-0.8-0.4-1.7-0.7-2.4c-0.1-0.2-0.3-0.4-0.5-0.4C186.5,101.5,186.5,101.5,186.4,101.6L186.4,101.6
			L186.4,101.6z"/>
		<path class="st2" d="M188.2,103.2c-0.3,0.1-0.4,0.4-0.3,0.6c0.1,0.5,0.3,0.9,0.4,1.4c0.2,0.6,0.3,1.2,0.3,1.8c0,0,0,0,0-0.1
			c0.1,0.7,0.1,1.4,0.1,2.1c0,0.3,0.2,0.5,0.5,0.5c0.3,0,0.5-0.2,0.5-0.5c0-0.5,0-1-0.1-1.4c0-0.4-0.1-0.8-0.2-1.2
			c-0.1-1-0.4-1.9-0.7-2.8c-0.1-0.2-0.3-0.4-0.5-0.4C188.3,103.2,188.2,103.2,188.2,103.2L188.2,103.2L188.2,103.2z"/>
		<path class="st2" d="M189.7,105.4c-0.3,0.1-0.4,0.4-0.4,0.6c0.1,0.5,0.3,0.9,0.4,1.4c0.1,0.5,0.2,1,0.3,1.5c0,0,0-0.1,0-0.1
			c0.1,0.7,0.2,1.5,0.2,2.2c0,0.3,0.2,0.5,0.5,0.5c0.3,0,0.5-0.2,0.5-0.5c0-0.8-0.1-1.6-0.2-2.3c-0.1-0.5-0.2-1-0.3-1.5
			c-0.1-0.5-0.3-1-0.4-1.4c-0.1-0.2-0.3-0.4-0.5-0.4C189.8,105.4,189.7,105.4,189.7,105.4L189.7,105.4L189.7,105.4z"/>
		<path class="st2" d="M191.1,108c-0.3,0.1-0.4,0.4-0.3,0.6c0.1,0.4,0.2,0.7,0.3,1.1c0.1,0.5,0.2,1,0.3,1.5c0,0,0,0,0,0
			c0.1,0.7,0.1,1.4,0.1,2.2c0,0.3,0.2,0.5,0.5,0.5c0.3,0,0.5-0.2,0.5-0.5c0-0.8-0.1-1.6-0.2-2.4c-0.1-0.4-0.1-0.8-0.2-1.1
			c-0.1-0.5-0.2-1-0.4-1.5c-0.1-0.2-0.3-0.4-0.5-0.4C191.2,107.9,191.1,107.9,191.1,108L191.1,108L191.1,108z"/>
		<path class="st2" d="M192.8,110.6c-0.3,0.1-0.4,0.4-0.4,0.6c0.2,0.7,0.3,1.4,0.4,2.2c0,0,0,0,0,0c0.1,0.6,0.1,1.2,0.2,1.7
			c0,0.6,0,1.2,0,1.9c0,0.3,0.2,0.5,0.5,0.5c0.3,0,0.5-0.2,0.5-0.5c0-1,0-2-0.1-3c-0.1-1-0.3-2.1-0.5-3.1c-0.1-0.2-0.3-0.4-0.5-0.4
			C192.9,110.5,192.8,110.5,192.8,110.6L192.8,110.6L192.8,110.6z"/>
		<path class="st2" d="M195.7,121.1c-0.1,1.9-0.3,3.7-0.6,5.6c0,0.1,0.1,0.3,0.1,0.4c0.1,0.1,0.2,0.1,0.4,0.1s0.3,0,0.4-0.1
			c0.1-0.1,0.1-0.2,0.1-0.4c0.2-1.9,0.4-3.7,0.6-5.6c0-0.3-0.2-0.5-0.5-0.5C195.9,120.6,195.7,120.8,195.7,121.1L195.7,121.1
			L195.7,121.1z"/>
		<path class="st2" d="M196.5,124.3c0,0.5,0,1,0,1.5c0,0.5-0.1,0.9-0.1,1.4c0,0,0,0,0,0c0,0,0,0,0,0c0,0,0,0.1,0,0.1c0,0,0,0,0,0
			c-0.1,0.5-0.2,0.9-0.2,1.4c-0.1,0.3,0.1,0.5,0.3,0.6c0.3,0.1,0.6-0.1,0.6-0.3c0.1-0.7,0.2-1.3,0.3-2c0.1-0.9,0.1-1.8,0.1-2.6
			c0-0.3-0.2-0.5-0.5-0.5C196.7,123.8,196.4,124,196.5,124.3L196.5,124.3L196.5,124.3z M196.4,127.3
			C196.4,127.3,196.4,127.2,196.4,127.3C196.4,127.2,196.4,127.2,196.4,127.3C196.4,127.2,196.4,127.3,196.4,127.3L196.4,127.3
			L196.4,127.3z"/>
		<path class="st2" d="M197,128c0,0.8-0.1,1.6-0.1,2.4c-0.1,0.6-0.2,1.2-0.3,1.7c-0.1,0.3,0.1,0.5,0.4,0.6c0.3,0.1,0.6-0.1,0.6-0.4
			c0.1-0.6,0.3-1.3,0.3-1.9c0.1-0.8,0.1-1.7,0.1-2.5c0-0.3-0.2-0.5-0.5-0.5C197.2,127.5,197,127.8,197,128L197,128L197,128z"/>
		<path class="st1" d="M27.2,64.9c-0.2,0.2-0.2,0.5-0.1,0.7c0.6,0.8,1.3,1.6,1.9,2.3c0.8,0.9,1.6,1.7,2.4,2.6
			c1.6,1.6,3.4,3.1,5.3,4.4c0.9,0.7,1.8,1.3,2.8,1.8c1,0.6,2.1,1.1,3.2,1.6c2.1,0.9,4.3,1.5,6.5,1.9c0.4,0.1,0.9-0.3,0.9-0.7
			c0-0.2,0-0.4-0.2-0.6c-0.1-0.2-0.3-0.2-0.5-0.3c-0.2,0-0.4-0.1-0.6-0.1c0.1,0,0.1,0,0.2,0c-0.6-0.1-1.2-0.3-1.8-0.5
			c-0.7-0.2-1.4-0.5-2.1-0.8c-1.4-0.6-2.8-1.3-4.1-2c0.1,0,0.2,0.1,0.2,0.1c-0.9-0.5-1.8-1-2.6-1.5c-1-0.6-1.9-1.2-2.8-1.9
			c-1.7-1.2-3.3-2.5-4.8-3.8c-1.1-1-2.2-2.1-3.1-3.3c-0.1-0.1-0.2-0.2-0.4-0.2C27.4,64.8,27.3,64.8,27.2,64.9L27.2,64.9L27.2,64.9z"
			/>
		<path class="st1" d="M83.6,33.8c-0.2,0.1-0.4,0.4-0.3,0.7c0.6,1.3,1,2.6,1.4,4c0.5,1.8,0.8,3.6,0.9,5.5c0.2,2,0.3,3.9,0.2,5.9
			c0-0.1,0-0.1,0-0.2c0,2.2-0.2,4.4-0.5,6.6c-0.2,2.1-0.6,4.2-1.1,6.3c-0.1,0.2,0,0.5,0.2,0.7c0.1,0.2,0.4,0.3,0.6,0.4
			c0.3,0,0.5,0,0.7-0.2c0.2-0.2,0.3-0.4,0.4-0.6c0.3-1,0.5-2.1,0.7-3.1c0.2-1.2,0.4-2.5,0.5-3.7c0.3-2.5,0.2-5.1,0.1-7.6
			c-0.1-2.6-0.5-5.1-1.1-7.6c-0.5-2.3-1.3-4.6-2.3-6.7c-0.1-0.2-0.3-0.3-0.5-0.3C83.8,33.7,83.7,33.8,83.6,33.8L83.6,33.8L83.6,33.8
			z"/>
		<path class="st1" d="M66.9,36.6c-2.7,0.9-5.4,1.9-8.1,3.1c-2.7,1.2-5.3,2.5-7.9,3.9c-2.4,1.3-4.8,2.8-7.1,4.4
			c-2.4,1.6-4.7,3.4-7,5.3c-2,1.7-4,3.5-5.8,5.5c-0.8,0.9-1.6,1.9-2.3,3c-0.7,1.1-1.3,2.2-1.8,3.3c-0.1,0.3,0.1,0.6,0.3,0.6
			c0.3,0.1,0.5-0.1,0.6-0.3c0.1-0.1,0.1-0.3,0.2-0.4c0,0,0,0,0,0c0.7-1.4,1.6-2.6,2.6-3.8c0,0,0,0,0,0c0,0,0,0,0.1-0.1
			c0,0,0,0,0-0.1c0,0,0,0,0,0c2-2.3,4.4-4.3,6.7-6.3c2.6-2.2,5.4-4.2,8.2-6.2c3.8-2.5,7.7-4.7,11.8-6.7c2-1,4.1-1.8,6.1-2.7
			c2.1-0.9,4.3-1.6,6.5-2.3c-0.1,0-0.1,0-0.2,0.1c3.3-1.1,6.7-2.1,10.3-2.3c0,0,0,0,0,0c0,0,0.1,0,0.1,0c0,0,0,0,0.1,0c0,0,0,0,0,0
			c1,0,2,0,3,0.1c0.3,0,0.6-0.2,0.6-0.5c0-0.3-0.2-0.6-0.5-0.6c-0.8-0.1-1.6-0.1-2.4-0.1C76.3,33.5,71.5,35.1,66.9,36.6L66.9,36.6
			L66.9,36.6z M45.8,48.6C45.7,48.6,45.7,48.7,45.8,48.6C45.7,48.7,45.7,48.6,45.8,48.6L45.8,48.6L45.8,48.6z M30.8,61.1
			C30.8,61.1,30.8,61.1,30.8,61.1C30.8,61.1,30.9,61.1,30.8,61.1C30.9,61,30.9,61.1,30.8,61.1L30.8,61.1L30.8,61.1z M80.4,34.6
			C80.4,34.6,80.4,34.6,80.4,34.6C80.4,34.6,80.4,34.6,80.4,34.6C80.4,34.6,80.4,34.6,80.4,34.6L80.4,34.6L80.4,34.6z"/>
		<path class="st1" d="M62.9,28.5c-0.5,0-0.9,0.1-1.4,0.2c-0.5,0.1-1,0.2-1.5,0.3c-0.3,0.1-0.4,0.3-0.4,0.6c0,0.3,0.3,0.6,0.6,0.6
			c1.3-0.2,2.6-0.2,3.8-0.2c1.5,0,3,0.1,4.5,0.2c-0.1,0-0.1,0-0.2,0c3.7,0.4,7.3,1.1,10.8,2.4c0,0-0.1,0-0.1,0
			c1.6,0.6,3.1,1.3,4.5,2.2c0.2,0.1,0.6,0,0.7-0.2c0.1-0.3,0-0.5-0.2-0.7c-1.7-1-3.5-1.9-5.3-2.6c-2.1-0.8-4.2-1.4-6.4-1.9
			c-2.1-0.4-4.2-0.7-6.3-0.8c-0.4,0-0.7,0-1.1,0C64.3,28.4,63.6,28.5,62.9,28.5L62.9,28.5L62.9,28.5z M79.2,32.5
			C79.2,32.5,79.2,32.5,79.2,32.5C79.2,32.5,79.2,32.5,79.2,32.5L79.2,32.5L79.2,32.5z"/>
		<path class="st1" d="M35.6,41.4c-2.7,3.3-4.8,7-6.4,10.9c-0.8,2-1.4,4.1-1.8,6.2c-0.4,2.1-0.6,4.3-0.5,6.4c0,0.3,0.3,0.5,0.5,0.5
			c0.3,0,0.5-0.3,0.5-0.5c0-0.9,0-1.8,0.1-2.8c0,0,0,0.1,0,0.1c0.1-1.3,0.3-2.5,0.6-3.8c0.3-1.2,0.7-2.5,1.1-3.6c0,0,0,0,0,0
			c0.7-1.8,1.4-3.5,2.3-5.2c0.8-1.6,1.8-3.2,2.8-4.7c0,0.1-0.1,0.1-0.1,0.2c0.6-0.9,1.3-1.8,2-2.7c0.3-0.3,0.3-0.8-0.1-1.1
			c-0.1-0.1-0.3-0.2-0.5-0.2C35.9,41.2,35.7,41.2,35.6,41.4L35.6,41.4L35.6,41.4z M29.8,54.7C29.7,54.7,29.7,54.7,29.8,54.7
			C29.7,54.7,29.7,54.7,29.8,54.7L29.8,54.7L29.8,54.7z"/>
		<path class="st1" d="M60.8,28.8c-1,0.2-2.1,0.6-3.1,0.9c-1.1,0.4-2.2,0.7-3.2,1.2c-2.1,0.8-4.2,1.8-6.3,2.8
			c-4.3,2.1-8.4,4.6-12.2,7.4c-0.1,0.1-0.3,0.2-0.3,0.4c-0.1,0.2,0,0.4,0.1,0.5c0.1,0.2,0.2,0.3,0.4,0.3c0.2,0,0.4,0,0.5-0.1
			c2.8-2.1,5.7-4,8.6-5.7c3.1-1.8,6.3-3.4,9.6-4.7c0,0-0.1,0-0.1,0c2.1-0.8,4.2-1.5,6.3-2c0.3-0.1,0.4-0.4,0.4-0.6
			c-0.1-0.2-0.3-0.4-0.5-0.4C60.9,28.8,60.9,28.8,60.8,28.8L60.8,28.8L60.8,28.8z"/>
		<path class="st1" d="M36.8,41.1c-0.3,0-0.6,0.3-0.6,0.6c0.1,0.9,0.1,1.8,0.2,2.6c0.1,1,0.3,1.9,0.5,2.8c0.4,1.8,1,3.6,2.1,5.1
			c0.2,0.3,0.6,0.4,0.9,0.2c0.1-0.1,0.3-0.2,0.3-0.4c0-0.2,0-0.3-0.1-0.5c-0.2-0.5-0.5-1-0.7-1.5c-0.4-1-0.8-2-1.1-3
			c-0.3-1.1-0.6-2.2-0.7-3.3c0,0.1,0,0.1,0,0.2c-0.1-0.8-0.2-1.5-0.3-2.3C37.3,41.4,37.1,41.1,36.8,41.1
			C36.8,41.1,36.8,41.1,36.8,41.1L36.8,41.1L36.8,41.1z M39.5,50.2c0,0,0,0.1,0.1,0.2C39.5,50.3,39.5,50.2,39.5,50.2L39.5,50.2
			L39.5,50.2z"/>
		<path class="st1" d="M32.7,45.6c-0.2,0.9-0.4,1.8-0.5,2.7c-0.2,1-0.3,2-0.3,3c-0.1,1.1-0.1,2.1,0,3.2c0.1,1,0.3,2,0.5,2.9
			c0.1,0.4,0.5,0.6,0.9,0.5c0.2,0,0.3-0.2,0.4-0.3c0.1-0.2,0.1-0.3,0.1-0.5c-0.1-0.6-0.2-1.1-0.3-1.7c0,0.1,0,0.1,0,0.2
			c-0.2-1.2-0.3-2.3-0.3-3.5c0-1.2,0-2.3,0.2-3.4c0,0,0,0,0,0c0,0,0,0,0,0c0,0,0,0,0,0c0,0,0,0,0,0c0.1-0.9,0.3-1.8,0.5-2.7
			c0.1-0.3-0.1-0.5-0.4-0.6c0,0-0.1,0-0.1,0C33,45.2,32.8,45.3,32.7,45.6L32.7,45.6L32.7,45.6z M33.2,48.5
			C33.2,48.5,33.2,48.5,33.2,48.5C33.2,48.5,33.2,48.5,33.2,48.5C33.2,48.5,33.2,48.5,33.2,48.5L33.2,48.5L33.2,48.5z"/>
		<path class="st1" d="M48.2,34.1c-0.3,0.2-0.4,0.6-0.2,0.8c0.9,1.3,1.7,2.7,2.4,4.1c0.8,1.4,1.5,2.8,2.4,4.1
			c0.2,0.3,0.5,0.4,0.8,0.2c0.3-0.2,0.3-0.5,0.2-0.8c-0.8-1.4-1.6-2.8-2.3-4.2c-0.8-1.4-1.6-2.8-2.5-4.1C49,34.1,48.8,34,48.6,34
			C48.5,34,48.3,34,48.2,34.1L48.2,34.1L48.2,34.1z"/>
		<path class="st1" d="M42.6,37.2c-0.3,0.1-0.4,0.4-0.3,0.6c0.5,1.6,1,3.3,1.6,4.9c0.5,1.6,1.2,3.1,2,4.5c0.2,0.3,0.6,0.4,0.9,0.2
			c0.3-0.2,0.4-0.6,0.2-0.9c-0.6-1.1-1.1-2.1-1.6-3.2c-0.8-1.9-1.5-3.9-2.1-5.8c-0.1-0.2-0.3-0.4-0.5-0.4
			C42.7,37.1,42.7,37.1,42.6,37.2L42.6,37.2L42.6,37.2z M45.3,43.2C45.3,43.3,45.3,43.3,45.3,43.2C45.3,43.3,45.3,43.3,45.3,43.2
			L45.3,43.2L45.3,43.2z"/>
		<path class="st1" d="M53.4,31.4c-0.1,0.2-0.1,0.6,0.2,0.7c1.7,1,3.2,2.2,4.7,3.4c0,0-0.1-0.1-0.1-0.1c1.2,1,2.4,2.1,3.4,3.4
			c0.2,0.2,0.5,0.2,0.7,0c0.2-0.2,0.2-0.5,0-0.7c-2.3-2.8-5.2-5-8.2-6.9c-0.1-0.1-0.2-0.1-0.3-0.1C53.7,31.2,53.5,31.3,53.4,31.4
			L53.4,31.4L53.4,31.4z"/>
		<path class="st1" d="M59.5,29.6c-0.1,0.3,0.1,0.6,0.3,0.6c0.5,0.2,1.1,0.4,1.6,0.6c0,0,0,0-0.1,0c1.9,0.9,3.7,2.2,5.3,3.5
			c0,0,0,0,0,0c0,0,0.1,0,0.1,0.1c0,0,0,0,0,0c0,0,0,0,0,0c0.7,0.6,1.5,1.3,2.2,2c0.2,0.2,0.5,0.2,0.7,0c0.2-0.2,0.2-0.5,0-0.7
			c-1.4-1.4-2.9-2.6-4.4-3.8c-1.6-1.1-3.2-2.1-5.1-2.7c-0.1,0-0.1,0-0.2,0C59.8,29.3,59.6,29.4,59.5,29.6L59.5,29.6L59.5,29.6z
			 M66.7,34.4C66.7,34.4,66.7,34.4,66.7,34.4C66.7,34.4,66.7,34.4,66.7,34.4C66.7,34.4,66.7,34.4,66.7,34.4L66.7,34.4L66.7,34.4z
			 M61.4,30.9C61.4,30.9,61.4,30.9,61.4,30.9C61.4,30.9,61.4,30.9,61.4,30.9L61.4,30.9L61.4,30.9z"/>
		<path class="st1" d="M69.6,29.4c-0.1,0.3,0.1,0.6,0.3,0.6c0.2,0.1,0.4,0.1,0.6,0.2c0.3,0.1,0.6,0.2,0.9,0.4c0,0,0,0,0,0
			c0,0,0.1,0,0.1,0c0,0,0,0,0,0c0,0,0,0,0,0c0.5,0.2,0.9,0.5,1.4,0.8c0.5,0.3,0.9,0.6,1.4,1c0,0,0,0,0,0c0,0,0.1,0,0.1,0.1
			c0,0,0,0,0,0c0,0,0,0,0,0c0.7,0.6,1.3,1.2,1.9,1.8c0.2,0.2,0.5,0.2,0.7,0c0.2-0.2,0.2-0.5,0-0.7c-0.9-1-1.9-1.8-2.9-2.6
			c-1.1-0.8-2.4-1.5-3.8-1.9c0,0-0.1,0-0.1,0C69.9,29,69.7,29.2,69.6,29.4L69.6,29.4L69.6,29.4z M74.3,32.4
			C74.3,32.4,74.3,32.4,74.3,32.4C74.3,32.4,74.3,32.4,74.3,32.4C74.3,32.4,74.3,32.4,74.3,32.4L74.3,32.4L74.3,32.4z M71.5,30.6
			C71.5,30.6,71.5,30.6,71.5,30.6C71.5,30.6,71.5,30.6,71.5,30.6C71.5,30.6,71.5,30.6,71.5,30.6L71.5,30.6L71.5,30.6z"/>
		<path class="st1" d="M53.5,42.9c-0.3,0.2-0.5,0.6-0.3,1c1.5,3,3,5.9,4.6,8.9c0.8,1.5,1.6,3.1,2.4,4.6c0.8,1.5,1.7,3,2.6,4.5
			c0.2,0.3,0.5,0.4,0.9,0.3c0.3-0.2,0.4-0.5,0.3-0.9c-0.7-1.4-1.5-2.8-2.2-4.3c-0.8-1.5-1.6-3.1-2.4-4.6c-1.6-3.1-3.2-6.1-4.8-9.2
			c-0.1-0.2-0.4-0.4-0.6-0.4C53.7,42.8,53.6,42.9,53.5,42.9L53.5,42.9L53.5,42.9z"/>
		<path class="st1" d="M46.6,47.8c-0.2,0.1-0.3,0.5-0.1,0.7c0.6,0.9,1.3,1.9,1.9,2.8c0.7,1,1.5,2,2.2,3c1.4,1.8,3,3.6,4.6,5.3
			c1.7,1.7,3.4,3.4,5.2,4.9c1,0.8,2,1.5,3,2.3c1,0.7,2,1.3,3,2c0.2,0.1,0.5,0,0.7-0.1c0.1-0.1,0.1-0.2,0.1-0.4
			c0-0.1-0.1-0.3-0.2-0.4c-1.3-0.9-2.6-1.9-3.8-2.8c-1.2-1-2.5-2-3.6-3.1c-2.4-2.1-4.6-4.3-6.6-6.7c0,0,0,0,0,0c0,0,0-0.1-0.1-0.1
			c0,0,0,0,0,0c0,0,0,0,0,0c-2-2.3-3.8-4.7-5.5-7.2c-0.1-0.1-0.3-0.2-0.4-0.2C46.7,47.7,46.6,47.7,46.6,47.8L46.6,47.8L46.6,47.8z
			 M52.7,55.1C52.8,55.2,52.8,55.2,52.7,55.1C52.8,55.2,52.7,55.1,52.7,55.1C52.7,55.1,52.7,55.1,52.7,55.1L52.7,55.1L52.7,55.1z"/>
		<path class="st1" d="M39.5,51.5c-0.2,0.1-0.3,0.5-0.1,0.7c3.6,4.3,7.2,8.6,11.4,12.5c2.1,2,4.4,3.8,6.8,5.4
			c1.2,0.8,2.4,1.5,3.7,2.1c1.2,0.6,2.5,1.1,3.9,1.5c0.3,0.1,0.5-0.1,0.6-0.3c0.1-0.3,0-0.7-0.3-0.8c-2.8-1.1-5.4-2.5-7.9-4.1
			c-5.2-3.5-9.7-8.1-13.9-12.8c0,0,0.1,0.1,0.1,0.1c-1.2-1.4-2.4-2.8-3.5-4.2c-0.1-0.1-0.2-0.2-0.3-0.2c0,0-0.1,0-0.1,0
			C39.7,51.4,39.6,51.5,39.5,51.5L39.5,51.5L39.5,51.5z"/>
		<path class="st1" d="M33,57c-0.1,0.1-0.2,0.2-0.2,0.4c0,0.1,0,0.3,0.1,0.4c1.8,2.1,3.6,4.1,5.5,6c2,2,4.1,4,6.3,5.8
			c2.2,1.8,4.4,3.4,6.8,4.8c1.2,0.7,2.4,1.3,3.6,1.9c1.3,0.6,2.6,1,4,1.4c0.3,0.1,0.5-0.1,0.7-0.3c0.1-0.3,0-0.7-0.3-0.8
			c-0.8-0.4-1.6-0.7-2.4-1.1c-0.9-0.4-1.8-0.9-2.7-1.3c-1.8-0.9-3.5-1.9-5.2-3c0,0,0.1,0,0.1,0.1c-5.7-3.8-10.7-8.6-15.3-13.7
			c0,0,0,0,0,0c0,0,0,0,0-0.1c0,0,0,0,0-0.1c0,0,0,0,0,0c0-0.1-0.1-0.1-0.1-0.2c-0.1-0.1-0.2-0.2-0.4-0.2c0,0-0.1,0-0.1,0
			C33.2,56.9,33.1,56.9,33,57L33,57L33,57z M49.2,71C49.2,71,49.1,71,49.2,71C49.1,71,49.2,71,49.2,71L49.2,71L49.2,71z M34,57.3
			C34,57.3,34,57.3,34,57.3C34,57.3,34,57.3,34,57.3C34,57.3,34,57.3,34,57.3L34,57.3L34,57.3z"/>
		<path class="st1" d="M61.9,38.8c-0.3,0.1-0.4,0.4-0.3,0.6c1,2.9,1.8,5.9,2.5,9c0,0,0,0,0-0.1c0.5,2.3,0.9,4.7,1.1,7.1
			c0.3,2.4,0.3,4.8,0.2,7.2c0,0.2,0,0.5-0.1,0.7c0,0.2,0,0.4,0.1,0.6c0.1,0.2,0.3,0.3,0.5,0.3c0.4,0.1,0.8-0.2,0.9-0.6
			c0.1-0.9,0.2-1.8,0.2-2.7c0-1.1,0-2.2,0-3.3c-0.1-2.2-0.5-4.3-0.9-6.5c-0.4-2.1-1-4.2-1.6-6.2c-0.6-2-1.3-3.9-2-5.9
			c-0.1-0.2-0.3-0.3-0.5-0.3C62,38.8,61.9,38.8,61.9,38.8L61.9,38.8L61.9,38.8z M65.4,62.4C65.4,62.5,65.4,62.5,65.4,62.4
			C65.4,62.5,65.4,62.5,65.4,62.4L65.4,62.4L65.4,62.4z M64,48.3c0,0,0-0.1,0-0.1C64,48.3,64,48.3,64,48.3L64,48.3L64,48.3z"/>
		<path class="st1" d="M69.4,36.3c-0.3,0.1-0.4,0.4-0.3,0.6c0.6,2.1,1.1,4.3,1.6,6.5c0,0,0,0,0,0c1.5,7,2.3,14.2,1.9,21.4
			c0-0.1,0-0.1,0-0.2c-0.1,0.9-0.1,1.7-0.2,2.6c-0.1,0.8-0.2,1.7-0.3,2.5c0,0.3,0.1,0.7,0.5,0.7c0.4,0.1,0.7-0.2,0.7-0.5
			c0.1-0.6,0.3-1.2,0.4-1.8c0.1-0.6,0.2-1.3,0.3-1.9c0.1-1.4,0.2-2.8,0.2-4.2c0-3-0.3-6-0.6-8.9c-0.7-5.6-2-11.1-3.6-16.5
			c-0.1-0.2-0.3-0.3-0.5-0.3C69.5,36.3,69.5,36.3,69.4,36.3L69.4,36.3L69.4,36.3z M70.7,43.4C70.7,43.4,70.7,43.4,70.7,43.4
			C70.7,43.4,70.7,43.4,70.7,43.4L70.7,43.4L70.7,43.4z"/>
		<path class="st1" d="M76.9,33.8c-0.3,0.1-0.4,0.4-0.3,0.6c0.3,1.1,0.5,2.2,0.7,3.3c0,0,0,0,0,0c0.7,3.3,1.2,6.5,1.6,9.8
			c0.4,3.4,0.5,6.9,0.4,10.4c0-0.1,0-0.1,0-0.2c-0.1,1.9-0.3,3.7-0.6,5.5c-0.3,1.8-0.8,3.7-1.3,5.5c-0.1,0.2,0.1,0.5,0.3,0.6
			c0.2,0.1,0.6,0,0.7-0.2c1.1-2.7,1.7-5.6,2.1-8.5c0.3-2.9,0.4-5.8,0.2-8.7c-0.4-6-1.7-11.9-3.1-17.8c0-0.2-0.3-0.3-0.5-0.3
			C77,33.8,77,33.8,76.9,33.8L76.9,33.8L76.9,33.8z M77.3,37.7C77.3,37.7,77.3,37.6,77.3,37.7C77.3,37.6,77.3,37.7,77.3,37.7
			L77.3,37.7L77.3,37.7z"/>
		<path class="st1" d="M27.6,64c-0.3,0.2-0.4,0.7-0.2,1c1,1.2,2,2.4,3.1,3.5c1.1,1.2,2.3,2.5,3.6,3.6c1.3,1.1,2.6,2.1,4,3
			c1.4,0.9,2.9,1.7,4.4,2.5c0.5,0.3,1.2,0,1.4-0.5c0.1-0.3,0.1-0.5,0-0.8c-0.1-0.3-0.3-0.5-0.6-0.6c-0.7-0.4-1.4-0.8-2.1-1.3
			c0,0,0,0,0,0c-2.2-1.4-4.3-2.9-6.3-4.5c-1.1-0.8-2.1-1.6-3.1-2.5c-1-0.9-1.9-1.7-2.8-2.7c0,0,0,0,0,0c0,0,0,0-0.1-0.1
			c0,0,0,0-0.1-0.1c0,0,0,0,0,0c-0.1-0.1-0.2-0.3-0.4-0.4c-0.1-0.1-0.3-0.3-0.5-0.3c0,0-0.1,0-0.1,0C27.8,63.8,27.7,63.9,27.6,64
			L27.6,64L27.6,64z M29,64.6C29,64.6,29,64.6,29,64.6C29,64.6,29,64.6,29,64.6C28.9,64.6,28.9,64.6,29,64.6L29,64.6L29,64.6z"/>
		<path class="st1" d="M35.7,42c-1.1,1.7-2.3,3.4-3.3,5.1c-1.1,1.9-2.1,3.8-3,5.7c-0.5,1-0.9,2-1.2,3.1c-0.4,1-0.6,2-0.8,3.1
			c-0.2,1-0.4,2-0.4,3.1c0,0.5,0,1,0,1.5c0,0.3,0.1,0.6,0.1,0.9c0,0.3,0.1,0.6,0.2,0.9c0.1,0.3,0.3,0.6,0.7,0.6
			c0.4,0,0.8-0.3,0.8-0.7c0-0.5,0-1,0-1.5c0-0.5,0.1-1,0.1-1.5c0.1-1,0.2-1.9,0.4-2.9c0,0,0,0,0,0.1c0,0,0-0.1,0-0.1
			c0,0,0-0.1,0-0.1c0,0,0,0.1,0,0.1c0.4-1.6,0.8-3.3,1.4-4.8c0.6-1.8,1.4-3.5,2.2-5.2c0,0.1-0.1,0.1-0.1,0.2
			c1.2-2.3,2.4-4.6,3.9-6.7c0.2-0.3,0.1-0.7-0.2-0.9c-0.1-0.1-0.2-0.1-0.3-0.1C36,41.7,35.9,41.8,35.7,42L35.7,42L35.7,42z
			 M29.3,59.2C29.3,59.2,29.3,59.3,29.3,59.2C29.3,59.3,29.3,59.2,29.3,59.2C29.3,59.2,29.3,59.2,29.3,59.2L29.3,59.2L29.3,59.2z"/>
		<path class="st1" d="M83.1,33.7c-2.6,0.1-5.1,0.3-7.7,0.7c-2.6,0.4-5.2,1-7.8,1.7c-1.3,0.4-2.6,0.8-4,1.2
			c-1.3,0.4-2.6,0.9-3.9,1.4c-1.3,0.5-2.6,1.1-3.8,1.7c-1.3,0.6-2.5,1.2-3.7,1.9c-4.9,2.6-9.5,5.6-13.9,9c-2.1,1.7-4.2,3.4-6.1,5.3
			c-1,1-1.9,2-2.8,3.1c-0.4,0.6-0.8,1.1-1.1,1.7c-0.3,0.6-0.6,1.2-0.9,1.9c-0.1,0.4-0.1,0.9,0.3,1.2c0.4,0.3,1.1,0.3,1.4-0.1
			c1.4-1.9,3-3.7,4.7-5.4c1.6-1.5,3.2-2.9,4.9-4.2c1.8-1.5,3.7-3,5.6-4.4c2-1.4,4-2.8,6-4.1c2-1.3,4.1-2.5,6.2-3.6
			c-0.1,0-0.1,0.1-0.2,0.1c0.1,0,0.2-0.1,0.3-0.1c0,0,0,0,0,0c0,0,0,0,0,0c1.3-0.7,2.5-1.3,3.8-1.9c1.4-0.7,2.7-1.3,4.1-1.8
			c1.4-0.6,2.8-1.1,4.2-1.5c1.5-0.5,3-0.9,4.5-1.3c0,0,0,0,0,0c3.3-0.8,6.6-1.3,10-1.4c0.3,0,0.5-0.3,0.4-0.6
			C83.6,33.9,83.4,33.7,83.1,33.7C83.1,33.7,83.1,33.7,83.1,33.7L83.1,33.7L83.1,33.7z M56.6,42.6C56.6,42.6,56.6,42.7,56.6,42.6
			C56.6,42.7,56.6,42.6,56.6,42.6C56.6,42.6,56.6,42.6,56.6,42.6L56.6,42.6L56.6,42.6z"/>
		<path class="st1" d="M33.7,57.4c-0.3,0.2-0.4,0.5-0.2,0.8c1.4,2.1,3,4.1,4.6,6c1.9,2.2,4.1,4.2,6.3,6.1c2.1,1.8,4.4,3.5,6.9,4.8
			c1.2,0.7,2.4,1.2,3.7,1.7c1.2,0.5,2.5,0.9,3.9,1c0,0,0.1,0,0.1,0c0.3,0,0.5,0,0.7-0.1c0.2-0.1,0.4-0.3,0.5-0.6
			c0.1-0.2,0-0.5-0.1-0.7c-0.1-0.2-0.3-0.4-0.6-0.5c-0.1,0-0.1,0-0.2-0.1c-0.6-0.3-1.1-0.5-1.7-0.7c-2.4-1-4.6-2.1-6.9-3.4
			c-2.3-1.3-4.5-2.8-6.6-4.4c0,0,0,0,0,0c-3.1-2.5-6-5.2-8.5-8.4c0,0,0.1,0.1,0.1,0.1c-0.4-0.5-0.8-1.1-1.1-1.6
			c-0.1-0.2-0.3-0.3-0.5-0.3C33.9,57.3,33.8,57.4,33.7,57.4L33.7,57.4L33.7,57.4z M59.3,76.1c0,0,0.1,0,0.1,0.1
			C59.4,76.1,59.3,76.1,59.3,76.1L59.3,76.1L59.3,76.1z"/>
		<path class="st1" d="M40,51.3c-0.3,0.2-0.4,0.6-0.2,0.9c1.3,2.4,2.8,4.6,4.5,6.7c1.8,2.3,3.9,4.5,6,6.5c1.1,1,2.2,1.9,3.3,2.8
			c1.2,0.9,2.4,1.8,3.7,2.6c1.2,0.7,2.4,1.4,3.6,2c0.6,0.3,1.3,0.6,2,0.8c0.7,0.2,1.3,0.4,2,0.5c0.4,0.1,0.9-0.1,1.2-0.5
			c0.1-0.2,0.2-0.5,0.1-0.8c-0.1-0.2-0.2-0.5-0.5-0.6c-0.5-0.2-1-0.5-1.6-0.7c-0.5-0.3-1.1-0.5-1.6-0.8c-1.1-0.5-2.3-1.1-3.3-1.7
			c-2.4-1.3-4.7-2.8-6.8-4.5c0.1,0.1,0.1,0.1,0.2,0.2c-1.7-1.3-3.3-2.7-4.8-4.1c-1.5-1.4-2.8-2.9-4-4.6c0,0,0.1,0.1,0.1,0.1
			c-1.1-1.4-2-2.9-2.9-4.5c-0.1-0.2-0.3-0.3-0.5-0.3C40.2,51.2,40.1,51.3,40,51.3L40,51.3L40,51.3z M43.8,56.1
			C43.7,56.1,43.7,56,43.8,56.1C43.7,56,43.7,56.1,43.8,56.1L43.8,56.1L43.8,56.1z"/>
		<path class="st2" d="M42.7,70.6c-0.2,0-0.5,0-0.7,0.1c-0.6,0.2-1.1,0.6-1.6,1.3c-0.5,0.6-0.7,1.3-0.9,1.9
			c-0.1,0.6-0.1,1.2,0.1,1.9c0.3,1.1,1.1,2.1,2.3,3.1c1.1,0.9,2.5,1.6,4.2,2.3c1.4,0.5,2.9,0.9,4.5,1c0.3,0,0.6,0,0.9,0
			c0.4,0,0.7,0,1.1-0.1c0.3,0,0.7-0.1,1-0.2c0.3-0.1,0.5-0.2,0.7-0.3c0.3-0.1,0.5-0.4,0.6-0.6c0-0.1,0-0.3,0-0.4
			c0.1,0.1,0.2,0.1,0.4,0.1c0.1,0,0.2,0,0.3,0c0.5,0,0.9-0.3,1.1-0.8c0.1-0.3,0-0.6-0.1-0.8c-0.1-0.3-0.4-0.4-0.6-0.5
			c-0.5-0.1-1-0.3-1.6-0.4l-0.5-0.1c-0.8-0.2-1.5-0.4-2.2-0.6c-0.2-0.1-0.5-0.2-0.7-0.3c-0.2-0.1-0.3-0.2-0.4-0.3
			c-1-0.8-1.9-1.8-2.7-2.7l-0.7-0.8c-0.5-0.6-1.1-1.1-1.7-1.6c-0.3-0.2-0.6-0.5-0.9-0.7c-0.3-0.2-0.6-0.3-0.9-0.4
			C43.3,70.6,43,70.6,42.7,70.6L42.7,70.6L42.7,70.6z"/>
		<path class="st2" d="M80.9,51.9c0.2-0.2,0.3-0.4,0.5-0.5c0.5-0.4,1.1-0.5,2-0.5c0.8,0,1.4,0.2,2,0.5c0.5,0.3,1,0.7,1.5,1.2
			c0.7,0.9,1,2.1,1.1,3.7c0,1.4-0.2,3-0.7,4.8c-0.4,1.4-1.1,2.9-1.9,4.2c-0.2,0.3-0.3,0.5-0.5,0.8c-0.2,0.3-0.5,0.6-0.7,0.8
			c-0.2,0.2-0.5,0.5-0.7,0.7c-0.2,0.2-0.4,0.3-0.7,0.4c-0.3,0.2-0.6,0.1-0.8,0.1c-0.1-0.1-0.2-0.1-0.3-0.2c0,0.1-0.1,0.2-0.1,0.4
			c0,0.1-0.1,0.2-0.1,0.2c-0.3,0.4-0.8,0.5-1.3,0.4c-0.3-0.1-0.5-0.3-0.6-0.6c-0.1-0.3-0.1-0.6,0-0.8c0.2-0.5,0.4-1,0.7-1.5l0.2-0.5
			c0.3-0.7,0.6-1.4,0.8-2.1c0.1-0.2,0.1-0.5,0.2-0.7c0-0.2,0-0.4,0-0.5c0-1.3-0.3-2.6-0.5-3.8l-0.2-1c-0.1-0.8-0.2-1.6-0.3-2.3
			c0-0.4,0-0.8,0-1.1c0-0.3,0.1-0.7,0.2-1C80.6,52.4,80.7,52.1,80.9,51.9L80.9,51.9L80.9,51.9z"/>
		<path class="st2" d="M62.7,57.3c-0.2,0-0.5,0.1-0.7,0.1c-0.3,0.1-0.6,0.2-0.8,0.4c-0.3,0.2-0.6,0.4-0.8,0.6
			c-0.4,0.4-0.7,0.8-0.9,1.1c-0.4,0.6-0.7,1.4-0.7,2.3c0,0.4,0,0.8,0.1,1.2c0.1,0.5,0.3,1,0.4,1.4c0.6,1.5,1.8,3,3.5,4.6
			c0.6,0.6,1.3,1.1,2.1,1.8c0.7,0.5,1.4,1,2.2,1.4c0.2,0.1,0.4,0.2,0.6,0.3c0.1,0.1,0.3,0.1,0.4,0.1c0.3,0,0.5-0.1,0.6-0.4
			c0.1,0,0.2,0,0.3,0c0.2,0,0.4-0.1,0.6-0.3c0.1-0.1,0.3-0.4,0.2-0.6L69.7,71c0-0.3-0.1-0.6-0.1-0.9c-0.1-0.7-0.2-1.3-0.4-2
			c-0.3-1.6-0.8-3.2-1.3-4.6c-0.3-0.8-0.6-1.5-0.9-2.2c-0.4-0.7-0.7-1.4-1.1-1.9c-0.4-0.6-0.9-1.1-1.4-1.4c-0.2-0.2-0.5-0.3-0.8-0.4
			c-0.3-0.1-0.6-0.2-0.9-0.2C62.9,57.3,62.7,57.3,62.7,57.3L62.7,57.3L62.7,57.3z"/>
		<path class="st1" d="M83.1,66.6c-2.3,0.3-4.6,0.6-6.8,1.2c-2.3,0.6-4.6,1.4-6.7,2.3c-1.1,0.5-2.2,1-3.3,1.5c-1,0.5-1.9,1-2.9,1.6
			c-1,0.6-2,1.3-3,1.9c-0.5,0.4-1.1,0.7-1.6,1.1c-0.4,0.3-0.7,0.5-1.1,0.8c-2.6,2-5,4.2-7.3,6.7c-2.4,2.7-4.5,5.6-6.4,8.8
			c-1.7,2.8-3,5.8-4,9c-0.1,0.2-0.1,0.4-0.2,0.6c-0.9,2.8-1.6,5.7-2.1,8.6c-0.9,5.5-0.8,11.1,0.1,16.6c1.9,11.9,8.4,22.9,17.6,30.6
			c2.3,1.9,4.7,3.6,7.2,5.1c2.6,1.5,5.3,2.8,8.1,3.8c5.5,2.1,11.3,3.1,17.2,3.3c2.8,0.1,5.6-0.1,8.3-0.5c3-0.4,5.9-1.1,8.8-2
			c2.9-0.9,5.7-2.1,8.3-3.6c2.7-1.4,5.3-3.2,7.7-5c4.9-3.8,9-8.6,12.3-13.9c1.6-2.6,2.8-5.3,3.9-8c1.1-2.8,1.9-5.6,2.5-8.5
			c1.1-5.5,1.2-11.2,0.5-16.7c-0.4-2.8-1-5.6-1.8-8.3c-0.9-2.9-2-5.7-3.4-8.4c-5.5-10.9-15-19.6-26.2-24.4c-4-1.7-8.1-2.9-12.4-3.6
			c-2.6-0.4-5.2-0.6-7.8-0.6C86.7,66.3,84.9,66.4,83.1,66.6L83.1,66.6L83.1,66.6z M95.6,70.2c4.1,0.6,8.1,1.7,12,3.3
			c-0.1-0.1-0.3-0.1-0.4-0.2c1.9,0.8,3.8,1.7,5.6,2.8c1.9,1.1,3.6,2.3,5.3,3.6c-0.1,0-0.1-0.1-0.2-0.1c1.7,1.3,3.4,2.8,4.9,4.4
			c1.3,1.4,2.6,2.8,3.8,4.3c1.3,1.7,2.4,3.4,3.5,5.2c1.1,1.9,2.1,3.9,3,5.9c-0.1-0.1-0.1-0.3-0.2-0.4c1.7,3.9,2.8,8.1,3.4,12.3
			c0.3,2.2,0.4,4.4,0.5,6.6c0,2.2-0.1,4.5-0.4,6.7c-0.6,4.4-1.8,8.7-3.4,12.8c-1.7,3.8-3.8,7.3-6.2,10.6c0,0,0-0.1,0.1-0.1
			c-2.7,3.4-5.7,6.5-9.1,9.1c-3.4,2.5-7,4.6-10.9,6.3c-4,1.6-8.1,2.7-12.3,3.3c-4.2,0.5-8.5,0.5-12.8,0c-2-0.3-4-0.7-5.9-1.2
			c-2.3-0.6-4.5-1.4-6.7-2.3c-3.8-1.7-7.4-3.8-10.7-6.3c0.1,0.1,0.2,0.1,0.3,0.2c-3.4-2.6-6.4-5.6-9-9c0.1,0.1,0.1,0.2,0.2,0.3
			c-2.6-3.4-4.7-7-6.4-10.9c-1.8-4.2-3-8.5-3.6-13c-0.5-4.4-0.6-8.7,0-13.1c0,0.1,0,0.2,0,0.3c0.4-3.2,1.2-6.3,2.2-9.4
			c0.2-0.6,0.5-1.3,0.7-1.9c0.1-0.2,0.1-0.3,0.2-0.5c0,0,0,0,0,0.1c1.7-4,3.9-7.8,6.6-11.3c-0.1,0.1-0.1,0.1-0.2,0.2
			c2.6-3.4,5.6-6.4,9-9c1.1-0.9,2.3-1.7,3.5-2.4c1.3-0.8,2.7-1.6,4.1-2.3c0,0,0,0,0,0c0.5-0.2,1-0.5,1.4-0.7c0.7-0.3,1.4-0.6,2.1-1
			c-0.1,0.1-0.2,0.1-0.3,0.1c1-0.4,2-0.8,3-1.1c1.1-0.4,2.2-0.7,3.4-1c2.2-0.6,4.4-1,6.6-1.3c0,0,0,0-0.1,0
			C86.4,69.6,91,69.6,95.6,70.2L95.6,70.2L95.6,70.2z M81.7,70.1c-0.1,0-0.1,0-0.2,0C81.5,70.2,81.6,70.1,81.7,70.1L81.7,70.1
			L81.7,70.1z M126.4,88.1c0,0,0.1,0.1,0.1,0.1C126.5,88.2,126.4,88.1,126.4,88.1L126.4,88.1L126.4,88.1z M126.6,88.3
			C126.6,88.3,126.6,88.4,126.6,88.3C126.6,88.4,126.6,88.3,126.6,88.3L126.6,88.3L126.6,88.3z M37.8,110.8
			C37.8,110.9,37.8,110.9,37.8,110.8C37.8,110.9,37.8,110.9,37.8,110.8L37.8,110.8L37.8,110.8z M39.4,111.9c0,0.1,0,0.1,0,0.2
			C39.4,112,39.4,112,39.4,111.9C39.4,111.9,39.4,111.9,39.4,111.9L39.4,111.9L39.4,111.9z M126.5,148.1c0,0-0.1,0.1-0.1,0.1
			C126.4,148.2,126.5,148.1,126.5,148.1L126.5,148.1L126.5,148.1z M117.8,156.8c-0.1,0-0.1,0.1-0.2,0.1
			C117.6,156.9,117.7,156.8,117.8,156.8L117.8,156.8L117.8,156.8z M117.5,157c0,0-0.1,0.1-0.1,0.1C117.4,157,117.5,157,117.5,157
			L117.5,157L117.5,157z M94.7,166.5c-0.1,0-0.1,0-0.2,0C94.6,166.5,94.6,166.5,94.7,166.5L94.7,166.5L94.7,166.5z M42.7,99.8
			c0-0.1,0-0.1,0.1-0.2C42.8,99.7,42.7,99.8,42.7,99.8L42.7,99.8L42.7,99.8z"/>
		<path class="st1" d="M81,75.8c-5.7,1-11.3,3.3-16.1,6.5c-2.5,1.6-4.7,3.5-6.8,5.6c-2.1,2.1-3.9,4.4-5.6,6.9c-1.7,2.5-3,5.2-4.1,8
			c-1.1,2.9-1.9,5.9-2.4,9c-0.9,5.9-0.6,12,0.9,17.7c0.8,2.9,1.9,5.8,3.3,8.5c1.3,2.7,3,5.1,4.8,7.5c3.5,4.5,8.1,8.2,13.1,11
			c2.6,1.5,5.4,2.6,8.3,3.5c3,0.9,6,1.4,9.1,1.7c6.1,0.5,12.4-0.4,18.1-2.5c2.9-1.1,5.7-2.5,8.4-4.2c3.9-2.5,7.4-5.6,10.3-9.2
			c3.7-4.5,6.4-9.8,8.1-15.3c0.9-3,1.4-6.1,1.6-9.2c0.2-2.8,0.1-5.6-0.3-8.4c-0.8-5.7-2.7-11.2-5.5-16.2c-1.4-2.5-3.2-4.9-5.1-7.1
			c-1.9-2.2-4.1-4.1-6.5-5.9c-4.7-3.5-10.2-6-15.9-7.4c-2.9-0.7-5.8-1-8.8-1.1c-0.3,0-0.7,0-1,0C86.1,75.1,83.5,75.3,81,75.8
			L81,75.8L81,75.8z M94.5,78.3c3.5,0.5,6.9,1.5,10.2,2.8c0,0,0,0-0.1,0c3.1,1.4,6,3.1,8.8,5.1c2.9,2.2,5.5,4.8,7.7,7.6
			c1.1,1.4,2,2.8,2.9,4.3c1,1.6,1.8,3.2,2.5,4.9c0,0,0,0,0,0c0.6,1.5,1.2,3.1,1.6,4.7c0.4,1.6,0.8,3.3,1,4.9c0.5,3.7,0.5,7.4,0.1,11
			c-0.5,3.8-1.5,7.4-3,10.9c-0.7,1.5-1.4,2.9-2.2,4.3c-0.9,1.6-1.9,3-3,4.5c0.1-0.1,0.1-0.1,0.2-0.2c-2.2,2.8-4.7,5.4-7.6,7.6
			c0,0,0,0,0,0c-0.2,0.2-0.5,0.4-0.7,0.5c-2.6,1.8-5.3,3.4-8.2,4.7c0.1,0,0.1,0,0.2-0.1c-1.7,0.7-3.5,1.3-5.3,1.8
			c-1.8,0.5-3.6,0.8-5.4,1.1c0.1,0,0.2,0,0.3,0c-3.8,0.5-7.6,0.5-11.4,0c0.1,0,0.2,0,0.3,0c-3.6-0.5-7.2-1.5-10.6-2.9c0,0,0,0,0,0
			c-3.3-1.4-6.3-3.2-9.2-5.4c0.1,0.1,0.2,0.1,0.3,0.2c-2.8-2.2-5.3-4.7-7.5-7.5c-2-2.7-3.7-5.6-5.1-8.6c0,0,0,0.1,0,0.1
			c0-0.1-0.1-0.1-0.1-0.2c0,0,0-0.1-0.1-0.1c0,0,0,0.1,0,0.1c-0.7-1.6-1.2-3.2-1.7-4.8c-0.5-1.9-0.9-3.8-1.2-5.7
			c-0.2-1.7-0.3-3.5-0.3-5.2c0-2,0.1-4,0.4-6c0,0.1,0,0.3,0,0.4c0.5-3.6,1.4-7.1,2.8-10.4c1.4-3.2,3.1-6.1,5.2-8.9
			c2.2-2.8,4.8-5.4,7.6-7.6c2.7-2,5.6-3.8,8.7-5.1c0,0,0,0,0,0c0,0,0,0,0,0c0.1,0,0.2-0.1,0.3-0.1c0,0-0.1,0-0.1,0.1
			c3.4-1.4,6.9-2.3,10.5-2.8c-0.1,0-0.2,0-0.2,0C87,77.8,90.7,77.8,94.5,78.3L94.5,78.3L94.5,78.3z M56.7,93.6
			c-0.1,0.1-0.1,0.2-0.2,0.3C56.6,93.8,56.7,93.7,56.7,93.6L56.7,93.6L56.7,93.6z M129.1,112.8C129.1,112.8,129.1,112.8,129.1,112.8
			C129.1,112.8,129.1,112.8,129.1,112.8L129.1,112.8L129.1,112.8z M48.5,124C48.5,124,48.5,124.1,48.5,124
			C48.5,124.1,48.5,124,48.5,124L48.5,124L48.5,124z M48.6,124.1c0,0.1,0,0.2,0,0.2C48.6,124.3,48.6,124.2,48.6,124.1L48.6,124.1
			L48.6,124.1z M51,134.4c0,0,0,0.1,0.1,0.1c0,0,0,0,0,0C51.1,134.5,51,134.5,51,134.4L51,134.4L51,134.4z M121.4,143.1
			C121.4,143.2,121.4,143.2,121.4,143.1c-0.1,0.1-0.1,0.1-0.1,0.1C121.4,143.2,121.4,143.2,121.4,143.1L121.4,143.1L121.4,143.1z
			 M56.6,143.4C56.7,143.5,56.7,143.5,56.6,143.4C56.7,143.5,56.7,143.5,56.6,143.4L56.6,143.4L56.6,143.4z M51.5,134.6
			C51.5,134.6,51.5,134.7,51.5,134.6C51.5,134.6,51.5,134.6,51.5,134.6C51.4,134.6,51.4,134.6,51.5,134.6L51.5,134.6L51.5,134.6z
			 M72.8,81.2C72.8,81.2,72.8,81.2,72.8,81.2c0.1,0,0.1-0.1,0.2-0.1C73,81.1,72.9,81.2,72.8,81.2L72.8,81.2L72.8,81.2z"/>
		<path class="st2" d="M132.6,103.1c0,0.5-0.1,0.9-0.1,1.4c0,0,0,0,0,0c0,0,0,0,0,0c0,0,0,0.1,0,0.1c0,0,0,0,0-0.1
			c-0.1,0.3-0.1,0.7-0.2,1c-0.1,0.5-0.2,1-0.4,1.4c-0.1,0.3,0.1,0.6,0.3,0.6c0.3,0.1,0.5-0.1,0.6-0.4c0.2-0.7,0.4-1.4,0.5-2.2
			c0.1-0.7,0.2-1.3,0.2-2c0-0.3-0.2-0.5-0.5-0.5C132.8,102.6,132.6,102.8,132.6,103.1L132.6,103.1L132.6,103.1z M132.5,104.5
			C132.5,104.5,132.5,104.5,132.5,104.5C132.5,104.4,132.5,104.4,132.5,104.5C132.5,104.5,132.5,104.5,132.5,104.5L132.5,104.5
			L132.5,104.5z"/>
		<path class="st2" d="M133.4,106c0,0.2,0,0.4-0.1,0.6c0,0,0,0,0,0c0,0,0,0,0,0.1c0,0,0,0.1,0,0.1c0,0,0,0,0,0
			c-0.1,0.5-0.2,0.9-0.3,1.3c-0.1,0.6-0.4,1.2-0.6,1.7c0,0,0,0,0,0c0,0.1-0.1,0.2-0.1,0.2c-0.1,0.1-0.1,0.3-0.1,0.4
			c0,0.1,0.1,0.2,0.2,0.3c0.1,0.1,0.3,0.1,0.4,0c0.1,0,0.3-0.1,0.3-0.2c0.1-0.3,0.2-0.5,0.3-0.8c0.2-0.4,0.3-0.9,0.4-1.4
			c0.2-0.7,0.3-1.5,0.4-2.3c0-0.3-0.2-0.5-0.5-0.5C133.7,105.5,133.5,105.7,133.4,106L133.4,106L133.4,106z M133.4,106.7
			C133.4,106.7,133.4,106.7,133.4,106.7C133.4,106.7,133.4,106.7,133.4,106.7C133.4,106.7,133.4,106.7,133.4,106.7L133.4,106.7
			L133.4,106.7z"/>
		<path class="st2" d="M134,107.9c-0.1,0.1-0.1,0.2-0.1,0.4c0,0.2,0,0.4-0.1,0.6c0,0,0,0,0,0c-0.1,0.7-0.2,1.4-0.4,2.1
			c-0.2,0.8-0.5,1.6-0.8,2.3c0,0,0-0.1,0.1-0.1c-0.2,0.5-0.5,1.1-0.7,1.6c-0.1,0.2-0.1,0.5,0.2,0.7c0.2,0.1,0.6,0.1,0.7-0.2
			c0.5-1.1,1-2.2,1.4-3.4c0.4-1.2,0.6-2.4,0.7-3.6c0-0.3-0.3-0.5-0.5-0.5C134.3,107.8,134.1,107.8,134,107.9L134,107.9L134,107.9z"
			/>
		<path class="st2" d="M134.4,110.4c-0.1,0.1-0.1,0.2-0.1,0.4c0,0.1,0,0.1,0,0.2c0,0,0,0,0,0c-0.1,0.7-0.2,1.4-0.4,2.1
			c-0.2,0.7-0.4,1.3-0.7,2c0,0,0,0,0,0c-0.2,0.4-0.4,0.8-0.6,1.2c-0.1,0.2-0.1,0.6,0.2,0.7c0.2,0.1,0.6,0.1,0.7-0.2
			c0.5-0.9,0.9-1.8,1.2-2.7c0.4-1,0.6-2.1,0.7-3.2c0-0.1-0.1-0.3-0.1-0.4c-0.1-0.1-0.2-0.1-0.4-0.1
			C134.7,110.3,134.5,110.3,134.4,110.4L134.4,110.4L134.4,110.4z"/>
		<path class="st2" d="M134.8,114.1c-0.1,0.6-0.2,1.2-0.4,1.7c-0.2,0.7-0.4,1.4-0.7,2c0,0,0-0.1,0.1-0.1c-0.4,0.9-0.8,1.7-1.3,2.5
			c-0.1,0.2-0.1,0.5,0.2,0.7c0.2,0.1,0.6,0.1,0.7-0.2c0.3-0.5,0.6-1,0.8-1.6c0.2-0.5,0.4-0.9,0.6-1.4c0.4-1.1,0.7-2.2,1-3.4
			c0-0.1,0-0.3,0-0.4c-0.1-0.1-0.2-0.2-0.3-0.2c0,0-0.1,0-0.1,0C135.1,113.7,134.9,113.9,134.8,114.1L134.8,114.1L134.8,114.1z"/>
		<path class="st2" d="M135,118.7c-0.1,0.1-0.2,0.2-0.2,0.3c-0.1,0.4-0.2,0.9-0.3,1.3c-0.1,0.4-0.3,0.8-0.4,1.2
			c-0.2,0.4-0.3,0.7-0.5,1.1c-0.2,0.5-0.5,0.9-0.8,1.3c0,0,0,0,0,0c-0.1,0.2-0.3,0.3-0.4,0.5c-0.1,0.1-0.2,0.2-0.2,0.4
			c0,0.1,0.1,0.3,0.2,0.4c0.2,0.2,0.6,0.2,0.8,0c0.3-0.4,0.6-0.8,0.9-1.2c0.3-0.5,0.6-1,0.8-1.4c0.5-1,0.8-2.2,1-3.3
			c0-0.1,0-0.3-0.1-0.4c-0.1-0.1-0.2-0.2-0.3-0.2c0,0-0.1,0-0.1,0C135.1,118.6,135,118.6,135,118.7L135,118.7L135,118.7z
			 M134.1,121.4C134.1,121.5,134.1,121.5,134.1,121.4C134.1,121.5,134.1,121.5,134.1,121.4L134.1,121.4L134.1,121.4z M132.6,124
			C132.6,124,132.6,124,132.6,124C132.6,124,132.6,124,132.6,124L132.6,124L132.6,124z"/>
		<path class="st2" d="M135.4,122.1c-0.3,0.7-0.6,1.5-1,2.2c-0.3,0.6-0.7,1.2-1.1,1.8c-0.4,0.6-0.8,1.2-1.3,1.7
			c-0.2,0.2-0.1,0.6,0.1,0.7c0.2,0.2,0.5,0.1,0.7-0.1c0.7-0.9,1.4-1.9,2-2.9c0.6-1,1-2,1.4-3c0.1-0.3,0-0.6-0.3-0.6
			c-0.1,0-0.1,0-0.2,0C135.7,121.8,135.5,121.9,135.4,122.1L135.4,122.1L135.4,122.1z"/>
		<path class="st2" d="M134.6,126.2c-0.1,0.1-0.2,0.2-0.3,0.3c-0.1,0.2-0.2,0.3-0.3,0.5c0,0,0,0,0,0c0,0,0,0,0,0c0,0,0,0.1-0.1,0.1
			c0,0,0,0,0-0.1c-0.3,0.6-0.7,1.1-1.1,1.7c-0.5,0.6-1,1.2-1.5,1.8c0,0,0,0,0.1-0.1c-0.3,0.3-0.7,0.7-1,1c-0.2,0.2-0.3,0.5-0.1,0.7
			c0.2,0.2,0.5,0.3,0.7,0.1c0.8-0.7,1.5-1.5,2.2-2.4c0.8-0.9,1.4-2,1.9-3c0.1-0.1,0-0.3,0-0.4c-0.1-0.1-0.2-0.2-0.3-0.3
			c-0.1,0-0.1,0-0.2,0C134.7,126.1,134.7,126.1,134.6,126.2L134.6,126.2L134.6,126.2z M134,127C134,127,134,127,134,127
			C134.1,127,134.1,127,134,127C134,127,134,127,134,127L134,127L134,127z"/>
		<path class="st2" d="M133.8,129.7c-0.3,0.5-0.6,0.9-1,1.4c-0.4,0.5-0.8,1-1.3,1.5c0,0,0,0,0.1-0.1c-0.6,0.7-1.3,1.3-2,1.9
			c-0.2,0.2-0.3,0.5-0.1,0.7c0.2,0.2,0.5,0.3,0.7,0.1c0.4-0.4,0.9-0.7,1.3-1.1c0.4-0.3,0.7-0.7,1.1-1.1c0.8-0.8,1.5-1.7,2.1-2.7
			c0.2-0.2,0.1-0.5-0.1-0.7c-0.1-0.1-0.2-0.1-0.3-0.1C134,129.5,133.9,129.6,133.8,129.7L133.8,129.7L133.8,129.7z"/>
		<path class="st2" d="M132.6,132.8c-0.2,0.4-0.5,0.8-0.8,1.1c-0.3,0.4-0.6,0.7-0.9,1c0,0,0.1-0.1,0.1-0.1c-0.2,0.2-0.5,0.5-0.7,0.7
			c-0.3,0.3-0.7,0.6-1.1,0.8c-0.2,0.2-0.2,0.5-0.1,0.7c0.2,0.2,0.5,0.2,0.7,0.1c0.7-0.5,1.3-1,1.9-1.6c0.3-0.3,0.6-0.7,0.9-1
			c0.3-0.4,0.5-0.7,0.8-1.1c0.1-0.2,0.1-0.5-0.1-0.7c-0.1-0.1-0.2-0.1-0.3-0.1C132.8,132.5,132.7,132.6,132.6,132.8L132.6,132.8
			L132.6,132.8z"/>
		<path class="st2" d="M127.2,142.9c-0.5,0.5-1,0.9-1.5,1.3c-0.5,0.4-1.1,0.8-1.6,1.1c-0.7,0.4-1.3,0.7-2,1
			c-0.3,0.1-0.4,0.4-0.3,0.7s0.4,0.4,0.7,0.3c0.5-0.2,1-0.5,1.5-0.7c0.4-0.2,0.9-0.5,1.3-0.8c0.9-0.6,1.8-1.3,2.6-2.1
			c0.1-0.1,0.2-0.2,0.2-0.3c0-0.1,0-0.3-0.1-0.4c-0.1-0.1-0.3-0.2-0.4-0.2C127.4,142.8,127.3,142.9,127.2,142.9L127.2,142.9
			L127.2,142.9z"/>
		<path class="st2" d="M124.4,146.3c-0.6,0.4-1.2,0.8-1.8,1.2c0,0,0.1,0,0.1-0.1c-0.6,0.4-1.2,0.7-1.9,1c-0.2,0.1-0.4,0.4-0.3,0.7
			c0.1,0.2,0.4,0.4,0.7,0.3c1.3-0.7,2.6-1.4,3.8-2.3c0.2-0.2,0.2-0.5,0.1-0.7c-0.1-0.1-0.2-0.2-0.4-0.2
			C124.6,146.2,124.5,146.2,124.4,146.3L124.4,146.3L124.4,146.3z"/>
		<path class="st2" d="M123.3,148.4c-0.2,0.1-0.4,0.3-0.6,0.4c0,0,0.1,0,0.1-0.1c-0.5,0.3-1,0.6-1.5,0.8c-0.6,0.3-1.3,0.6-2,0.8
			c-0.3,0.1-0.4,0.4-0.3,0.7c0.1,0.1,0.2,0.2,0.3,0.3c0.1,0,0.2,0,0.4,0c0.8-0.3,1.5-0.6,2.3-0.9c0.7-0.3,1.3-0.7,1.9-1.1
			c0.2-0.1,0.2-0.5,0.1-0.7c-0.1-0.1-0.2-0.2-0.3-0.2c0,0,0,0,0,0C123.5,148.3,123.4,148.4,123.3,148.4L123.3,148.4L123.3,148.4z
			 M122.8,148.8C122.8,148.7,122.8,148.7,122.8,148.8C122.8,148.7,122.8,148.7,122.8,148.8L122.8,148.8L122.8,148.8z"/>
		<path class="st2" d="M121.8,150.3c-0.5,0.4-1,0.7-1.5,1.1c-0.6,0.3-1.2,0.7-1.8,0.9c-0.6,0.3-1.3,0.5-1.9,0.7
			c-0.2,0.1-0.3,0.4-0.3,0.6c0,0.1,0.1,0.3,0.2,0.3c0.1,0.1,0.3,0.1,0.4,0.1c0.5-0.1,1-0.3,1.4-0.4c0.5-0.2,1-0.4,1.6-0.7
			c1-0.5,1.9-1,2.7-1.7c0.3-0.2,0.3-0.6,0.1-0.8c-0.1-0.1-0.3-0.2-0.5-0.2C122,150.2,121.9,150.3,121.8,150.3L121.8,150.3
			L121.8,150.3z M120.2,151.4C120.2,151.4,120.2,151.4,120.2,151.4C120.2,151.4,120.2,151.4,120.2,151.4L120.2,151.4L120.2,151.4z"
			/>
		<path class="st2" d="M49.4,94.5c-0.5,0.3-1.1,0.5-1.6,0.8c-0.6,0.3-1.1,0.7-1.7,1c-1,0.7-2,1.5-2.8,2.5c-0.2,0.2-0.2,0.5,0,0.7
			c0.2,0.2,0.5,0.2,0.7,0c0.4-0.5,0.9-0.9,1.3-1.4c0.6-0.5,1.1-0.9,1.8-1.3c0.7-0.5,1.5-0.9,2.3-1.3c0,0-0.1,0-0.1,0.1
			c0.1,0,0.2-0.1,0.3-0.1c0.1-0.1,0.2-0.1,0.3-0.3c0.1-0.1,0.1-0.3,0-0.4c0-0.1-0.1-0.2-0.3-0.3c-0.1,0-0.2-0.1-0.2-0.1
			C49.4,94.5,49.4,94.5,49.4,94.5L49.4,94.5L49.4,94.5z"/>
		<path class="st2" d="M47.5,96.6c-0.9,0.6-1.7,1.2-2.5,1.9c-0.8,0.7-1.6,1.5-2.3,2.3c-0.2,0.2-0.2,0.5,0,0.7c0.2,0.2,0.5,0.2,0.7,0
			c0.3-0.4,0.6-0.7,0.9-1c0.4-0.4,0.8-0.8,1.2-1.2c0.8-0.7,1.6-1.3,2.4-1.8c0.2-0.1,0.3-0.5,0.1-0.7c-0.1-0.1-0.3-0.2-0.4-0.2
			C47.7,96.6,47.6,96.6,47.5,96.6L47.5,96.6L47.5,96.6z"/>
		<path class="st2" d="M45.9,99.8c-0.4,0.2-0.7,0.5-1.1,0.7c-0.4,0.3-0.7,0.6-1.1,0.9c-0.7,0.7-1.4,1.5-1.9,2.4
			c-0.1,0.1-0.1,0.3,0,0.4c0,0.1,0.1,0.2,0.3,0.3c0.1,0.1,0.3,0.1,0.4,0c0.1,0,0.2-0.1,0.3-0.3c0-0.1,0.1-0.1,0.1-0.2c0,0,0,0,0,0
			c0.3-0.5,0.6-0.9,1-1.3c0.3-0.4,0.7-0.8,1.1-1.1c0.5-0.4,1-0.8,1.5-1.1c0.2-0.1,0.3-0.5,0.1-0.7c-0.1-0.1-0.3-0.2-0.4-0.2
			C46.1,99.8,46,99.8,45.9,99.8L45.9,99.8L45.9,99.8z"/>
		<path class="st2" d="M46.5,101.3c-0.6,0.4-1.1,0.8-1.6,1.3c-0.7,0.6-1.3,1.2-1.8,1.9c-1,1.2-1.9,2.6-2.6,4c-0.1,0.2,0,0.6,0.2,0.7
			c0.3,0.1,0.5,0,0.7-0.2c0.4-0.7,0.8-1.3,1.2-2c0,0,0,0.1-0.1,0.1c0.5-0.7,1-1.4,1.6-2.1c0.6-0.7,1.2-1.3,1.8-1.8
			c0.4-0.3,0.8-0.6,1.2-0.9c0.2-0.2,0.3-0.5,0.1-0.7c-0.1-0.1-0.3-0.2-0.4-0.2C46.7,101.2,46.6,101.2,46.5,101.3L46.5,101.3
			L46.5,101.3z"/>
		<path class="st2" d="M44.9,105.4c-0.2,0-0.3,0.1-0.4,0.2c-0.4,0.4-0.8,0.7-1.2,1.1c-0.5,0.5-0.9,1-1.3,1.5c-0.7,1-1.3,2.1-1.8,3.2
			c-0.1,0.1-0.1,0.3,0,0.4c0,0.1,0.1,0.3,0.3,0.3c0.3,0.1,0.6,0,0.7-0.2c0.2-0.4,0.3-0.8,0.5-1.2c0.2-0.5,0.5-0.9,0.8-1.3
			c0.4-0.5,0.7-1,1.1-1.5c0.5-0.6,1-1.1,1.6-1.6c0.1-0.1,0.1-0.3,0.1-0.4c0-0.1-0.1-0.3-0.2-0.4C45.2,105.5,45.1,105.4,44.9,105.4
			C44.9,105.4,44.9,105.4,44.9,105.4L44.9,105.4L44.9,105.4z"/>
		<path class="st2" d="M43.7,109.2c-0.7,0.9-1.4,1.9-2,2.9c-0.7,1.2-1.3,2.4-1.7,3.7c0,0.1-0.1,0.2,0,0.4c0,0.1,0.1,0.2,0.3,0.3
			c0.1,0.1,0.3,0.1,0.4,0c0.1,0,0.3-0.1,0.3-0.3c0.3-0.9,0.7-1.7,1.1-2.5c0.4-0.8,0.9-1.6,1.4-2.4c0,0,0,0,0,0
			c0.4-0.5,0.8-1.1,1.2-1.6c0.2-0.2,0.2-0.5-0.1-0.7c-0.1-0.1-0.2-0.1-0.3-0.1C43.9,109,43.8,109.1,43.7,109.2L43.7,109.2
			L43.7,109.2z M43.3,111.4C43.2,111.5,43.2,111.5,43.3,111.4C43.2,111.5,43.2,111.5,43.3,111.4L43.3,111.4L43.3,111.4z"/>
		<path class="st2" d="M42.5,113.9c-0.4,0.5-0.8,1-1.1,1.6c-0.5,0.7-0.9,1.4-1.2,2.2c-0.1,0.2,0,0.6,0.2,0.7c0.3,0.1,0.6,0,0.7-0.2
			c0.4-0.8,0.9-1.7,1.4-2.5c0,0,0,0,0,0.1c0.3-0.4,0.6-0.8,0.9-1.2c0.2-0.2,0.2-0.5-0.1-0.7c-0.1-0.1-0.2-0.1-0.3-0.1
			C42.7,113.7,42.6,113.8,42.5,113.9L42.5,113.9L42.5,113.9z M42.4,115.6C42.4,115.6,42.4,115.6,42.4,115.6
			C42.4,115.6,42.4,115.6,42.4,115.6L42.4,115.6L42.4,115.6z"/>
		<path class="st2" d="M43.2,124.4c-0.1,0-0.2,0.1-0.3,0.3c-0.2,0.4-0.5,0.8-0.7,1.2c-0.2,0.4-0.4,0.8-0.6,1.2
			c-0.3,0.8-0.5,1.6-0.7,2.4c-0.1,0.3,0.1,0.5,0.4,0.6c0.3,0.1,0.6-0.1,0.6-0.4c0.1-0.7,0.3-1.3,0.5-2c0,0,0,0,0,0
			c0.1-0.4,0.3-0.8,0.5-1.2c0.2-0.5,0.5-1,0.8-1.5c0.1-0.1,0.1-0.3,0-0.4c0-0.1-0.1-0.2-0.3-0.3c-0.1,0-0.2-0.1-0.2-0.1
			C43.3,124.4,43.3,124.4,43.2,124.4L43.2,124.4L43.2,124.4z"/>
		<path class="st2" d="M43,127c-0.3,0.6-0.5,1.2-0.7,1.8c-0.2,0.7-0.4,1.4-0.5,2.1c0,0.3,0.1,0.5,0.4,0.6c0.3,0.1,0.5-0.1,0.6-0.4
			c0.1-0.7,0.3-1.3,0.5-1.9c0,0,0,0,0,0c0.2-0.6,0.4-1.1,0.7-1.6c0.1-0.2,0-0.6-0.2-0.7c-0.1,0-0.1,0-0.2,0
			C43.3,126.7,43.1,126.8,43,127L43,127L43,127z"/>
		<path class="st2" d="M43.8,129.4c-0.3,0.7-0.6,1.4-0.8,2.2c-0.2,0.9-0.3,1.7-0.4,2.6c0,0.3,0.2,0.5,0.4,0.5c0.1,0,0.3,0,0.4-0.1
			c0.1-0.1,0.2-0.2,0.2-0.4c0-0.5,0.1-0.9,0.2-1.4c0.1-0.6,0.2-1.1,0.4-1.7c0.2-0.4,0.3-0.9,0.5-1.3c0.1-0.3,0-0.6-0.3-0.8
			c-0.1,0-0.2-0.1-0.3-0.1C44.1,129.1,43.9,129.2,43.8,129.4L43.8,129.4L43.8,129.4z"/>
	</g>
	<path class="st0" d="M7.8,17c0,3.3,2.7,6,6,6c3.3,0,6-2.7,6-6c0-3.3-2.7-6-6-6C10.5,11,7.8,13.7,7.8,17L7.8,17L7.8,17z"/>
	<path class="st1" d="M181.2,66.5c0,3.3,2.7,6,6,6c3.3,0,6-2.7,6-6c0-3.3-2.7-6-6-6C184,60.4,181.2,63.2,181.2,66.5L181.2,66.5
		L181.2,66.5z"/>
	<path class="st0" d="M7.6,63.2c0,2.7,2.3,5,5,5c2.7,0,5-2.3,5-5c0-2.7-2.3-5-5-5C9.8,58.2,7.6,60.5,7.6,63.2L7.6,63.2L7.6,63.2z"/>
	<path class="st0" d="M176.8,31.5c0,2.3,1.9,4.2,4.2,4.2c2.3,0,4.2-1.9,4.2-4.2c0-2.3-1.9-4.2-4.2-4.2
		C178.7,27.3,176.8,29.2,176.8,31.5L176.8,31.5L176.8,31.5z"/>
</g>
</svg>
