<?xml version="1.0" encoding="utf-8"?>
<!-- Generator: Adobe Illustrator 22.0.0, SVG Export Plug-In . SVG Version: 6.00 Build 0)  -->
<svg version="1.1" id="Layer_1" xmlns="http://www.w3.org/2000/svg" xmlns:xlink="http://www.w3.org/1999/xlink" x="0px" y="0px"
	 width="210px" height="210px" viewBox="0 0 210 210" style="enable-background:new 0 0 210 210;" xml:space="preserve">
<style type="text/css">
	.st0{fill:#282828;}
	.st1{fill:#C8962C;}
</style>
<g>
	<g>
		<path class="st0" d="M9.5,45.3c-2,1.4-1,4.4-0.6,5.3c0.6,1.4,1.5,2.8,2.7,4.1c0.7,0.7,1.5,1.4,2.2,1.9c1,0.8,2.2,1.5,3.6,2.3
			c2,1.1,4.1,2.2,6.7,3.2c0.9,0.3,1.7,0.6,2.6,0.9c0.6,0.2,1.3,0.4,1.9,0.7c1.1,0.3,2.3,0.6,3.4,1c0.5,0.1,1,0.3,1.4,0.4
			c0.1,0,0.3,0.1,0.4,0.1C34,65,34,64.9,34,64.8c0,0,0-0.1,0-0.1c0,0,0,0,0-0.1c-0.1-0.2-0.2-0.4-0.3-0.7c-0.1-0.1-0.1-0.2-0.2-0.3
			c-0.1-0.2-0.2-0.4-0.3-0.5c-0.3-0.4-0.5-0.8-0.8-1.2c-0.6-0.9-1.2-1.7-1.9-2.5c-1.3-1.7-2.7-3.3-4.1-4.9c-1.5-1.6-3-3.1-4.6-4.4
			c-1.6-1.4-3.2-2.5-4.8-3.5c-0.8-0.4-1.6-0.8-2.4-1.2c-0.7-0.3-1.5-0.5-2.2-0.7c-0.3-0.1-0.6-0.1-0.9-0.1
			C10.7,44.8,10,44.9,9.5,45.3L9.5,45.3L9.5,45.3z"/>
		<path class="st0" d="M187.5,125.9c-2.2,0.1-4.5,0.4-6.8,0.7c-0.2,0-0.4,0.1-0.5,0.1c-1.1,0.3-2.2,0.5-3.2,0.7c0,0-0.1,0-0.1,0
			c-0.5,0.2-1,0.3-1.6,0.5c0,0,0,0.1,0,0.1c1.4,0.7,2.7,1.5,4.1,2.2c0.8,0.4,1.7,0.7,2.5,1.1c3.2,1.3,5.8,2.3,8.3,3
			c1.5,0.5,2.9,0.8,4.2,1c1.1,0.2,2.1,0.3,3.1,0.3c0.2,0,0.5,0,0.7,0c1.1-0.1,2.2-0.3,3-0.7c0.4-0.2,0.8-0.5,1.1-0.8
			c0.4-0.4,0.7-0.8,0.9-1.2c0.5-0.7,0.7-1.5,0.8-2.2c0.1-0.6,0-1.3-0.3-1.8c-0.3-0.5-0.7-0.9-1.3-1.3c-0.6-0.4-1.3-0.7-2.1-0.9
			c-2-0.6-4-0.8-5.8-0.8c-0.8,0-1.6-0.1-2.4-0.1C190.6,125.8,189.1,125.8,187.5,125.9L187.5,125.9L187.5,125.9z"/>
		<path class="st0" d="M6,94.7c0,3.8,3.2,6.9,6.9,6.9s6.9-3.2,6.9-6.9c0-3.8-3.2-6.9-6.9-6.9S6,91,6,94.7L6,94.7L6,94.7z"/>
		<path class="st0" d="M116,37.1c0,2,1.7,3.6,3.6,3.6c2,0,3.6-1.7,3.6-3.6c0-2-1.7-3.6-3.6-3.6C117.6,33.4,116,35.1,116,37.1
			L116,37.1L116,37.1z"/>
		<path class="st0" d="M140.4,49.2c0,0.7,0.6,1.3,1.3,1.3c0.7,0,1.3-0.6,1.3-1.3c0-0.7-0.6-1.3-1.3-1.3
			C141,47.9,140.4,48.5,140.4,49.2L140.4,49.2L140.4,49.2z"/>
		<path class="st0" d="M15,76.9c0,1.1,0.9,2,2,2s2-0.9,2-2c0-1.1-0.9-2-2-2S15,75.8,15,76.9L15,76.9L15,76.9z"/>
		<path class="st0" d="M74.6,88.5c0,0.7,0.6,1.3,1.3,1.3c0.7,0,1.3-0.6,1.3-1.3c0-0.7-0.6-1.3-1.3-1.3
			C75.2,87.3,74.6,87.8,74.6,88.5L74.6,88.5L74.6,88.5z"/>
		<path class="st0" d="M95.7,112.9c0,1.2,1,2.3,2.3,2.3c1.2,0,2.3-1,2.3-2.3c0-1.2-1-2.3-2.3-2.3C96.7,110.6,95.7,111.6,95.7,112.9
			L95.7,112.9L95.7,112.9z"/>
		<path class="st0" d="M63.2,178c0,1.2,1,2.2,2.2,2.2c1.2,0,2.2-1,2.2-2.2c0-1.2-1-2.2-2.2-2.2C64.2,175.8,63.2,176.8,63.2,178
			L63.2,178L63.2,178z"/>
		<path class="st0" d="M179.5,82.8c0,1,0.8,1.7,1.7,1.7c1,0,1.7-0.8,1.7-1.7s-0.8-1.7-1.7-1.7C180.3,81.1,179.5,81.9,179.5,82.8
			L179.5,82.8L179.5,82.8z"/>
		<g>
			<path class="st1" d="M20.1,20.8H20c-0.6,0-1.1,0.1-1.6,0.4c-0.5,0.3-1,0.7-1.4,1.3c-0.7,1.3-0.7,2.8-0.7,3.9
				c0,0.8,0.2,1.6,0.4,2.6c0.2,1,0.5,2,0.9,3c0.9,2.2,2.2,4.4,4.1,6.8c1.5,1.9,3.4,3.8,5.7,5.9c1.8,1.6,3.8,3.1,6.3,4.9
				c0.1,0,0.1,0.1,0.2,0.1c0.1,0.1,0.2,0.1,0.3,0.1c0.1,0,0.1,0,0.2,0c0.2-0.1,0.3-0.3,0.3-0.6c-0.2-0.6-0.3-1.1-0.5-1.7
				c-0.2-0.6-0.3-1.1-0.5-1.7c-0.4-1.2-0.7-2.4-1.1-3.6c-0.8-2.4-1.6-4.7-2.5-6.8c-0.4-1.1-0.9-2.2-1.4-3.2
				c-0.2-0.6-0.5-1.1-0.8-1.7l-0.4-0.8c-0.6-1.2-1.1-2.5-1.8-3.7c-0.6-1.1-1.4-2.5-2.5-3.6C22.3,21.4,21.2,20.8,20.1,20.8
				C20.1,20.8,20.1,20.8,20.1,20.8L20.1,20.8L20.1,20.8z"/>
			<path class="st1" d="M185.4,100.6c-0.7,0.1-1.3,0.2-2,0.5c-1.2,0.4-2.4,1-3.7,2c-1.1,0.8-2.2,1.8-3.5,3.2c-1.1,1.1-2.2,2.5-3.3,4
				c-1.9,2.6-3.7,5.5-5.4,8.7c-0.9,1.7-1.7,3.4-2.4,5.1c-0.1,0.2,0,0.5,0.2,0.6c0.2-0.1,0.4-0.2,0.6-0.2c0.6-0.3,1.1-0.6,1.7-0.9
				c0.7-0.4,1.5-0.8,2.2-1.2c0.9-0.6,1.8-1.2,2.7-1.8c2.2-1.6,4.3-3.2,6-4.4c0.5-0.4,1-0.8,1.5-1.2c0.7-0.6,1.3-1.2,1.9-1.8
				c1.8-1.7,3.3-3.3,4.6-4.9c0.7-0.9,1.3-1.7,1.8-2.6c0.5-0.8,0.8-1.5,1-2.2c0.1-0.4,0.2-1.2-0.4-1.9c-0.2-0.3-0.5-0.5-0.8-0.6
				c-0.4-0.2-0.9-0.2-1.3-0.3c-0.1,0-0.2,0-0.3,0C186.2,100.5,185.8,100.6,185.4,100.6L185.4,100.6L185.4,100.6z"/>
			<path class="st1" d="M118.5,53.3c0,3.8,3.2,6.9,6.9,6.9c3.8,0,6.9-3.2,6.9-6.9c0-3.8-3.2-6.9-6.9-6.9
				C121.6,46.4,118.5,49.5,118.5,53.3L118.5,53.3L118.5,53.3z"/>
			<path class="st1" d="M45.7,182.3c0,3.8,3.2,6.9,6.9,6.9c3.8,0,6.9-3.2,6.9-6.9s-3.2-6.9-6.9-6.9
				C48.8,175.4,45.7,178.5,45.7,182.3L45.7,182.3L45.7,182.3z"/>
			<path class="st1" d="M71.1,106.2c0,3.8,3.2,6.9,6.9,6.9s6.9-3.2,6.9-6.9c0-3.8-3.2-6.9-6.9-6.9S71.1,102.4,71.1,106.2L71.1,106.2
				L71.1,106.2z"/>
			<path class="st1" d="M28.8,93.8c0,1.3,1.1,2.4,2.4,2.4s2.4-1.1,2.4-2.4c0-1.3-1.1-2.4-2.4-2.4S28.8,92.5,28.8,93.8L28.8,93.8
				L28.8,93.8z"/>
			<path class="st1" d="M95.5,94.3c0,1.3,1.1,2.4,2.4,2.4c1.3,0,2.4-1.1,2.4-2.4s-1.1-2.4-2.4-2.4C96.6,91.9,95.5,93,95.5,94.3
				L95.5,94.3L95.5,94.3z"/>
			<path class="st1" d="M54.1,156.5c0,2.8,2.3,5.1,5.1,5.1c2.8,0,5.1-2.3,5.1-5.1c0-2.8-2.3-5.1-5.1-5.1
				C56.4,151.4,54.1,153.7,54.1,156.5L54.1,156.5L54.1,156.5z"/>
			<path class="st1" d="M139.8,152.4c0,3,2.5,5.6,5.6,5.6c3,0,5.6-2.5,5.6-5.6c0-3-2.5-5.6-5.6-5.6
				C142.3,146.9,139.8,149.4,139.8,152.4L139.8,152.4L139.8,152.4z"/>
			<path class="st1" d="M151.4,133.9c0,0.9,0.7,1.6,1.6,1.6c0.9,0,1.6-0.7,1.6-1.6c0-0.9-0.7-1.6-1.6-1.6
				C152.1,132.2,151.4,133,151.4,133.9L151.4,133.9L151.4,133.9z"/>
		</g>
		<path class="st0" d="M168,155.7c0,1.3,1.1,2.3,2.3,2.3c1.3,0,2.3-1.1,2.3-2.3c0-1.3-1.1-2.3-2.3-2.3
			C169,153.4,168,154.4,168,155.7L168,155.7L168,155.7z"/>
		<g>
			<path class="st0" d="M106.5,49.7c-0.1-0.9-0.2-1.7-0.4-2.6c-0.2-1-0.5-2.1-0.9-3.1c-0.6-1.7-1.5-3.3-2.5-4.7
				c-0.5-0.7-1-1.4-1.6-2c-0.6-0.8-1.3-1.5-2.1-2.2c-0.3-0.2-0.6-0.3-0.9-0.3c-0.1,0-0.2,0-0.2,0c-0.1,0.1-0.3,0.1-0.4,0.2
				c-0.1,0.1-0.2,0.3-0.4,0.4c-0.2,0.4-0.4,0.7-0.5,1.1c0,0,0,0,0,0c0,0,0,0.1-0.1,0.1c-0.4,0.8-0.7,1.7-1.1,2.5
				c-0.6,1.4-1.1,2.7-1.7,4.1c-0.7,1.5-1.4,3.1-2.1,4.6c-0.3,0.8-0.6,1.6-1,2.3c-0.3,0.5-0.6,1.1-0.9,1.6c-1.3,2.5-2.7,4.9-4.1,7.3
				c-1.5,2.5-3.2,4.9-5,7.3c0,0,0,0,0,0c-0.4,0.5-0.8,1.1-1.2,1.7c0-0.1,0.1-0.1,0.1-0.2c-0.5,0.6-1,1.2-1.5,1.9
				c-0.5,0.6-1,1.2-1.5,1.8c-0.6,0.8-1.3,1.5-2,2.3c-0.3-1.4-0.6-2.9-1.1-4.6c-0.5-1.8-1.1-3.4-1.7-4.9c-0.7-1.5-1.7-3-2.9-4.2
				c-1.2-1.3-2.8-2.3-4.7-3.1c-1.4-0.6-2.8-0.9-4.2-0.9c-0.4,0-0.7,0-1.1,0.1c-0.9,0.1-1.7,0.3-2.5,0.7c-0.7,0.3-1.4,0.7-2.1,1.3
				c-1.2,0.9-2,2.3-2.4,3.9c-0.5,2,0,4,0.5,5.3c0.7,1.8,1.9,3.4,3.5,4.9c1.7,1.5,3.6,2.7,5.8,3.5c2.3,0.9,4.6,1.4,6.8,1.4
				c2.1,0,4-0.5,5.7-1.4c0.1,0,0.1-0.1,0.1-0.1c0,0,0,0,0,0c0,0,0,0,0.1,0c0,0,0,0,0,0c1.5-1.3,2.9-2.7,4.3-4.1c0,0,0-0.1,0-0.1
				c0.5-0.6,1-1.1,1.5-1.7c0.6-0.7,1.3-1.5,1.9-2.2c1.2-1.5,2.4-3,3.5-4.6c1.2-1.7,2.4-3.4,3.5-5.1c0.9-1.4,1.7-2.8,2.5-4.2
				c0.1,0.1,0.2,0.1,0.3,0.2c0.8,0.8,1.5,1.7,2.1,2.6c0.8,1.3,1.3,2.6,1.8,4c0.3,0.9,0.5,1.7,0.7,2.6c0.2,1,0.3,2,0.3,3
				c0,1.4-0.1,2.9-0.4,4.3c-0.2,0.9-0.6,1.9-1,2.7c-0.8,0.8-1.6,1.6-2.4,2.3c-1,0.8-2,1.6-3.1,2.3c-1,0.6-1.9,1.1-3,1.6
				c-0.3,0.2-0.5,0.5-0.3,0.8c0.1,0.3,0.5,0.5,0.8,0.3c3.3-1.5,6.3-3.6,9-6c1.3-1.2,2.5-2.6,3.7-4c1.1-1.4,2.1-2.9,3-4.5
				c1.8-3.2,3-6.8,3.4-10.4C106.7,53.5,106.7,51.6,106.5,49.7z M102.7,59.5c-0.6,2.4-1.4,4.7-2.5,6.8c-0.6,1.1-1.2,2.2-1.9,3.2
				c-0.3,0.5-0.7,1-1.1,1.4c0.2-0.6,0.5-1.3,0.6-2c0.5-2.2,0.8-4.5,0.8-6.8c0-1.2-0.1-2.3-0.3-3.5c-0.2-1.2-0.5-2.4-1-3.5
				c-0.4-1.1-1-2.2-1.7-3.1c-0.3-0.4-0.6-0.8-1-1.2c-0.2-0.2-0.3-0.3-0.5-0.5c-0.2-0.2-0.3-0.3-0.5-0.5c0.4-0.8,0.9-1.7,1.3-2.5
				c0.8-1.7,1.6-3.5,2.3-5.3c0.3-0.8,0.6-1.6,0.9-2.4c0,0,0.1,0.1,0.1,0.1c0.5,0.7,1,1.4,1.4,2.1c1,1.6,1.9,3.3,2.5,5.2
				c0.6,2,1,4,1.1,6.1C103.4,55.3,103.1,57.4,102.7,59.5z"/>
			<path class="st0" d="M98,34.9C98,34.9,97.9,34.9,98,34.9C97.9,34.9,98,34.9,98,34.9C98,34.9,98,34.9,98,34.9z"/>
		</g>
		<g>
			<path class="st0" d="M114.7,172.2c-0.1-0.5-0.1-1.1-0.3-1.6c0-0.1-0.1-0.2-0.1-0.3c0,0,0,0,0,0c-0.2-0.6-0.3-1.3-0.5-1.9
				c-0.1-0.2-0.2-0.5-0.3-0.7c0-0.1-0.1-0.1-0.1-0.2c-0.1-0.3-0.3-0.7-0.4-1c0,0,0,0,0-0.1c-0.2-0.4-0.3-0.7-0.5-1
				c-0.1-0.2-0.2-0.4-0.3-0.6c-0.2-0.3-0.4-0.7-0.6-1c-0.5-0.7-1.1-1.4-1.6-2.1c0,0,0,0,0,0c-0.5-0.6-1-1.2-1.4-1.8
				c0,0-0.1,0-0.1-0.1c0,0-0.1-0.1-0.1-0.1c-1.2-1.6-2.5-3.1-3.8-4.6c-2.6-3-5.3-5.9-8.1-8.8c-0.6-0.7-1.3-1.3-2-2
				c-0.7-0.7-1.4-1.4-2.2-2.2c-1.4-1.4-2.9-2.8-4.4-4.2c-1.5-1.4-2.9-2.8-4.3-4.3c-0.7-0.7-1.3-1.4-2-2.2c0.1,0,0.1,0,0.2,0
				c1.3,0.3,2.7,0.7,4,0.8c1.2,0.1,2.3,0,3.5-0.1c1.2-0.1,2.4-0.4,3.5-0.7c1.1-0.3,2.2-0.8,3.3-1.3c1.1-0.5,2.1-1.2,3-2
				c0.9-0.7,1.7-1.6,2.4-2.5c0.7-0.9,1.2-1.9,1.7-2.9c0.1-0.3-0.1-0.7-0.4-0.8c0,0,0,0,0,0c-0.3,0.4-0.6,0.8-0.9,1.1
				c-0.9,1-1.9,2-3,2.8c-1.1,0.8-2.2,1.4-3.4,1.9c-1.2,0.5-2.5,0.9-3.8,1.2c-0.6,0.1-1.2,0.2-1.9,0.3c0,0,0,0,0,0
				c-0.7,0.1-1.4,0.1-2,0.2c-1.4,0.1-2.7,0-4.1-0.1c0,0-0.1,0-0.1,0c-1-0.1-2-0.2-2.9-0.3c-0.3,0-0.5-0.1-0.8-0.1c0,0-0.1,0-0.1,0
				c-0.4-0.1-0.7-0.1-1.1-0.2c-0.6-0.1-1.1-0.2-1.7-0.3c-0.1,0.3-0.1,0.6,0.1,0.9c1.1,1.5,2.3,3,3.6,4.5c1.2,1.5,2.5,2.9,3.9,4.3
				c2.6,2.8,5.5,5.3,8.3,7.9c1.4,1.2,2.7,2.5,4.1,3.7c1.4,1.3,2.8,2.6,4.2,4c1.3,1.3,2.6,2.6,3.8,4c1.3,1.4,2.5,2.9,3.8,4.3
				c0,0,0-0.1-0.1-0.1c0.7,0.8,1.3,1.6,1.9,2.5c-0.3,0.1-0.6,0.3-1,0.4c-0.5,0.2-1,0.4-1.5,0.6c-0.5,0.2-1,0.5-1.5,0.7
				c-0.5,0.3-1.1,0.6-1.6,1c-0.8,0.6-1.6,1.3-2.4,1.9c-0.8,0.7-1.5,1.4-2.2,2.2c-1.4,1.5-2.5,3.2-3.4,5c-0.4,0.9-0.7,1.8-1,2.8
				c-0.1,0.4-0.2,0.9-0.3,1.3c-0.1,0.5,0,1,0,1.5c0,0.8,0.2,1.6,0.5,2.3c0.3,0.7,0.7,1.4,1.3,2c0.5,0.6,1.1,1,1.7,1.4
				c0.3,0.2,0.7,0.4,1.1,0.5c0.4,0.2,0.9,0.3,1.3,0.4c0.8,0.2,1.6,0.1,2.4,0.1c0.9-0.1,1.8-0.3,2.6-0.7c1.4-0.5,2.6-1.4,3.7-2.4
				c1.4-1.3,2.5-2.9,3.2-4.7c0.8-1.8,1.2-3.7,1.3-5.6C114.8,174.3,114.8,173.3,114.7,172.2z M113.1,177c-0.3,1.4-0.8,2.6-1.5,3.9
				c0,0,0-0.1,0.1-0.1c0,0.1-0.1,0.1-0.1,0.2c0,0,0,0,0,0c-0.6,1-1.3,2-2.1,2.9c-0.6,0.6-1.3,1.1-2,1.5c-0.8,0.4-1.5,0.8-2.4,1
				c-0.6,0.2-1.3,0.3-1.9,0.3c-0.5,0-1.1-0.1-1.6-0.2c-0.5-0.1-0.9-0.3-1.3-0.5c-0.4-0.2-0.8-0.5-1.2-0.9c-0.3-0.3-0.6-0.7-0.8-1.1
				c-0.2-0.4-0.3-0.7-0.5-1.1c-0.1-0.5-0.2-1-0.2-1.5c0-0.7,0.1-1.4,0.2-2.1c0,0,0,0,0,0.1c0,0,0-0.1,0-0.1c0,0,0-0.1,0-0.1
				c0.3-1.2,0.8-2.4,1.4-3.6c0.8-1.5,1.9-2.8,3-4c0,0,0,0,0,0c0,0,0,0,0.1-0.1c0,0,0,0,0,0c0,0,0,0,0.1-0.1c0,0,0,0,0.1-0.1
				c1.2-1.2,2.5-2.3,3.9-3.3c1.5-1,3.1-2,4.6-3c0.3,0.3,0.5,0.7,0.7,1c0.1,0.3,0.3,0.6,0.4,0.8c0.2,0.5,0.4,0.9,0.5,1.4
				c0.2,0.6,0.4,1.2,0.5,1.8c0.1,0.4,0.2,0.7,0.2,1.1c0,0.1,0,0.1,0,0.2c0.1,0.5,0.1,1,0.1,1.5C113.6,174.4,113.4,175.7,113.1,177z"
				/>
			<path class="st0" d="M97.8,179.3C97.8,179.3,97.8,179.3,97.8,179.3C97.8,179.3,97.8,179.3,97.8,179.3
				C97.8,179.3,97.8,179.3,97.8,179.3z"/>
			<path class="st0" d="M111.6,180.9C111.7,180.9,111.7,180.9,111.6,180.9C111.7,180.9,111.6,180.9,111.6,180.9
				C111.6,180.9,111.6,180.9,111.6,180.9z"/>
		</g>
		<g>
			<path class="st0" d="M158.6,100.9c0-0.1,0-0.2-0.1-0.2c0,0,0-0.1,0-0.1c0-0.4-0.1-0.7-0.2-1.1c-0.1-0.7-0.4-1.4-0.6-2
				c0,0,0,0,0-0.1c0,0,0,0,0,0c0,0,0,0,0,0c0-0.2-0.1-0.3-0.1-0.4c0,0,0-0.1,0-0.1c0-0.2-0.1-0.3-0.2-0.5c-0.1-0.2-0.1-0.4-0.2-0.5
				c-0.1-0.4-0.3-0.8-0.5-1.3c-0.4-1.1-0.7-2.2-1.1-3.3c-1.1-2.7-2.3-5.4-3.8-7.9c-0.7-1.2-1.6-2.4-2.5-3.6
				c-0.4-0.5-0.9-1.1-1.4-1.6c-0.5-0.6-1.1-1.1-1.8-1.6c-0.1-0.1-0.2-0.1-0.4-0.1c-0.1,0-0.2,0.1-0.3,0.1c0,0,0,0,0,0c0,0,0,0,0,0
				c0,0,0,0,0,0c0,0,0,0-0.1,0c-0.2,0-0.3,0.1-0.5,0.1c0,0,0,0,0,0c-0.2,0.1-0.4,0.1-0.5,0.2c-0.3,0.1-0.6,0.2-0.8,0.3
				c-0.6,0.2-1.3,0.5-1.9,0.7c-1.6,0.7-3.1,1.4-4.7,2.2c0,0,0.1,0,0.1,0c0,0-0.1,0-0.1,0c0,0,0.1,0,0.1,0c0,0-0.1,0-0.1,0.1
				c0,0,0,0,0,0c-1,0.5-1.9,1.1-2.8,1.7c-0.3,0.2-0.6,0.4-0.9,0.6c-0.3,0.2-0.7,0.4-1,0.7c0,0,0,0.1-0.1,0.1c-1.8,1.2-3.4,2.6-5,4
				c0,0,0,0,0,0c-0.7,0.6-1.3,1.2-2,1.9c0,0-0.1,0.1-0.1,0.1c0,0,0,0,0.1-0.1c0,0,0,0,0,0c0,0,0,0,0,0c0,0,0,0.1-0.1,0.1
				c-0.5,0.5-1,1.1-1.5,1.6c0,0,0,0,0,0c-0.1,0.1-0.1,0.1-0.2,0.2c-0.1,0.1-0.1,0.1-0.2,0.2c0,0,0,0,0,0c-0.2,0.2-0.4,0.5-0.6,0.7
				c-0.1,0.1-0.2,0.2-0.3,0.3c0,0,0,0,0,0c-0.1,0.1-0.2,0.2-0.3,0.3c0.4,0.8,0.8,1.5,1.2,2.3c0.4,0.8,0.8,1.5,1.2,2.3
				c0.8,1.6,1.7,3.3,2.5,5c1.6,3.3,3.1,6.6,4.5,9.9c0.6,1.4,1.2,2.8,1.7,4.3c0.6,1.4,1.1,2.9,1.6,4.4c0.5,1.3,1,2.6,1.4,4
				c0.2,0.7,0.5,1.4,0.7,2.1c0.2,0.7,0.4,1.5,0.5,2.2c0,0.2,0,0.4,0.1,0.6c-0.6-0.1-1.3-0.1-1.9-0.2c0,0,0,0,0,0h-0.2
				c-0.7,0-1.4,0.1-2.3,0.2c-1.6,0.2-3.2,0.6-5.1,1.2c-1.7,0.5-3.2,1.3-4.5,2.2c-0.6,0.4-1.2,0.9-1.7,1.5c-0.5,0.5-1,1.2-1.4,2
				c-0.2,0.4-0.3,0.9-0.5,1.3c-0.1,0.5-0.2,0.9-0.2,1.4c0,0.7,0.2,1.4,0.6,2.3c0.3,0.7,0.9,1.2,1.4,1.6c0.6,0.5,1.3,0.8,2.2,1
				c0.5,0.1,1.1,0.2,1.7,0.2c0.2,0,0.5,0,0.7,0c0.8-0.1,1.7-0.3,2.6-0.6c1.4-0.6,2.8-1.5,4.4-2.9c1.5-1.3,2.7-2.9,3.7-4.8
				c0.4-0.7,0.6-1.4,0.9-2.1c0-0.1,0.1-0.1,0.1-0.2c0-0.1,0.1-0.2,0.1-0.4c0,0,0,0,0,0c0,0,0,0,0,0c0,0,0,0,0-0.1
				c0.1-0.6,0.2-1.2,0.3-1.8c0-0.4,0.1-0.8,0.1-1.1c0-0.4,0-0.8,0-1.1c0,0,0,0,0,0c0-0.4,0-0.8-0.1-1.2c-0.2-1.8-0.6-3.5-1-5.2
				c-0.2-0.8-0.4-1.5-0.6-2.3c-0.2-0.9-0.5-1.9-0.8-2.8c-0.5-1.9-1.2-3.7-1.8-5.5c-1.3-3.6-2.9-7.1-4.6-10.6c-0.6-1.3-1.3-2.6-2-3.9
				c1.6-1.7,3.4-3.2,5.2-4.7c1-0.8,2-1.5,3.1-2.2c1.2-0.8,2.4-1.5,3.6-2.2c1.2-0.7,2.5-1.3,3.8-1.9c1.2-0.5,2.4-1.1,3.7-1.6
				c0.6-0.3,1.3-0.5,2-0.8c0.6,0.9,1.1,1.8,1.6,2.7c0.9,1.5,1.7,3.1,2.4,4.7c0.7,1.6,1.5,3.2,2.2,4.8c0.4,1.1,0.9,2.2,1.2,3.3
				c0.4,1.2,0.7,2.5,0.9,3.7c0,0.3,0,0.6,0.1,0.9l-0.9,0.1c-1.8,0.3-3.7,0.6-5.5,1c-1.8,0.5-3.7,1.3-5.7,2.5c-0.8,0.5-1.5,1-2.2,1.6
				c-0.3,0.3-0.6,0.6-0.9,0.9c-0.4,0.4-0.7,0.9-0.9,1.3c-0.4,0.7-0.7,1.6-0.7,2.6c-0.1,1,0.1,2,0.6,2.8c0.7,1.4,2.2,2.4,4,2.8
				c0.4,0.1,0.7,0.1,1.1,0.1c0.5,0,0.9,0,1.4-0.1c0.8-0.1,1.7-0.4,2.4-0.7c1.4-0.6,2.7-1.5,3.9-2.8c0.5-0.5,0.9-1.1,1.4-1.9
				c0.5-0.7,0.9-1.5,1.2-2.2c0.4-0.7,0.7-1.5,1-2.5c0,0,0-0.1,0-0.1c0.1-0.3,0.2-0.6,0.3-1c0-0.1,0.1-0.2,0.1-0.4
				c0.2-0.5,0.3-1,0.4-1.5c0-0.1,0.1-0.2,0.1-0.4c0.1-0.6,0.2-1.1,0.2-1.7C158.9,103.5,158.7,102.2,158.6,100.9z"/>
		</g>
		<path class="st0" d="M63.8,93.3c-0.6-1.3-1.7-2.3-3-3.1c-0.8-0.5-1.8-0.8-2.9-0.8c-0.3,0-0.5,0-0.7,0c-1.3,0.2-2.7,0.8-4.2,1.8
			c-0.7,0.5-1.4,1.1-2,1.7c-0.6,0.6-1.2,1.2-1.8,2c-1.1,1.3-2,2.8-2.8,4.4c-0.6,1.2-1,2.2-1.2,3.3c0,0.1,0,0.3,0,0.4
			c0.1,0.3,0.1,0.7,0.2,1c0.1,0.4,0.2,0.9,0.3,1.3c0.7,2.7,1.5,5.7,2.4,8.6c0.5,1.6,1,3.3,1.6,4.9l0.3,0.8l0.2,0.6l0.1,0.3
			c0.1,0.3,0.2,0.5,0.3,0.8c0.2,0.6,0.5,1.2,0.7,1.8l0.3,0.7c0.5,1.3,1.1,2.8,1.6,4c0.6,1.4,1.2,2.8,1.9,4.2
			c0.4,0.9,0.9,1.7,1.4,2.6c-2.7,0.9-5,1.9-7.4,3c-1.8,0.8-3.6,1.7-5.6,2.7l-0.5-0.8l-0.2-0.3l-1.8-2.8c-0.3-0.5-0.6-1-0.9-1.5
			l-0.2-0.2l-0.1-0.2l-0.4-0.6c-0.6-0.9-1.1-1.8-1.6-2.9c-1-1.9-1.9-3.8-2.7-5.8l-0.1-0.2c-0.4-1-0.7-2-1-3c0.2,0,0.4,0,0.6,0
			c0.4,0,0.8,0,1.1-0.1c0.7-0.1,1.3-0.2,1.9-0.4c1.1-0.3,2.3-0.8,3.8-1.6c1.2-0.7,2.4-1.6,3.5-2.6c0.4-0.4,0.8-0.9,1.2-1.5
			c0.2-0.3,0.4-0.6,0.5-0.8c0.2-0.3,0.3-0.7,0.4-1c0.2-0.5,0.2-1.1,0.2-1.7c-0.1-0.6-0.3-1.3-0.7-1.9c-0.3-0.5-0.8-1-1.4-1.6
			c-0.6-0.5-1.2-0.8-1.9-1.1c-0.6-0.2-1.2-0.3-1.8-0.3c-0.5,0-1.2,0.1-1.8,0.4c-1.1,0.4-2.1,1.1-3.2,2.2c-0.8,0.8-1.5,1.8-2,2.6
			c-0.6,0.9-1.1,1.9-1.5,3.1c-0.4,1.2-0.7,2.2-0.8,3.2c0,0.4,0,0.8,0.1,1.2c0,0.2,0,0.5,0.1,0.7c0.1,0.4,0.2,0.7,0.3,1.1
			c0,0,0,0,0,0c0.6,2.3,1.4,4.5,2.2,6.8l0.2,0.6c0.1,0.4,0.3,0.8,0.5,1.2c0.2,0.4,0.3,0.8,0.5,1.2l0.2,0.6c0.5,1.2,1,2.4,1.5,3.5
			c1,2.1,2,4.2,3,6.1c-2.7,1.5-5.3,3.2-7.8,5c-1.2,0.9-2.4,1.9-3.7,2.9c-0.6,0.5-1.2,1.1-1.8,1.7l-0.3,0.3l-0.5,0.5l-0.4-0.6
			l-0.5-0.7l-0.2-0.2l-0.2-0.2c-0.5-0.7-1-1.4-1.5-2.2l-0.4-0.6c-0.3-0.6-0.7-1.1-1-1.7c-0.8-1.4-1.5-3-2.3-4.9
			c-1.1-2.9-1.9-5.9-2.6-9.1c0.1,0.1,0.3,0.1,0.5,0.1c0.6,0,1.4-0.1,2.2-0.2c0.6-0.1,1.3-0.2,2-0.4c0.7-0.1,1.4-0.3,2.1-0.6
			c0.6-0.2,1.2-0.4,1.8-0.8c0.8-0.4,1.3-0.7,1.9-1.1c0.8-0.6,1.8-1.6,2.4-3c0.1-0.3,0.2-0.6,0.3-0.9c0.1-0.3,0.1-0.7,0.1-1
			c0-0.3,0-0.6-0.1-0.9c-0.1-0.4-0.2-0.8-0.3-1.2c-0.3-0.8-0.7-1.4-1.3-2c-0.5-0.5-1.2-0.8-2-1c-0.3-0.1-0.7-0.1-1-0.1
			c-0.1,0-0.1,0-0.2,0c-0.3,0-0.6,0-0.9,0.1c-0.7,0.1-1.5,0.4-2.2,0.7c-1.4,0.6-2.7,1.7-3.8,3.2c-0.9,1.2-1.6,2.6-2.1,4
			c-0.4,1-0.6,2.1-0.7,3.2c0,0,0,0,0,0c0,0.7,0.1,1.4,0.2,2.1c0.4,2.3,0.9,4.5,1.4,6.6c0.3,1.1,0.6,2.2,0.9,3.3l0.1,0.5
			c0.2,0.8,0.5,1.7,0.8,2.5l0.1,0.3l0.3,0.9c0.4,1.2,0.9,2.5,1.4,3.8c0.7,1.4,1.2,2.5,1.7,3.5c0.6,1.1,1.3,2.2,2.3,3.5
			c0.4,0.5,0.8,1,1.3,1.4c0.5,0.5,1.1,1,1.7,1.4c1.1-1.2,2.3-2.3,3.5-3.4c3.2-2.9,6.5-5.5,10.1-7.8c3.5-2.3,7.2-4.4,11-6.2
			c3.1-1.4,6.2-2.7,9.5-3.7c0,0,0-0.1,0-0.1c-0.4-1.1-0.9-2.1-1.5-3c-0.6-1-1.2-2-1.8-3.1c-1.2-2.1-2.4-4-3.4-5.9
			c-1-1.8-2.1-3.8-3.1-6c-1.2-2.5-2.1-4.5-2.8-6.5c-1.4-3.6-2.4-6.7-3.2-9.5l0.1,0.1l0.4,0.1c0.5,0.2,1,0.3,1.6,0.5
			c0.6,0.2,1.3,0.2,1.9,0.2c0.2,0,0.4,0,0.5,0c0.6,0,1.2-0.2,1.8-0.3c0.6-0.1,1.2-0.3,1.9-0.6c1.3-0.5,2.6-1.1,4-1.9
			c1.2-0.7,2.4-1.6,3.4-2.7c0.4-0.4,0.8-1,1.2-1.6c0.3-0.5,0.6-1.1,0.8-1.8c0.2-0.5,0.2-1.1,0.2-1.7C64.3,94.5,64.1,93.9,63.8,93.3z
			"/>
	</g>
</g>
</svg>
