<?xml version="1.0" encoding="utf-8"?>
<!-- Generator: Adobe Illustrator 22.0.0, SVG Export Plug-In . SVG Version: 6.00 Build 0)  -->
<svg version="1.1" id="Layer_1" xmlns="http://www.w3.org/2000/svg" xmlns:xlink="http://www.w3.org/1999/xlink" x="0px" y="0px"
	 width="210px" height="210px" viewBox="0 0 210 210" style="enable-background:new 0 0 210 210;" xml:space="preserve">
<style type="text/css">
	.st0{fill:#353635;}
	.st1{fill:#D5A93D;}
	.st2{fill:#C8962C;}
</style>
<g>
	<path class="st0" d="M152.1,83.7c-0.1,0-0.3,0-0.4,0c-0.2,0.1-0.3,0.2-0.4,0.3c-0.1,0.2-0.1,0.4-0.1,0.6c0.1,0.2,0.1,0.5,0.2,0.7
		c0,0,0,0,0,0c0,0,0,0,0,0c0,0,0,0,0,0c0,0,0,0,0,0c0,0,0,0,0,0c0,0,0,0,0,0c0,0,0,0,0,0c0,0,0,0,0,0c0,0.3,0,0.6,0,0.8
		c0,0.3-0.1,0.6-0.2,0.9c-0.1,0.3-0.3,0.6-0.5,0.9c-0.2,0.2-0.4,0.5-0.6,0.7c-0.1,0-0.2,0-0.2,0c-0.2,0-0.4-0.1-0.7-0.1l-0.2-0.1
		l-0.2-0.1c-0.2,0-0.3-0.1-0.5-0.1l-0.2-0.1c-0.4-0.1-0.8-0.2-1.2-0.3c-2.5-0.6-5.1-1.1-7.6-1.7l-4-0.9c-1.3-0.3-2.7-0.6-4-0.9
		c-1-0.2-1.9-0.4-2.9-0.6l-1.2-0.2l-1-0.2c-0.5-0.1-0.9-0.2-1.4-0.3c-0.2,0-0.3-0.1-0.5-0.1l-0.2,0c-0.2,0-0.3-0.1-0.5-0.1l-0.3-0.1
		l-0.3-0.1c0-0.1-0.1-0.3-0.1-0.4c0-0.3-0.1-0.7,0-1c0-0.4,0.1-0.7,0.2-1.1c0.1-0.3,0.2-0.5,0.4-0.7c0.2-0.2,0.3-0.4,0.5-0.6
		c0.2-0.2,0.2-0.6,0.1-0.9c-0.1-0.2-0.3-0.3-0.4-0.3c-0.2,0-0.4,0-0.5,0.1c-0.2,0.1-0.4,0.3-0.6,0.4c-0.1,0.1-0.3,0.3-0.4,0.5
		c-0.2,0.3-0.3,0.6-0.4,0.8c-0.1,0.2-0.2,0.5-0.2,0.8c-0.1,0.5-0.1,1-0.1,1.6c0,0.5,0.2,1.1,0.4,1.6c0.1,0.1,0.1,0.2,0.2,0.3
		c0.1,0.2,0.3,0.4,0.5,0.4c0.6,0.1,1.3,0.3,1.9,0.5l0.4,0.1l0.4,0.1c0.5,0.1,1,0.3,1.5,0.4l0.7,0.2c1.2,0.3,2.3,0.6,3.5,0.8l0.8,0.2
		l0.8,0.2c-0.3,1.2-0.6,2.4-0.9,3.7l-0.4,1.8c-0.2,0.8-0.3,1.5-0.5,2.2c0,0.1-0.1,0.2-0.1,0.4c0,0.2,0,0.4,0.1,0.5
		c0.1,0.1,0.2,0.2,0.3,0.2c0.1,0,0.3,0,0.4-0.1c0.1-0.1,0.2-0.2,0.2-0.3c0.2,0.1,0.5,0.2,0.7,0.3c0.3,0.1,0.7,0.2,1,0.3l0.6,0.2
		l0.2,0.1c0.7,0.2,1.3,0.4,2,0.6c0.3,0.1,0.5,0.1,0.8,0.1c0,0,0,0,0,0c0.1,0,0.3,0,0.4,0c0.1,0,0.1,0,0.1-0.1c0,0.1,0.1,0.2,0.2,0.3
		c0.1,0.1,0.2,0.1,0.3,0.2s0.2,0,0.3,0c0.2-0.1,0.3-0.2,0.4-0.4c0.1-0.1,0.1-0.2,0.2-0.3c0.1-0.2,0.1-0.4,0.1-0.5l0.1-0.3
		c0.2-0.7,0.3-1.4,0.4-2.1l0.3-1.4c0.2-1.2,0.5-2.4,0.7-3.6l2.4,0.5c0.7,0.2,1.4,0.3,2.1,0.4l1.5,0.3c0.4,0.1,0.8,0.2,1.2,0.2l0.3,0
		c0.1,0,0.3,0,0.4,0.1l0.3,0l0,0c0.3,0.1,0.6,0.1,0.9,0.2l0.2,0.1c0.2,0,0.4,0,0.5,0c0.2-0.1,0.3-0.2,0.4-0.3
		c0.5-0.3,0.9-0.7,1.2-1.1c0.3-0.4,0.6-0.9,0.8-1.5c0.2-0.5,0.3-1.1,0.3-1.7c0-0.3,0-0.5-0.1-0.8c-0.1-0.3-0.2-0.6-0.4-1
		C152.5,83.9,152.3,83.8,152.1,83.7L152.1,83.7L152.1,83.7z"/>
	<path class="st0" d="M125.7,80.6c-0.4,0.3-0.8,0.5-1.2,0.8c-0.2,0.1-0.2,0.3-0.1,0.5c0.1,0.2,0.4,0.2,0.5,0.1
		c0.4-0.3,0.8-0.6,1.2-0.8c0.2-0.1,0.2-0.3,0.1-0.5c-0.1-0.1-0.1-0.1-0.2-0.2C125.9,80.5,125.8,80.5,125.7,80.6L125.7,80.6
		L125.7,80.6z"/>
	<path class="st0" d="M127.4,80.5c-0.6,0.4-1.1,0.8-1.7,1.3c-0.2,0.1-0.2,0.3-0.1,0.5c0.1,0.2,0.4,0.2,0.5,0.1
		c0.6-0.4,1.1-0.8,1.7-1.3c0.2-0.1,0.2-0.3,0.1-0.5c-0.1-0.1-0.1-0.1-0.2-0.2C127.6,80.4,127.5,80.5,127.4,80.5L127.4,80.5
		L127.4,80.5z"/>
	<path class="st0" d="M129.3,80.6c-0.1,0-0.2,0-0.3,0.1c-0.6,0.5-1.1,0.9-1.7,1.4c-0.2,0.1-0.2,0.3-0.1,0.5c0.1,0.2,0.4,0.2,0.5,0.1
		c0.6-0.4,1.1-0.9,1.7-1.4c0.1-0.1,0.1-0.1,0.2-0.2c0-0.1,0-0.2-0.1-0.3C129.5,80.7,129.4,80.7,129.3,80.6
		C129.3,80.6,129.3,80.6,129.3,80.6L129.3,80.6L129.3,80.6z"/>
	<path class="st0" d="M142.3,49c-3.1,2.2-6,4.6-9.1,6.8c-0.2,0.1-0.2,0.3-0.1,0.5c0.1,0.2,0.4,0.2,0.5,0.1c3.1-2.2,6-4.6,9.1-6.8
		c0.2-0.1,0.2-0.3,0.1-0.5c-0.1-0.1-0.1-0.1-0.2-0.2C142.5,49,142.4,49,142.3,49L142.3,49L142.3,49z"/>
	<path class="st0" d="M144.6,49.5c-1.4,1.1-2.8,2.2-4.3,3.2c-0.2,0.1-0.2,0.3-0.1,0.5c0.1,0.2,0.4,0.2,0.5,0.1c1.5-1,2.9-2,4.3-3.2
		c0.1-0.1,0.1-0.1,0.2-0.2c0-0.1,0-0.2-0.1-0.3c-0.1-0.1-0.1-0.1-0.2-0.2C144.8,49.4,144.7,49.4,144.6,49.5L144.6,49.5L144.6,49.5z"
		/>
	<path class="st0" d="M141.6,53.7c-1.7,1.3-3.5,2.5-5.1,3.9c-0.8,0.6-1.6,1.3-2.4,2c-0.8,0.7-1.6,1.4-2.4,2.2
		c-0.2,0.2-0.1,0.5,0,0.7c0.1,0.1,0.2,0.1,0.3,0.1c0.1,0,0.2-0.1,0.3-0.2c0.7-0.6,1.3-1.2,2-1.8c2.4-2.2,5-4.2,7.6-6.1
		c0.2-0.1,0.3-0.4,0.1-0.6c-0.1-0.1-0.2-0.2-0.3-0.2C141.8,53.6,141.7,53.6,141.6,53.7L141.6,53.7L141.6,53.7z M134.5,60.4
		C134.5,60.4,134.5,60.4,134.5,60.4C134.5,60.4,134.5,60.4,134.5,60.4L134.5,60.4L134.5,60.4z"/>
	<path class="st0" d="M140.3,57.3c-1,0.8-2.1,1.7-3.1,2.5c-0.1,0.1-0.1,0.1-0.2,0.3c0,0.1,0,0.2,0.1,0.3c0.1,0.2,0.4,0.2,0.6,0.1
		c1-0.8,2.1-1.7,3.1-2.5c0.1-0.1,0.1-0.1,0.2-0.2c0-0.1,0-0.2-0.1-0.3c-0.1-0.1-0.2-0.1-0.3-0.2C140.5,57.2,140.3,57.2,140.3,57.3
		L140.3,57.3L140.3,57.3z"/>
	<path class="st0" d="M145.9,54.8c-0.1,0-0.2,0.1-0.3,0.1c-0.1,0.1-0.1,0.1-0.2,0.2c0,0,0,0,0,0c-1.4,1.2-2.8,2.4-4.3,3.6
		c-0.1,0.1-0.2,0.2-0.2,0.3c0,0.1,0,0.2,0.1,0.3c0.1,0.1,0.2,0.2,0.3,0.2c0.1,0,0.3,0,0.3-0.1c1.5-1.3,3.1-2.6,4.6-4
		c0.1-0.1,0.1-0.2,0.1-0.3c0-0.1-0.1-0.2-0.1-0.3c-0.1,0-0.1-0.1-0.2-0.1C146,54.8,145.9,54.8,145.9,54.8L145.9,54.8L145.9,54.8z
		 M145.5,55C145.5,55,145.5,55,145.5,55C145.5,55,145.5,55,145.5,55L145.5,55L145.5,55z"/>
	<path class="st0" d="M149,57.5c-2.4,1.9-4.8,3.8-7.2,5.7c-1.2,1-2.5,1.9-3.8,2.9c-0.6,0.4-1.2,0.8-1.8,1.3
		c-0.7,0.5-1.4,0.9-2.1,1.4c-0.2,0.1-0.3,0.3-0.3,0.5c0,0.2,0,0.4,0.1,0.5c0.1,0.2,0.3,0.3,0.5,0.3c0.2,0,0.4,0,0.5-0.1
		c0.6-0.4,1.2-0.8,1.8-1.3c0.6-0.5,1.2-0.9,1.8-1.4c1.2-1,2.5-2,3.7-3c2.4-2,4.8-4.1,7.3-6.1c0.2-0.1,0.2-0.3,0.1-0.5
		c-0.1-0.1-0.1-0.1-0.2-0.2C149.2,57.4,149,57.4,149,57.5L149,57.5L149,57.5z"/>
	<path class="st0" d="M57.7,66.2c-1.1-0.3-2.3-0.5-3.4-0.7c-0.8-0.2-1.5-0.3-2.3-0.5c-0.9-0.2-1.8-0.4-2.7-0.6c-0.2,0-0.4,0-0.6,0.1
		c-0.2,0.1-0.3,0.3-0.3,0.5c-0.1,0.4-0.2,0.8-0.2,1.2c0,0.3-0.1,0.7-0.2,1l-0.1,0.3l-0.1,0.7c-0.1,0.7-0.2,1.3-0.4,1.9
		c-0.4,1.9-0.7,3.8-1.2,5.8c-0.1,0.3,0.1,0.5,0.4,0.6c0.3,0.1,0.5-0.1,0.6-0.4c0.1,0.1,0.2,0.1,0.3,0.2l2.2,0.5
		c2,0.4,4.1,0.9,6.1,1.3l1.6,0.4c1.7,0.4,3.4,0.8,5.1,1.2c0.9,0.2,1.7,0.4,2.5,0.6l0.2,0.1l0.2,0.1c0.5,0.1,1.1,0.2,1.6,0.3
		c-0.1,0.4,0.1,0.7,0.5,0.8c0.3,0.1,0.7-0.1,0.8-0.5c0.3-1.1,0.5-2.3,0.8-3.4l0.2-1.1l0.2-1c0.1-0.7,0.3-1.4,0.4-2l0.3-1.3
		c0.2-0.7,0.3-1.3,0.5-2c0.1-0.4-0.2-0.8-0.6-0.9l-0.4-0.1c-0.3-0.1-0.6-0.1-0.8-0.2c-0.3-0.1-0.6-0.2-0.9-0.2l-0.3-0.1
		c-0.9-0.2-1.7-0.4-2.5-0.6l-2.9-0.7l-2.9-0.7C59,66.5,58.3,66.4,57.7,66.2L57.7,66.2L57.7,66.2z"/>
	<path class="st1" d="M19.9,54.1c-0.2,0-0.5-0.1-0.7,0c-0.3,0-0.7,0.2-0.9,0.5c-0.3,0.3-0.4,0.6-0.6,1c-0.2,0.5-0.3,1.1-0.2,1.6
		c0,1,0.4,2,1.1,3.1c0.6,1,1.4,1.9,2.5,2.9c1,0.9,2.1,1.8,3.5,2.8c1.7,1.2,3.6,2.4,6.1,3.8c0,0,0.1,0.1,0.1,0.1c0.2,0,0.3,0,0.4-0.1
		c0.1-0.1,0.1-0.2,0.1-0.3c0-0.1,0-0.2,0-0.2c-1-1.7-2.1-3.5-3.4-5.6c-0.4-0.7-0.8-1.4-1.3-2.1c-0.6-1-1.3-2-2-2.9
		c-0.8-1.1-1.5-1.9-2.2-2.7c-0.6-0.6-1.3-1.3-2.2-1.6C20.1,54.1,20,54.1,19.9,54.1L19.9,54.1L19.9,54.1z"/>
	<path class="st0" d="M29.3,41.3C29.3,41.3,29.3,41.3,29.3,41.3L29.3,41.3c-0.3-0.1-0.6-0.1-0.9-0.1c-0.3,0-0.6,0.1-1,0.2
		c-0.3,0.1-0.6,0.3-0.9,0.5c-0.3,0.2-0.6,0.6-0.7,0.8c-0.7,1.2-0.6,2.8-0.3,4c0.2,1.2,0.6,2.4,1.2,3.8c1.4,3.2,3.5,5.9,5.4,8.1
		c0.7,0.8,1.5,1.7,2.2,2.5c1.5,1.7,3,3.4,4.4,5.2c0,0.1,0.1,0.1,0.2,0.1c0.1,0,0.3,0,0.3-0.1c0.1,0,0.1-0.1,0.1-0.2
		c0.2-0.1,0.4-0.3,0.3-0.6c-0.1-0.3-0.1-0.5-0.2-0.8c-0.1-0.3-0.1-0.5-0.2-0.8c-0.1-0.5-0.3-1.1-0.4-1.6c-0.3-1.2-0.6-2.4-1-3.5
		c-0.6-2.3-1.3-4.5-2.1-6.7c-0.2-0.6-0.4-1.2-0.6-1.7L35,49.6c-0.2-0.6-0.4-1.2-0.7-1.8c-0.3-0.7-0.5-1.3-0.8-2
		c-0.3-0.7-0.7-1.4-1.2-2.1c-0.2-0.3-0.4-0.6-0.6-0.8c-0.2-0.3-0.5-0.5-0.7-0.7C30.5,41.8,29.9,41.4,29.3,41.3L29.3,41.3L29.3,41.3z
		"/>
	<path class="st1" d="M178.4,103.7c-0.2,0-0.5-0.1-0.7-0.1c-0.6,0-1.3,0.1-2.1,0.3c-0.8,0.2-1.5,0.6-2.5,1.1c-0.8,0.4-1.6,1-2.6,1.7
		c-0.8,0.6-1.6,1.2-2.6,2.1c-1.5,1.3-3,2.8-4.7,4.5c-0.9,1-1.9,2-2.8,3.1c-0.2,0.1-0.3,0.2-0.3,0.3c0,0.1,0,0.3,0,0.4
		c0.1,0.1,0.2,0.2,0.3,0.2c0.1,0,0.2,0,0.3,0c1.2-0.6,2.3-1.1,3.5-1.7c0.5-0.2,0.9-0.4,1.4-0.6l0.7-0.2c1.6-0.6,3.1-1.1,4.7-1.7
		c1.2-0.5,2.3-1,3.4-1.5c1.2-0.6,2.2-1.1,3.1-1.7c0.6-0.4,1.5-1,2.3-1.8c0.3-0.3,0.5-0.6,0.7-0.9c0.2-0.3,0.3-0.6,0.3-1
		c0-0.3,0-0.6-0.1-0.9c-0.1-0.3-0.3-0.6-0.6-0.9c-0.3-0.3-0.6-0.5-1-0.7C178.8,103.8,178.6,103.8,178.4,103.7L178.4,103.7
		L178.4,103.7z"/>
	<path class="st0" d="M191.9,116.5c-0.4-0.1-0.9-0.2-1.3-0.2c-0.8-0.1-1.7-0.1-2.9-0.1c-1,0-2.1,0.1-3.4,0.2
		c-2.1,0.2-4.3,0.6-7.1,1.1c-2.1,0.4-4.4,0.9-7,1.6c-0.8,0.2-1.6,0.4-2.4,0.6l-0.3,0.1c-0.4,0.1-0.7,0.2-1.1,0.3
		c-0.2,0-0.4,0.3-0.5,0.5c0,0.1,0,0.1,0,0.2c0,0.3,0.2,0.5,0.5,0.6c1.1,0.1,2.1,0.3,3.2,0.5c1.2,0.2,2.2,0.5,3.3,0.7
		c0.7,0.2,1.4,0.3,2.2,0.5c3,0.6,5.4,1,7.7,1.3c2.1,0.2,4.8,0.5,7.5,0.1c1.1-0.1,2-0.4,2.8-0.8c0.8-0.4,1.4-0.9,1.8-1.6
		c0.2-0.3,0.3-0.6,0.4-1.1c0.1-0.4,0.1-0.8,0.1-1.1c0-0.7-0.3-1.3-0.7-1.8c-0.4-0.4-0.9-0.8-1.7-1.1
		C192.6,116.7,192.3,116.6,191.9,116.5L191.9,116.5L191.9,116.5z"/>
	<path class="st0" d="M155.4,40.6c-2.7-0.6-5.4-1.1-8.1-1.6l-0.4-0.1c-1.8-0.3-3.7-0.7-5.5-1.1l-0.5-0.1l-1.5-0.4
		c-0.8-0.2-1.5-0.4-2.3-0.5c0,0,0,0,0,0c-0.8-0.2-1.5-0.3-2.3-0.4c-0.5-0.1-1-0.2-1.5-0.3c-2.9-0.6-5.8,1.2-6.4,4.1
		c-0.2,0.9-0.3,1.8-0.5,2.6l-0.2,1c-0.2,1.2-0.5,2.5-0.8,3.7l-0.2,1.1c-0.5,2.3-1.1,4.7-1.7,7c-1.1,4.1-2,8.4-2.8,12.5
		c-0.4,1.5-0.8,2.9-1.1,4.4c-0.3,1.4-0.1,2.9,0.7,4.2c0.8,1.2,1.8,1.9,3.5,2.4c0.7,0.2,1.5,0.4,2.2,0.6c0.5,0.1,1,0.2,1.5,0.3
		c0.5,0.1,1,0.2,1.5,0.3l3.3,0.7l3.3,0.7l0.4,0.1c2.9,0.6,5.7,1.2,8.6,1.8c2,0.4,4,0.8,6,1.2c2.9,0.6,5.9-1.2,6.5-4.1
		c0.4-2,0.8-4,1.2-6.1c0.4-2.2,0.8-4.4,1.3-6.5c0.4-1.4,0.7-2.8,1.1-4.1l0.7-2.7c0.4-1.6,0.8-3.2,1.3-4.8c0.4-1.5,0.7-2.9,1-4.3
		c0.3-1.2,0.6-2.5,0.9-3.8c0.3-1.5,0.1-3-0.8-4.3c-0.8-1.3-2.2-2.3-3.6-2.6c-0.4-0.1-0.8-0.2-1.2-0.3c-0.4-0.1-0.9-0.2-1.3-0.3
		C156.8,40.8,156.1,40.7,155.4,40.6L155.4,40.6L155.4,40.6z M124.2,74.6c1.2-5.6,2.5-11.3,3.7-16.9c1.2-5.5,2.4-11,3.6-16.4
		c0.1-0.3,0.3-0.4,0.6-0.4c4.8,1.1,9.6,2.1,14.4,3.2c2.2,0.5,4.4,1,6.6,1.5c0.6,0.1,1.1,0.3,1.7,0.4c0.3,0,0.5,0.1,0.8,0.1
		c0.5,0.1,0.9,0.2,1.4,0.3c0.9,0.2,1.9,0.4,2.8,0.6c0.2,0.1,0.4,0.3,0.3,0.5c-1.2,5.6-2.5,11.3-3.8,16.9c-0.6,2.8-1.2,5.5-1.8,8.3
		c-0.1,0.6-0.3,1.3-0.4,1.9c-0.1,0.6-0.3,1.3-0.4,1.9c-0.3,1.5-0.6,2.9-1,4.4c0,0.2-0.3,0.4-0.5,0.3c-4.6-1-9.3-2-14-3
		c-4.6-1-9.2-2-13.8-3C124.3,75.1,124.2,74.9,124.2,74.6L124.2,74.6L124.2,74.6z"/>
	<path class="st1" d="M135.7,44.4c-0.6-0.1-1.2-0.3-1.8-0.4c-0.5-0.1-1,0.2-1.1,0.7c-1,4.6-2,9.1-3.1,13.7c-0.5,2.2-1,4.5-1.5,6.7
		c-0.5,2.4-1,4.8-1.6,7.3c-0.1,0.5,0.2,1,0.7,1.1c3.6,0.8,7.2,1.6,10.9,2.4c4,0.9,8.1,1.7,12.1,2.6c0.4,0.1,0.9-0.2,1-0.6
		c0.2-1.1,0.5-2.2,0.7-3.4c0.2-0.9,0.4-1.7,0.5-2.6c0.6-2.5,1.2-5,1.7-7.6c0.5-2.3,1-4.6,1.5-6.9c0.5-2.4,1.1-4.8,1.6-7.2
		c0.1-0.5-0.2-0.9-0.6-1c-3.9-0.9-7.8-1.8-11.7-2.6c-0.9-0.2-1.8-0.4-2.6-0.6C140.3,45.4,138,44.9,135.7,44.4L135.7,44.4L135.7,44.4
		z M144.5,48.2c3.7,0.8,7.4,1.6,11.2,2.4c-0.4,2-0.9,4.1-1.3,6.1c-0.5,2.4-1.1,4.8-1.6,7.2c-0.5,2.4-1,4.9-1.6,7.3
		c-0.2,0.9-0.4,1.8-0.6,2.7c-0.2,0.9-0.4,1.8-0.6,2.7c-3.7-0.8-7.4-1.7-11-2.5c-3.4-0.8-6.8-1.5-10.2-2.3c0.5-2,0.9-4.1,1.4-6.1
		c0.5-2.2,1-4.5,1.5-6.7c0.9-4.3,1.9-8.7,2.8-13c0.3,0.1,0.6,0.1,0.9,0.2c2.3,0.5,4.6,1.1,6.9,1.6C143,47.8,143.7,48,144.5,48.2
		L144.5,48.2L144.5,48.2z"/>
	<path class="st0" d="M34.9,72.5c-0.6-0.1-1.2,0.3-1.4,0.9c-0.3,1.4-0.6,2.7-0.9,4.1l-0.4,1.7c-0.5,2.1-0.9,4.3-1.4,6.4l-0.2,1
		c-0.5,2.1-1.1,4.2-1.6,6.3l-1.2,4.8c-1.8,7.2-3.6,14.9-5.9,25c-1,4.4-2,8.8-2.9,13.2l-1,4.9c-0.6,2.9-1.3,5.9-1.9,8.8
		c-0.1,0.4,0,0.8,0.2,1.1c0.2,0.3,0.6,0.6,0.9,0.7l2.2,0.5c1.3,0.3,2.6,0.6,3.8,0.8c2,0.4,4.1,0.9,6.1,1.3c1.1,0.2,2.2,0.5,3.3,0.7
		c3.2,0.7,6.5,1.4,9.7,2.2c4,0.9,8,1.8,12,2.8c4.8,1.1,9.6,2.2,14.4,3.3c6.8,1.5,13.6,3.1,20.4,4.6l6.1,1.3
		c4.8,1.1,9.7,2.1,14.5,3.2c3.9,0.9,7.9,1.7,11.8,2.6c3.4,0.8,6.8,1.5,10.2,2.3l0.4,0.1l0.4,0.1l0.4,0.1l0.3,0.1l0.3,0.1
		c0.9,0.2,1.8,0.4,2.7,0.6c0.5,0.1,0.9,0.2,1.4,0.4l0.6,0.1l0.8,0.2c1.1,0.2,2.1,0.5,3.2,0.7c0.8,0.2,1.5-0.3,1.7-1.1l0.3-1.4
		c0.4-1.8,0.8-3.7,1.3-5.5c0.5-2.2,1-4.3,1.5-6.5l0.8-3.6c0.7-2.8,1.3-5.5,2-8.3c2-8.7,3.9-17.6,5.8-26.2l0.3-1.6
		c1.6-7.7,3.3-15.6,5.1-23.3c0.2-0.7-0.3-1.5-1-1.6c-1.5-0.3-3.1-0.7-4.7-1c-3.4-0.8-6.8-1.5-10.2-2.2c-3.4-0.7-6.8-1.5-10.2-2.2
		c-7.6-1.7-15.3-3.4-22.9-5.1c-0.2,1.2-0.5,2.4-0.8,3.6c-0.5,2.2-1,4.4-1.5,6.6c-0.1,0.5-0.2,1.1-0.3,1.6c0.9,0.7,1.7,1.4,2.5,2.2
		c1.2,1.1,2.2,2.4,3.2,3.7c0.7,1,1.4,2.1,1.9,3.2c0.2-0.8,0.3-1.5,0.5-2.3l0.8-3.7l0.8-3.7l0.5-2.3c0.3-1.5,0.7-3.1,1-4.6
		c6.6,1.5,13.2,3,19.8,4.5l2,0.5c5.3,1.2,10.6,2.5,15.9,3.6c-1.7,7.4-3.4,14.8-5.2,22.2l-0.4,1.8c-1,4.3-2,8.7-3,13l-0.4,1.8
		c-0.9,3.8-1.8,7.6-2.6,11.5l-1.2,5.8l-1.2,5.8c-0.4,2.1-0.9,4.2-1.3,6.3c-0.4,1.9-0.8,3.7-1.2,5.5l-1-0.2l-1-0.2l-0.6-0.1
		c-1-0.2-1.9-0.4-2.9-0.6l-0.7-0.1l-1-0.2l-1-0.2c-1.1-0.3-2.2-0.5-3.3-0.7c-4.1-0.9-8.3-1.9-12.4-2.8c-4.5-1-8.9-2-13.4-3
		c0.2-0.7,0.4-1.4,0.5-2.1c0.4-1.7,0.8-3.4,1.2-5.1c0.6-2.7,1.2-5.3,1.8-8c-3.7,2.9-7.9,5-12.4,6.3c-1.9,0.5-3.8,0.9-5.7,1
		c-1.9,0.2-3.8,0.2-5.7,0c-1.9-0.2-3.7-0.5-5.5-1.1c-2.1-0.6-4.1-1.5-6-2.6c-1.9-1.1-3.7-2.3-5.5-3.6c-1.6-1.2-3.1-2.5-4.5-3.9
		c-0.6-0.6-1.3-1.2-1.9-1.9c-0.6-0.7-1.2-1.3-1.7-2c-0.2-0.2-0.3-0.4-0.5-0.7c-0.2,0.7-0.3,1.4-0.5,2.1c-0.5,2.1-0.9,4.2-1.4,6.3
		l-0.3,1.5l-0.3,1.5l-0.1,0.6l-0.1,0.6l0,0.3c-3.9-0.8-7.8-1.7-11.7-2.6c-1.8-0.4-3.7-0.8-5.5-1.2c-3.4-0.8-6.8-1.5-10.2-2.3
		c-1.7-0.4-3.4-0.8-5.1-1.2c-1.2-0.3-2.5-0.6-3.8-0.9c0.7-3.2,1.5-6.3,2.2-9.5l0.5-1.9c1-4.2,1.9-8.4,2.9-12.6
		c2.3-10.2,3.9-18,5.4-25.4c0.5-2.4,0.9-4.7,1.4-7.1l1.1-5.4l0.1-0.5l0.1-0.5c0.5-2.1,1-4.3,1.5-6.4l0.5-2c0.2-0.9,0.4-1.8,0.6-2.6
		l4.4,1c6.7,1.5,13.4,3.1,20.1,4.6c4,0.9,8,1.8,12,2.7c-0.6,2.5-1.1,5-1.7,7.5l-0.8,3.7c-0.3,1.5-0.7,3-1,4.5
		c0.9-0.6,1.8-1.1,2.7-1.6c2.5-1.3,5.1-2.3,7.8-2.9c0.2,0,0.4-0.1,0.6-0.1c0.1-0.7,0.3-1.5,0.4-2.2c0,0,0-0.1,0-0.1
		c0.4-1.6,0.8-3.3,1.2-4.9c0.2-0.9,0.4-1.8,0.7-2.7c0.1-0.4,0.2-0.9,0.3-1.3c-0.6-0.1-1.2-0.3-1.9-0.4c-8.6-1.9-17.2-3.9-25.7-5.8
		c-4.7-1.1-9.4-2.1-14.1-3.1L34.9,72.5L34.9,72.5L34.9,72.5z"/>
	<path class="st0" d="M63.7,88.5c-5.2-1.1-10.5-2.2-15.7-3.3c-2.7-0.6-5.3-1.1-8-1.7c-2.4-0.5-4.7-1-7.1-1.5c-0.4-0.1-0.9,0.2-1,0.6
		c-0.1,0.4,0.2,0.9,0.6,1c3.7,0.8,7.5,1.7,11.2,2.6c4.1,0.9,8.2,1.8,12.4,2.8c8,1.9,16.1,3.7,24.1,5.5c0-0.1,0.1-0.3,0.1-0.4
		c-0.1-0.1-0.2-0.2-0.2-0.3c0-0.1,0-0.2,0-0.3c0.1-0.4,0.3-0.8,0.4-1.2c-2.3-0.5-4.5-1-6.8-1.5C70.4,90,67.1,89.2,63.7,88.5
		L63.7,88.5L63.7,88.5z"/>
	<path class="st0" d="M137.6,104.8c-4.1-0.9-8.3-1.8-12.4-2.8c-4-0.9-8.1-1.8-12.1-2.7c-1.1-0.2-2.2-0.5-3.3-0.7
		c-0.1,0.7-0.3,1.4-0.5,2.1c6.8,1.5,13.6,3,20.4,4.5c5.4,1.2,10.8,2.4,16.2,3.6c2.3,0.5,4.6,1,6.9,1.5c0.5,0.1,1.1,0.2,1.6,0.3
		c0.3,0,0.5,0.1,0.8,0.1c0.6,0.1,1.2,0.2,1.8,0.3c0,0,0,0,0,0c0,0,0,0,0,0c0,0,0,0,0.1,0c0.1,0,0.1,0,0.2,0c0,0,0,0,0,0
		c0.1,0,0.2,0,0.3,0c0,0,0,0,0,0c0,0,0,0,0.1,0c0.4,0.1,0.8-0.2,0.9-0.6c0.1-0.4-0.2-0.8-0.6-0.9c0,0,0,0-0.1,0c0,0,0,0,0,0
		c-0.1,0-0.1-0.1-0.2-0.1c0,0,0,0,0,0c0,0,0,0-0.1,0c0,0-0.1,0-0.1,0c-0.4-0.1-0.8-0.2-1.2-0.4c-0.5-0.1-0.9-0.2-1.4-0.4
		c-0.7-0.2-1.5-0.4-2.3-0.6c-0.9-0.2-1.8-0.4-2.7-0.6C145.7,106.6,141.6,105.7,137.6,104.8L137.6,104.8L137.6,104.8z M157.1,111.1
		C157.1,111.1,157.1,111.1,157.1,111.1C157.1,111.1,157.1,111.1,157.1,111.1L157.1,111.1L157.1,111.1z"/>
	<path class="st0" d="M157.6,109.5C157.6,109.5,157.6,109.5,157.6,109.5C157.6,109.5,157.6,109.5,157.6,109.5L157.6,109.5
		L157.6,109.5z"/>
	<path class="st0" d="M157.8,109.6C157.8,109.6,157.8,109.6,157.8,109.6C157.8,109.6,157.8,109.6,157.8,109.6L157.8,109.6
		L157.8,109.6z"/>
	<path class="st0" d="M157.4,111.1C157.4,111.1,157.4,111.1,157.4,111.1C157.4,111.1,157.4,111.1,157.4,111.1L157.4,111.1
		L157.4,111.1z"/>
	<path class="st0" d="M157.2,111.1C157.2,111.1,157.2,111.1,157.2,111.1C157.2,111.1,157.2,111.1,157.2,111.1L157.2,111.1
		L157.2,111.1z"/>
	<path class="st0" d="M40.7,92.6c-2.8,2.2-5.6,4.4-8.4,6.6c-0.2,0.1-0.2,0.4-0.1,0.5c0.1,0.2,0.4,0.2,0.5,0.1
		c2.8-2.3,5.6-4.4,8.4-6.6c0.2-0.1,0.2-0.4,0.1-0.5c-0.1-0.1-0.1-0.1-0.2-0.1C40.9,92.5,40.8,92.5,40.7,92.6L40.7,92.6L40.7,92.6z"
		/>
	<path class="st0" d="M44.6,91.4c-2.2,1.8-4.4,3.5-6.7,5.2c-1.1,0.9-2.3,1.8-3.4,2.7c-1.1,0.9-2.3,1.8-3.4,2.8
		c-0.2,0.2-0.3,0.5-0.1,0.8c0.2,0.2,0.5,0.3,0.8,0.1c1-0.9,2.1-1.7,3.1-2.6c1.1-0.9,2.2-1.9,3.4-2.8c2.2-1.8,4.5-3.7,6.8-5.5
		c0.2-0.1,0.2-0.4,0.1-0.5c-0.1-0.1-0.1-0.1-0.2-0.1C44.8,91.3,44.7,91.3,44.6,91.4L44.6,91.4L44.6,91.4z"/>
	<path class="st0" d="M37.7,98.6c-2.1,1.7-4.2,3.2-6.2,5c-0.2,0.2-0.3,0.5-0.1,0.8c0.2,0.2,0.5,0.3,0.8,0.1c1-0.9,2-1.7,3-2.6
		c1-0.8,2.1-1.6,3.1-2.5c0.2-0.2,0.3-0.5,0.1-0.7c-0.1-0.1-0.2-0.2-0.3-0.2C37.9,98.5,37.8,98.5,37.7,98.6L37.7,98.6L37.7,98.6z"/>
	<path class="st0" d="M43.9,96c-3,2.4-6.1,4.6-8.9,7.2c-0.1,0.1-0.2,0.2-0.2,0.4c0,0.2,0,0.3,0.1,0.4c0.2,0.2,0.6,0.3,0.8,0.1
		c1.4-1.3,2.8-2.5,4.2-3.6c1.5-1.2,3.1-2.4,4.6-3.6c0.2-0.2,0.3-0.5,0.1-0.7c-0.1-0.1-0.2-0.2-0.3-0.2C44.2,95.9,44,95.9,43.9,96
		L43.9,96L43.9,96z"/>
	<path class="st0" d="M39.3,104c-1.9,1.4-3.7,2.8-5.6,4.2c-0.9,0.7-1.8,1.4-2.7,2.1c-0.9,0.7-1.8,1.4-2.7,2.2
		c-0.3,0.2-0.3,0.6-0.1,0.9c0.2,0.3,0.6,0.3,0.9,0.1c0.9-0.7,1.8-1.5,2.7-2.2c0.9-0.7,1.8-1.5,2.7-2.2c1.8-1.5,3.6-2.9,5.5-4.3
		c0.2-0.2,0.2-0.5,0.1-0.7c-0.1-0.1-0.2-0.2-0.3-0.2C39.6,103.9,39.4,103.9,39.3,104L39.3,104L39.3,104z"/>
	<path class="st0" d="M41.8,105c-4.1,3-8.3,6-12.3,9.1c-0.3,0.2-0.3,0.6-0.1,0.9c0.2,0.3,0.6,0.3,0.9,0.1c4-3.1,8.1-6.2,12.2-9.2
		c0.2-0.2,0.3-0.5,0.1-0.7c-0.1-0.1-0.2-0.2-0.3-0.2C42.1,104.9,42,104.9,41.8,105L41.8,105L41.8,105z"/>
	<path class="st0" d="M35.9,112.3c-2.8,1.9-5.5,4-8.1,6.1c-0.2,0.2-0.2,0.4-0.1,0.6c0.1,0.2,0.4,0.2,0.6,0.1
		c2.6-2.2,5.3-4.3,8.1-6.2c0.2-0.1,0.2-0.4,0.1-0.6c-0.1-0.1-0.1-0.1-0.2-0.2C36.2,112.2,36,112.2,35.9,112.3L35.9,112.3L35.9,112.3
		z"/>
	<path class="st0" d="M34,116.7c-2,1.4-3.9,2.9-5.8,4.4c-0.2,0.1-0.2,0.4-0.1,0.6c0.1,0.2,0.4,0.2,0.6,0.1c1.9-1.5,3.8-3,5.8-4.4
		c0.2-0.1,0.2-0.4,0.1-0.5c-0.1-0.1-0.1-0.1-0.2-0.1C34.2,116.6,34.1,116.6,34,116.7L34,116.7L34,116.7z"/>
	<path class="st0" d="M31.9,128.8c-2.5,1.8-5.1,3.6-7.4,5.7c-0.1,0.1-0.2,0.2-0.2,0.4c0,0.2,0,0.3,0.1,0.5c0.2,0.3,0.6,0.3,0.9,0.1
		c1.1-1.1,2.3-2.1,3.6-3c1.2-1,2.5-1.9,3.7-2.8c0.2-0.2,0.3-0.6,0.1-0.8c-0.1-0.1-0.2-0.2-0.3-0.2C32.2,128.7,32,128.7,31.9,128.8
		L31.9,128.8L31.9,128.8z"/>
	<path class="st0" d="M34,129.9c-3.1,2.3-6.2,4.6-9.1,7c-0.2,0.1-0.2,0.4-0.1,0.5c0.1,0.2,0.4,0.2,0.5,0.1c3-2.4,6-4.7,9.1-7
		c0.2-0.1,0.2-0.4,0.1-0.5c-0.1-0.1-0.1-0.1-0.2-0.1C34.2,129.8,34.1,129.8,34,129.9L34,129.9L34,129.9z"/>
	<path class="st0" d="M28.7,135.9c-2.2,1.7-4.4,3.3-6.5,5c-0.2,0.2-0.2,0.4-0.1,0.6c0.2,0.2,0.5,0.2,0.7,0.1
		c2.1-1.7,4.3-3.4,6.5-5.1c0.2-0.1,0.2-0.4,0.1-0.6c-0.1-0.1-0.2-0.1-0.2-0.2C29,135.8,28.8,135.8,28.7,135.9L28.7,135.9L28.7,135.9
		z"/>
	<path class="st0" d="M28.2,138.6c-2.2,1.7-4.4,3.2-6.4,5.2c-0.1,0.1-0.2,0.2-0.2,0.4c0,0.2,0,0.3,0.1,0.4c0.1,0.1,0.2,0.2,0.4,0.2
		c0.1,0,0.2,0,0.3,0c0.1,0,0.2-0.1,0.3-0.2c0.1-0.1,0.2-0.2,0.3-0.3c0,0,0,0,0,0c0.9-0.9,1.8-1.7,2.8-2.5c1-0.8,2.1-1.6,3.1-2.5
		c0.2-0.2,0.3-0.5,0.1-0.7c-0.1-0.1-0.2-0.2-0.3-0.2C28.5,138.5,28.3,138.5,28.2,138.6L28.2,138.6L28.2,138.6z M22.9,144.4
		C22.9,144.4,23,144.3,22.9,144.4C23,144.3,22.9,144.4,22.9,144.4L22.9,144.4L22.9,144.4z"/>
	<path class="st0" d="M112.4,155.7c-1.5,1.2-3.1,2.4-4.5,3.7c-0.2,0.2-0.3,0.5-0.1,0.7c0.2,0.2,0.5,0.3,0.7,0.1
		c1.5-1.2,3.1-2.4,4.6-3.6c0.2-0.2,0.3-0.5,0.1-0.8c-0.1-0.1-0.2-0.2-0.3-0.2C112.7,155.6,112.5,155.6,112.4,155.7L112.4,155.7
		L112.4,155.7z"/>
	<path class="st0" d="M117.3,154.6c-3.1,2.4-6.3,4.7-9.4,7.2c-0.2,0.2-0.3,0.5-0.1,0.7c0.2,0.2,0.5,0.3,0.7,0.1
		c1.5-1.2,3-2.4,4.5-3.6c1.6-1.2,3.2-2.5,4.8-3.7c0.2-0.1,0.2-0.4,0.1-0.6c-0.1-0.1-0.1-0.1-0.2-0.2
		C117.5,154.5,117.4,154.5,117.3,154.6L117.3,154.6L117.3,154.6z"/>
	<path class="st0" d="M113.1,160.3c-1.6,1.3-3.3,2.6-5,3.9c-0.3,0.2-0.4,0.7-0.1,1c0.2,0.3,0.7,0.4,1,0.1c1.6-1.3,3.3-2.6,4.9-3.9
		c0.3-0.2,0.4-0.7,0.1-1c-0.1-0.1-0.2-0.2-0.4-0.3C113.5,160.1,113.3,160.1,113.1,160.3L113.1,160.3L113.1,160.3z"/>
	<path class="st0" d="M113.7,162.9c-1.4,1.1-2.8,2.1-4.2,3.1c-0.4,0.3-0.5,0.9-0.2,1.3c0.3,0.4,0.9,0.4,1.3,0.2
		c1.4-1,2.8-2.1,4.1-3.2c0.4-0.3,0.4-0.8,0.2-1.2c-0.1-0.2-0.3-0.3-0.5-0.3C114.1,162.7,113.9,162.8,113.7,162.9L113.7,162.9
		L113.7,162.9z"/>
	<path class="st0" d="M84.7,68.6c-0.6,2.6-1.2,5.1-1.8,7.7c-0.8,3.2-1.5,6.3-2.2,9.5c-0.6,2.6-1.2,5.3-1.8,7.9
		c0.1,0,0.1,0.1,0.1,0.1c0.5-0.1,0.9-0.2,1.4-0.2c0.5-2.4,1-4.9,1.6-7.3c0.7-3.2,1.4-6.4,2-9.6c0.6-2.7,1.1-5.3,1.7-8
		c0.1-0.3-0.1-0.5-0.4-0.6C85,68.2,84.7,68.3,84.7,68.6L84.7,68.6L84.7,68.6z"/>
	<path class="st0" d="M115,74.7c-0.3,1.4-0.7,2.8-1,4.2c-0.4,1.4-0.7,2.8-1.1,4.3c-0.8,3.2-1.5,6.4-2.3,9.6
		c-0.6,2.8-1.3,5.7-1.9,8.5c0.4,0.4,0.8,0.7,1.2,1.1c0.1,0.1,0.2,0.2,0.2,0.2c0.7-3.1,1.3-6.1,2-9.2c0.7-3.2,1.4-6.5,2-9.7
		c0.3-1.4,0.5-2.9,0.8-4.3c0.2-1.3,0.5-2.6,0.8-3.9c0-0.3,0.1-0.6,0.1-0.8c0-0.1-0.2-0.2-0.3-0.3C115.2,74.3,115,74.5,115,74.7
		L115,74.7L115,74.7z"/>
	<path class="st0" d="M93.2,66.3c-1.3,0-2.6,0.1-3.8,0.3c-0.8,0.1-1.6,0.3-2.3,0.5c-0.3,0.1-0.6,0.2-0.9,0.3
		c-0.4,0.1-0.8,0.4-1.2,0.6c0,0-0.1,0-0.1,0.1c-0.1,0.2-0.1,0.4-0.2,0.6c0.1,0.2,0.3,0.4,0.6,0.3c0.6-0.2,1.2-0.3,1.8-0.4
		c0.6-0.2,1.2-0.3,1.8-0.4c1-0.2,2.1-0.3,3.2-0.4c0,0,0.1,0,0.1,0c0,0,0,0,0,0c3.1-0.1,6.1,0.3,9.1,0.9c-0.1,0-0.1,0-0.2,0
		c3.4,0.8,6.7,2,9.8,3.6c1.5,0.8,2.9,1.7,4.2,2.7c0.2,0.2,0.6,0.1,0.8-0.1c0-0.2,0.1-0.4,0.1-0.6c0-0.1-0.1-0.2-0.2-0.2
		c-2-1.6-4.2-2.9-6.5-4c-2.5-1.2-5.2-2.1-7.9-2.8c-0.3-0.1-0.5-0.1-0.8-0.2C98.1,66.6,95.6,66.3,93.2,66.3L93.2,66.3L93.2,66.3z
		 M92.1,67.7C92.1,67.7,92.1,67.7,92.1,67.7C92.1,67.7,92.1,67.7,92.1,67.7L92.1,67.7L92.1,67.7z"/>
	<path class="st0" d="M92.1,67.7C92.1,67.7,92,67.7,92.1,67.7C92,67.7,92.1,67.7,92.1,67.7L92.1,67.7L92.1,67.7z"/>
	<path class="st0" d="M87.1,73.8c-0.4,2-0.9,4-1.4,6c-0.6,2.4-1.1,4.9-1.7,7.4c-0.5,2.1-0.9,4.1-1.4,6.2c0,0,0,0.1,0,0.1
		c0.1,0,0.1,0,0.2,0c0.1,0,0.1,0,0.2,0c0.3,0,0.5-0.1,0.8-0.1c0.4-1.9,0.8-3.9,1.2-5.8c0.5-2.5,1.1-4.9,1.6-7.4
		c0.4-2,0.8-4.1,1.3-6.1c0-0.2-0.1-0.4-0.3-0.5C87.4,73.4,87.2,73.6,87.1,73.8L87.1,73.8L87.1,73.8z"/>
	<path class="st0" d="M110.5,78.5c-0.2,1.1-0.5,2.2-0.8,3.3c-0.3,1.1-0.6,2.2-0.8,3.3c-0.6,2.5-1.2,4.9-1.7,7.4
		c-0.5,2.2-1,4.3-1.5,6.5c0.2,0.1,0.4,0.3,0.6,0.4c0.2,0.1,0.4,0.3,0.6,0.4c0.5-2.3,1-4.5,1.5-6.8c0.5-2.5,1-5,1.5-7.5
		c0.2-1.1,0.4-2.2,0.6-3.3c0.2-1,0.4-2,0.6-3c0-0.2,0.1-0.4,0.1-0.6c0-0.1-0.1-0.2-0.2-0.2C110.7,78.2,110.6,78.3,110.5,78.5
		L110.5,78.5L110.5,78.5z"/>
	<path class="st0" d="M93.7,72c-1,0-2,0.1-3,0.2c-0.6,0.1-1.2,0.2-1.8,0.4c-0.2,0.1-0.5,0.1-0.7,0.2c-0.3,0.1-0.6,0.3-0.9,0.4
		c0,0,0,0-0.1,0c-0.1,0.2-0.1,0.3-0.2,0.5c0.1,0.2,0.3,0.3,0.5,0.3c0.5-0.1,0.9-0.2,1.4-0.3c0.5-0.1,0.9-0.2,1.4-0.3
		c0.8-0.2,1.6-0.2,2.4-0.3c0,0,0.1,0,0.1,0c0,0,0,0,0,0c2.4-0.1,4.7,0.2,7,0.7c0,0-0.1,0-0.1,0c2.6,0.6,5.2,1.5,7.6,2.8
		c1.1,0.6,2.2,1.3,3.2,2.1c0.2,0.1,0.4,0.1,0.6-0.1c0-0.2,0-0.3,0.1-0.5c0-0.1-0.1-0.1-0.1-0.2c-1.5-1.2-3.2-2.2-5-3.1
		c-2-0.9-4-1.6-6.1-2.1c-0.2,0-0.4-0.1-0.6-0.1C97.5,72.2,95.6,72,93.7,72L93.7,72L93.7,72z M92.9,73.1
		C92.9,73.1,92.9,73.1,92.9,73.1C92.9,73.1,92.9,73.1,92.9,73.1L92.9,73.1L92.9,73.1z"/>
	<path class="st0" d="M92.9,73.1C92.8,73.1,92.8,73.1,92.9,73.1C92.8,73.1,92.8,73.1,92.9,73.1L92.9,73.1L92.9,73.1z"/>
	<path class="st0" d="M102.7,76.1c-2.5,1.6-4.9,3.2-7.4,4.7c-1.2,0.8-2.5,1.6-3.7,2.4c-0.7,0.4-1.4,0.9-2.1,1.3
		c-0.4,0.2-0.7,0.5-1.1,0.7c-0.3,0.2-0.5,0.3-0.8,0.5c0,0-0.1,0-0.1,0c-0.1,0-0.2,0.2-0.2,0.3c0,0.1,0,0.2,0.1,0.3
		c0.1,0.1,0.2,0.2,0.3,0.2c0.1,0,0.2,0,0.2,0c0.1,0,0.1-0.1,0.2-0.1c0,0,0,0,0,0c0.2-0.1,0.4-0.2,0.5-0.4c0.4-0.2,0.7-0.5,1.1-0.7
		c0.7-0.5,1.4-0.9,2.1-1.3c0.7-0.4,1.3-0.9,2-1.3c0.6-0.4,1.1-0.7,1.7-1.1c2.5-1.6,5-3.2,7.6-4.9c0.2-0.1,0.2-0.3,0.1-0.5
		c-0.1-0.1-0.1-0.1-0.2-0.2C102.8,76.1,102.7,76.1,102.7,76.1L102.7,76.1L102.7,76.1z"/>
	<path class="st0" d="M101.8,80.7c-0.2,0-0.3,0.1-0.5,0.2c-0.3,0.2-0.6,0.4-0.9,0.6c-0.6,0.4-1.2,0.8-1.8,1.2
		c-1.4,1-2.8,1.9-4.2,2.9c-1.3,0.9-2.7,1.8-4,2.6c-1.3,0.9-2.6,1.7-4,2.6c-0.2,0.1-0.2,0.3-0.1,0.5c0.1,0.2,0.3,0.2,0.5,0.1
		c1.3-0.8,2.5-1.6,3.8-2.4c1.4-0.9,2.7-1.8,4.1-2.6c1.4-0.9,2.9-1.8,4.3-2.6c0.6-0.4,1.3-0.8,1.9-1.2c0.3-0.2,0.6-0.4,0.9-0.5
		c0.2-0.1,0.4-0.3,0.6-0.5c0.2-0.2,0.2-0.5,0.1-0.7c-0.1-0.1-0.2-0.2-0.3-0.2C101.9,80.6,101.8,80.6,101.8,80.7L101.8,80.7
		L101.8,80.7z"/>
	<path class="st0" d="M106.7,77.4c-0.2,0.1-0.3,0.2-0.5,0.3c-0.2,0.1-0.4,0.2-0.6,0.4c-0.5,0.3-1,0.7-1.6,1
		c-0.3,0.2-0.3,0.5-0.2,0.8c0.2,0.3,0.5,0.3,0.8,0.2c0.5-0.3,1-0.7,1.6-1c0.2-0.1,0.4-0.2,0.6-0.4c0.1-0.1,0.3-0.2,0.4-0.3
		c0.2-0.2,0.2-0.5,0.1-0.7c-0.1-0.1-0.2-0.2-0.4-0.2C106.9,77.4,106.8,77.4,106.7,77.4L106.7,77.4L106.7,77.4z"/>
	<path class="st0" d="M101.1,84.3c-1.5,1-3.1,2-4.6,2.9c-0.7,0.4-1.3,0.8-2,1.2c-0.3,0.2-0.7,0.4-1,0.6c-0.2,0.1-0.4,0.3-0.7,0.4
		c-0.1,0.1-0.2,0.1-0.3,0.3c-0.2,0.2-0.2,0.6-0.1,0.8c0.2,0.2,0.5,0.4,0.8,0.3c0.1,0,0.2-0.1,0.2-0.1c0.2-0.1,0.4-0.2,0.5-0.4
		c0.3-0.2,0.7-0.5,1-0.7c0.7-0.4,1.3-0.9,2-1.3c1.6-1.1,3.2-2.1,4.8-3.1c0.2-0.2,0.3-0.5,0.2-0.7c-0.1-0.1-0.2-0.2-0.3-0.2
		C101.4,84.2,101.2,84.2,101.1,84.3L101.1,84.3L101.1,84.3z"/>
	<path class="st2" d="M89.6,92.1c-4.5-0.4-9.1,0.2-13.4,1.6c-2.1,0.7-4.2,1.6-6.2,2.7c-1.9,1-3.6,2.3-5.3,3.7
		c-1.7,1.5-3.3,3.1-4.7,4.8c0,0,0,0,0,0c-2.7,3.3-4.6,7-6,11c-1.4,4.3-1.9,9-1.6,13.5c0.2,2.2,0.6,4.3,1.2,6.4
		c0.6,2.1,1.4,4.1,2.3,6c1.9,3.9,4.6,7.5,7.8,10.4c1.7,1.5,3.5,2.9,5.4,4c1.9,1.2,3.9,2.1,6,2.9c2.1,0.8,4.3,1.4,6.6,1.7
		c1.1,0.2,2.2,0.3,3.3,0.4c1.2,0.1,2.4,0.1,3.5,0c2.2-0.1,4.4-0.4,6.6-0.9c2.2-0.5,4.3-1.3,6.3-2.2c4-1.8,7.6-4.4,10.6-7.5
		c1.6-1.6,3-3.5,4.2-5.4c1.3-1.9,2.3-4,3.1-6.1c0.8-2.1,1.4-4.2,1.8-6.4c0.2-1,0.3-2,0.4-3c0.1-1.1,0.1-2.2,0.2-3.3
		c0-2.2-0.3-4.4-0.7-6.6c-0.4-2.1-1-4.2-1.8-6.2c-0.8-2-1.8-4-3-5.8c-1.1-1.8-2.5-3.5-3.9-5.1c-3-3.2-6.6-5.8-10.6-7.7
		c-1.9-0.9-3.9-1.6-6-2.2c-0.4-0.1-0.8-0.2-1.2-0.3C93,92.5,91.3,92.3,89.6,92.1L89.6,92.1L89.6,92.1z M90.2,93.4
		C90.2,93.4,90.2,93.4,90.2,93.4C90.2,93.4,90.2,93.4,90.2,93.4L90.2,93.4L90.2,93.4z M98.3,95.6c2.7,1,5.3,2.4,7.7,4c0,0,0,0,0,0
		c2.4,1.7,4.5,3.7,6.4,5.9c1.8,2.2,3.3,4.6,4.5,7.1c1.2,2.6,2.1,5.3,2.6,8.1c0-0.1,0-0.1,0-0.2c0.3,1.5,0.4,3,0.5,4.6
		c0.1,1.4,0,2.8-0.1,4.2c-0.1,0.6-0.1,1.3-0.2,1.9c-0.1,0.4-0.1,0.7-0.2,1.1c-0.1,0.4-0.2,0.8-0.2,1.3c-0.3,1.5-0.8,3-1.3,4.4
		c-1,2.7-2.3,5.2-3.9,7.5c-1.7,2.3-3.6,4.4-5.8,6.3c-2.2,1.8-4.6,3.3-7.2,4.6c-1.3,0.6-2.6,1.1-3.9,1.6c-1.4,0.5-2.8,0.8-4.3,1.1
		c-2.9,0.5-5.7,0.6-8.6,0.4c-1.4-0.1-2.8-0.3-4.2-0.6c-1.5-0.3-3-0.8-4.4-1.3c-1.3-0.5-2.6-1.1-3.9-1.7c-1.3-0.7-2.5-1.4-3.7-2.3
		c-2.3-1.7-4.4-3.6-6.3-5.8c0,0,0,0,0,0c-1.8-2.2-3.3-4.5-4.5-7c-1.2-2.6-2.1-5.4-2.6-8.2c0,0.1,0,0.1,0,0.2
		c-0.5-2.9-0.7-5.9-0.4-8.8c0.1-1.5,0.4-3,0.7-4.5c0.3-1.5,0.8-2.9,1.3-4.3c1-2.7,2.4-5.2,4-7.6c0.3-0.4,0.6-0.8,0.9-1.2
		c1.4-1.8,3-3.4,4.8-4.9c2.2-1.8,4.6-3.3,7.1-4.5c2.6-1.2,5.4-2.1,8.3-2.6c-0.1,0-0.1,0-0.2,0c2.9-0.5,5.9-0.7,8.9-0.4
		c-0.1,0-0.1,0-0.2,0C92.7,94,95.5,94.6,98.3,95.6L98.3,95.6L98.3,95.6z M98.1,95.5C98.2,95.5,98.2,95.6,98.1,95.5
		C98.2,95.6,98.2,95.5,98.1,95.5L98.1,95.5L98.1,95.5z M54.2,123.7C54.2,123.7,54.2,123.8,54.2,123.7
		C54.2,123.8,54.2,123.7,54.2,123.7L54.2,123.7L54.2,123.7z M54,124c0,0,0,0.1,0,0.1C54,124.1,54,124.1,54,124C54,124,54,124,54,124
		L54,124L54,124z M57.2,140.6C57.2,140.7,57.2,140.7,57.2,140.6C57.2,140.7,57.2,140.7,57.2,140.6L57.2,140.6L57.2,140.6z
		 M67.8,153.3C67.8,153.4,67.9,153.4,67.8,153.3C67.9,153.4,67.8,153.4,67.8,153.3L67.8,153.3L67.8,153.3z M75.7,157.5
		C75.8,157.5,75.8,157.5,75.7,157.5C75.8,157.5,75.8,157.5,75.7,157.5L75.7,157.5L75.7,157.5z"/>
	<path class="st1" d="M87,99.2c-2.3,0-4.5,0.3-6.7,0.9c-2.2,0.5-4.3,1.4-6.3,2.5c-2,1.1-3.9,2.4-5.6,3.9c-1.7,1.5-3.1,3.2-4.4,5.1
		c-1.3,1.8-2.3,3.8-3.1,5.9c-0.8,2.2-1.4,4.5-1.6,6.8c-0.5,4.3,0,8.7,1.5,12.7c1.5,4.2,4,8,7.3,11c1.7,1.6,3.7,3,5.7,4.1
		c2,1.1,4.2,1.9,6.5,2.5c2,0.5,4,0.7,6,0.8c0.1,0,0.3,0,0.4-0.1c3.5,0.1,7-0.5,10.3-1.7c4.2-1.5,8-4.1,11.1-7.5
		c1.5-1.6,2.8-3.5,3.8-5.4c1.1-2,1.9-4.1,2.5-6.4c0.5-2,0.8-4.1,0.9-6.3c0.1-2.2-0.1-4.3-0.5-6.5c-0.8-4.3-2.7-8.3-5.4-11.7
		c-2.6-3.4-6.1-6.1-9.9-8c-1.9-0.9-4-1.6-6-2.1C91.2,99.5,89.1,99.2,87,99.2L87,99.2L87,99.2z M96.5,102.4c2.2,0.8,4.2,1.9,6.1,3.2
		c1.8,1.3,3.5,2.9,5,4.6c1.5,1.8,2.7,3.7,3.7,5.8c0-0.1-0.1-0.1-0.1-0.2c1,2.1,1.7,4.4,2.2,6.7c0,0,0,0,0,0c0.4,2.3,0.5,4.6,0.3,6.9
		c-0.1,1.1-0.3,2.2-0.5,3.2c-0.2,1.2-0.6,2.4-1,3.6c0-0.1,0-0.1,0.1-0.2c-0.8,2.3-2,4.4-3.4,6.4c0,0,0.1-0.1,0.1-0.1
		c0,0-0.1,0.1-0.1,0.1c0,0,0,0,0,0c0,0,0,0,0,0c-1.4,1.9-2.9,3.6-4.7,5.1c-1.8,1.5-3.8,2.7-5.9,3.7c0.1,0,0.1,0,0.2-0.1
		c-2.2,1-4.4,1.7-6.7,2.1c-1.7,0.3-3.5,0.4-5.2,0.4c-0.1-0.1-0.3-0.1-0.5-0.1c-0.2,0-0.5,0-0.7,0c-1.2-0.1-2.4-0.3-3.5-0.5
		c-1.2-0.3-2.5-0.6-3.7-1.1c0.1,0,0.2,0.1,0.2,0.1c-2.3-0.8-4.4-2-6.4-3.4c-1.9-1.4-3.6-3-5.1-4.7c0,0.1,0.1,0.1,0.1,0.2
		c-1.6-1.9-2.9-3.9-3.9-6.1c0,0.1,0.1,0.1,0.1,0.2c-1-2.1-1.7-4.4-2.1-6.7c0,0,0,0.1,0,0.1c-0.2-1.2-0.3-2.3-0.4-3.5
		c-0.1-1.2,0-2.3,0.1-3.5c0.2-2.3,0.7-4.6,1.5-6.9c0.4-1,0.8-2,1.3-3c0.6-1.1,1.2-2.2,1.9-3.2c0,0.1-0.1,0.1-0.1,0.2
		c1.4-1.9,3-3.6,4.8-5.1c0,0,0,0-0.1,0.1c1.8-1.5,3.7-2.7,5.8-3.7c0,0,0,0,0,0c2.1-0.9,4.2-1.6,6.5-2.1c-0.1,0-0.1,0-0.2,0
		c2.4-0.4,4.9-0.6,7.4-0.3c-0.1,0-0.1,0-0.2,0C91.8,101.1,94.2,101.6,96.5,102.4L96.5,102.4L96.5,102.4z M96.3,102.4
		c0,0,0.1,0,0.1,0C96.4,102.4,96.3,102.4,96.3,102.4L96.3,102.4L96.3,102.4z M113.4,122.5C113.4,122.6,113.4,122.6,113.4,122.5
		C113.4,122.6,113.4,122.6,113.4,122.5L113.4,122.5L113.4,122.5z M62.2,117.9C62.2,117.9,62.2,118,62.2,117.9
		C62.2,118,62.2,118,62.2,117.9C62.2,117.9,62.2,117.9,62.2,117.9L62.2,117.9L62.2,117.9z M113.8,129.4
		C113.8,129.4,113.8,129.5,113.8,129.4C113.8,129.5,113.8,129.4,113.8,129.4L113.8,129.4L113.8,129.4z M60.8,124.8
		C60.8,124.8,60.8,124.8,60.8,124.8C60.8,124.8,60.8,124.8,60.8,124.8L60.8,124.8L60.8,124.8z M60.9,132.1c0,0,0,0.1,0,0.1
		C60.9,132.2,60.9,132.2,60.9,132.1C60.9,132.1,60.9,132.1,60.9,132.1L60.9,132.1L60.9,132.1z M71.9,148.9
		C71.9,148.9,71.9,148.9,71.9,148.9C71.9,148.9,71.9,148.9,71.9,148.9L71.9,148.9L71.9,148.9z M78,152.4
		C78,152.4,78.1,152.4,78,152.4C78.1,152.4,78.1,152.4,78,152.4C78,152.4,78,152.4,78,152.4L78,152.4L78,152.4z M109,142.7
		C109,142.7,109,142.7,109,142.7C109,142.7,109,142.7,109,142.7C109,142.7,109,142.7,109,142.7L109,142.7L109,142.7z"/>
	<path class="st0" d="M90.6,105.3c-12-1.6-23.1,6.8-24.8,18.9s6.8,23.1,18.9,24.8c12,1.6,23.1-6.8,24.8-18.9c1.5-11.4-6-22-17-24.5
		C91.8,105.4,91.2,105.3,90.6,105.3L90.6,105.3L90.6,105.3z M96.9,114c-0.5-0.4-1.1-0.7-1.6-1c-0.5-0.3-0.2-1,0.3-0.9
		c0,0,0.1,0,0.1,0c2,1.1,3.8,2.6,5.3,4.3c0.5,0.6,1,1.2,1.4,1.9c0.4,0.7,0.9,1.5,1.2,2.3c0.6,1.3,1,2.6,1.2,4
		c0.1,0.4,0.1,0.8,0.2,1.2c0,0.2,0,0.5,0.1,0.7c0,0.2,0,0.5,0,0.7c0,0.5,0,1,0,1.4c0,0.4-0.1,0.8-0.1,1.3c0-0.1,0-0.2,0-0.4
		c0,0.4-0.1,0.8-0.2,1.3c-0.1,0.4-0.1,0.8-0.3,1.1c-0.2,0.7-0.5,1.5-0.8,2.2c-0.6,1.4-1.3,2.7-2.2,3.9c-0.1,0.1-0.2,0.3-0.3,0.4
		c-0.1,0.2-0.3,0.4-0.4,0.6c-0.2,0.3-0.5,0.4-0.8,0.5c-0.3,0.1-0.7,0.1-1,0c-0.5-0.1-1-0.4-1.2-0.9c-0.3-0.4-0.4-1-0.3-1.5
		c0.1-0.3,0.2-0.7,0.5-0.9c0.1-0.1,0.3-0.2,0.4-0.3c0.1-0.1,0.1-0.1,0.2-0.1c0,0,0.1,0,0.1-0.1c0.5-0.5,1.1-1.1,1.5-1.7
		c0.1-0.1,0.2-0.3,0.3-0.4c0.3-0.4,0.5-0.9,0.8-1.3c0.2-0.3,0.3-0.6,0.5-1c0.1-0.2,0.2-0.5,0.3-0.7c0.2-0.6,0.4-1.1,0.5-1.7
		c0.1-0.3,0.1-0.6,0.2-0.9c0-0.3,0.1-0.7,0.1-1c0,0.1,0,0.2,0,0.3c0-0.4,0.1-0.8,0.1-1.2c0-0.4,0-0.7,0-1.1c0-0.3,0-0.7-0.1-1.1
		c0-0.3-0.1-0.7-0.1-1c-0.1-0.7-0.3-1.3-0.5-1.9c-0.1-0.4-0.2-0.7-0.4-1.1c-0.1-0.3-0.2-0.6-0.4-0.8c-0.3-0.6-0.7-1.2-1.1-1.8
		c-0.3-0.4-0.7-0.9-1-1.3c0,0,0.1,0.1,0.1,0.1C98.6,115.4,97.8,114.7,96.9,114L96.9,114L96.9,114z M90.2,140.2
		c0.3-1.1,1.4-1.9,2.6-1.6c1.1,0.3,1.9,1.4,1.6,2.6c-0.3,1.1-1.4,1.9-2.6,1.6C90.6,142.5,89.9,141.4,90.2,140.2L90.2,140.2
		L90.2,140.2z"/>
</g>
</svg>
