<?xml version="1.0" encoding="utf-8"?>
<!-- Generator: Adobe Illustrator 22.0.0, SVG Export Plug-In . SVG Version: 6.00 Build 0)  -->
<svg version="1.1" id="Layer_1" xmlns="http://www.w3.org/2000/svg" xmlns:xlink="http://www.w3.org/1999/xlink" x="0px" y="0px"
	 width="210px" height="210px" viewBox="0 0 210 210" style="enable-background:new 0 0 210 210;" xml:space="preserve">
<style type="text/css">
	.st0{fill:#5C5B60;}
</style>
<g>
	<g>
		<g>
			<path class="st0" d="M17.5,91.2c-1.8-3.3-1.8-6.9-1.8-7.3c-0.1-6.4,2-11.9,6.1-16.6c3.4-3.9,8.3-7.1,14.5-9.6
				c10.8-4.4,23.6-5.9,32.2-6.6c8.9-0.8,15.7-1.6,21.1-2.8c0.6-2.4,1.5-5.1,2.7-7.6c2.3-4.6,5.2-7.3,8.6-8.3c0.2,0,3.1-0.8,5.2,0.5
				c1.1,0.7,1.7,1.8,2,3.3c0.3,1.8-0.3,3.5-0.4,3.7c-1.4,3.7-4.9,6.5-10.9,8.6c0,0-2.1,0.7-3.2,1c-0.2,1.8-0.3,3.9-0.3,6.2
				c0.1,21.4-8.9,41.9-32.1,40.7c-4.9-0.2-9.5-2.6-9.5-2.6c-2-1.1-3.8-2.4-5.4-3.9c-1.9-1.9-3.3-4.3-4.2-6.8
				c-0.9-2.4-1.3-4.8-1.2-7.3c0.1-1.9,0.4-3.9,1.1-5.8c1.1-3.2,2.6-5.1,2.8-5.4c2.4-3.3,6.2-5.7,10.7-6.7c2.1-0.4,4.2-0.6,6.4-0.4
				c2.2,0.2,4.2,0.7,6.1,1.6c3.2,1.5,5.6,4,7,7.1c0.9,2,1.4,4.3,1.4,6.8c0,1.3-0.1,2.7-0.2,3.8c0,0-0.3,2.8-2,4.7
				c0,0-0.5,0.7-1.6,0.7C71.9,82.3,70.8,82,70,81c0,0-0.7-0.7,0.2-1.7c0.6-0.6,2.8-3.9,2.7-8.3c0,0,0.2-7.6-7.1-10.6
				c-2.9-1.1-6.4-1.2-9.7-0.5c-3.8,0.9-6.9,2.9-9.1,5.5c-1.9,2.1-2.8,5.3-2.8,5.3c-0.6,1.7-0.9,3.4-1,5.2c-0.1,2.2,0.3,4.4,1.1,6.4
				c0.8,2.3,2.1,4.3,3.7,6.1c1.4,1.4,3,2.6,4.8,3.6c0,0,5.2,3.1,12.2,2.1c2.6-0.4,5-1.4,7.2-3.1c3.5-2.5,6.6-6.4,9.1-11.6
				c3-6.3,5.4-14.6,6.9-24.6c0-0.2,0.2-1.9,0.7-4.2c-5.3,1.1-11.9,2-20.3,2.7c-17.8,1.4-26.6,4.3-31.6,6.4c-3,1.3-5.7,2.6-8,4.2
				c-4.3,3.2-9,8.5-9.6,16.9c-0.6,9.3,7.4,11.4,8.7,10.9c0.9-0.4,1.4,0.1,1.4,0.1c0.9,0.7,1.1,2.1,0.7,2.9c-0.4,1-1.3,1.4-1.3,1.4
				c-3.4,1.6-7.9-0.6-9.1-1.7C18.8,93.5,17.5,91.2,17.5,91.2z M106,36.6c-0.1-0.9-0.4-1.4-1-1.8c-0.4-0.3-0.9-0.4-1.4-0.4
				c0,0-1.3-0.1-2.7,0.7c-1.9,1.1-5.4,3.6-6.9,12.2c3.1-0.9,5.7-2.1,7.6-3.3c2.2-1.4,3.5-3,4.2-4.7C105.8,38.8,106.1,37.6,106,36.6z
				"/>
			<path class="st0" d="M121.3,65.8c-0.6,0.9-1.5,2.4-2.7,4.2c0,0-2.7,4.2-6.8,5.1c-2,3.9-5.4,7.1-9.4,6.9c-3.3-0.2-5.4-2.4-6.1-4.6
				C95.1,74,96.6,70,96.6,70c0.7-1.9,1.7-3.5,2.9-4.6c0.2-5.1,4.7-8.7,9.7-7.8c7,1.3,4,13.5,4,13.5c-0.1,0.7-0.4,1.4-0.6,2.1
				c2.6-0.9,4.5-3.8,4.5-3.8c0.8-1.3,1.7-2.6,2.6-4.1c0.2-0.4,0.6-0.6,1-0.6C121.3,64.8,121.6,65.3,121.3,65.8z M109.1,75.4
				c-0.9,0-1.9-0.1-2.9-0.4c-2.4-0.6-4-2.3-4.9-3.6c-3.3,8.7,1.9,8.9,1.9,8.9c1.1,0.3,2.9-0.9,4.5-2.9
				C108.2,76.8,108.7,76.2,109.1,75.4z M103.5,63.3c1.1-0.2,1.9-0.2,2.6-0.1c0.9,0.1,1.1,1.3,0.4,1.7c-1.4,0.9-2.6,2.3-3.4,3.5
				c0.7,3.9,4,4.8,4,4.8c1.1,0.3,2.1,0.4,3,0.4c0.3-0.8,0.6-1.6,0.9-2.4c3.2-12-2.1-12.1-2.1-12.1C105.6,58.9,104.1,61.3,103.5,63.3
				z"/>
			<path class="st0" d="M118.8,80.3c0,0,5.1,2,15.3-14.9c0.2-0.4,0.6-0.6,0.9-0.6c0.6,0,0.9,0.6,0.6,1.1
				c-2.4,4.3-10.4,16.8-17.1,16.1c0,0-4.8,0-1.8-9.5c4.7-14.7,19.1-33.6,19.1-33.6c0.5-0.6,1.3-1,2.1-1h1.8c0.8,0,1.3,0.9,0.8,1.6
				c0,0-12.9,18.7-19.7,33.2C119,76.6,117.8,79.7,118.8,80.3z"/>
		</g>
		<g>
			<path class="st0" d="M113.1,109.6c-0.8,0.7-1.6,1-1.9,1.1c-0.1,0.1-0.2,0.1-0.3,0.1c-0.7-0.2-1.3-0.5-1.9-0.9
				c0,0.1-0.1,0.1-0.1,0.2c-0.4,0.7-1.6,2.4-4.9,2.5c-2.2,0-3.6-0.6-4.5-1.1c-1.8-1.2-2.1-3.5-1.6-4.9c0.7-1.9,2.4-3.5,5.8-4.7
				c-0.2-1.4,0-2.5,0.1-2.9c0.5-2.9,2.5-5,4.8-5c2.2,0,2.7,1.3,2.8,2.4c0.1,0.3,0.2,1.7-0.8,3.1c-0.1,0.1-0.1,0.2-0.2,0.3
				c-0.7,0.9-1.7,1.6-2.6,2.1c-0.4,0.2-0.8,0.4-1,0.6c-0.1,0-0.1,0-0.2,0.1c-0.1,0-0.1,0.1-0.1,0.1c-0.1,0-0.1,0-0.1,0
				c-0.2,0.1-0.3,0.2-0.3,0.2c-0.2,0.1-0.3,0.1-0.4,0.2c0.3,1,0.7,2.1,1.5,3.1c0.1,0.1,0.1,0.2,0.2,0.2c0.1-0.9,0.2-1.8,0.1-2.4
				c0-0.2,0.1-0.7,0.8-0.5c1.2,0.5,1.5,1.4,1.5,1.4c0.4,1,0.5,2.3,0.1,3.5c1.1,0.5,2.2,0.7,2.9,0.8c0.1,0,0.3,0.1,0.3,0.2
				C113.3,109.3,113.2,109.5,113.1,109.6z M106.9,108.3c-1.6-1.5-2.4-3.2-2.8-4.7c-0.3,0.2-0.6,0.3-0.8,0.4
				c-0.2,0.1-0.3,0.2-0.5,0.3c-0.5,0.3-1,0.8-1.4,1.5c-0.3,0.5-0.4,0.9-0.4,0.9c-0.8,2.2,0.1,3.2,0.9,3.5c0.4,0.3,1,0.5,1.9,0.4
				c0.7-0.1,1.4-0.4,1.8-0.8c0.4-0.3,0.6-0.5,0.6-0.5c0,0,0,0,0-0.1C106.5,109,106.7,108.7,106.9,108.3z M109,95.3
				c-0.4-0.1-1-0.1-1.8,0.6c-0.3,0.2-0.9,0.8-1.2,1.9c-0.3,0.8-0.5,1.9-0.3,3.3c1.3-0.6,2.5-1.3,3.4-2.1c0.3-0.3,0.9-0.9,1.1-1.6
				c0.2-0.7,0.1-1.2-0.1-1.4C110,96,109.8,95.5,109,95.3z"/>
		</g>
		<g>
			<path class="st0" d="M52.6,118.6c-10.6,5.9-19.1,9.9-26.1,11.9c-4.1,1.2-7.7,1.7-10.9,1.7c-2.1,0-4-0.2-5.8-0.8
				c-1.4-0.4-3.6-1.7-3.6-1.7c-0.9-0.8-5.5-4.6-3.7-9.9c0,0,0.2-0.9,1.1-1.3c0.7-0.3,1.8-0.4,2.9,0.3c0,0,1,0.4,0.4,1.7
				c-0.4,0.9-1.4,7.9,4.9,9.3c1.2,0.2,2.4,0.3,3.7,0.3c8.3,0,19.7-4.2,36-13.4c0.4-0.2,7.3-4.4,13.9-7.6c2.6-1.2,4.9-1.8,6.9-1.8
				c2.1,0,4,0.7,5.6,2.1c0.4,0.3,2.1,1.9,2.4,6.5c0.2,2.7-0.2,6.1-1.1,9.8c-1.1,4.6-3.1,10-5.8,16c-2.6,5.6-5.3,11.2-8.3,16.1
				c0.6,0.3,1.3,0.6,2.1,0.9c3.9,1.7,8.4,3.6,13.1,5.4c6.7,2.4,15.1,3.4,15.1,3.4c9.1,1.3,15.1-3.8,15.6-5.6
				c0.4-1.3,1.4-0.9,1.4-0.9c1.3,0.3,2.1,1.1,2.3,1.7c0.4,0.9,0,1.9,0,1.9s-0.2,0.5-0.6,1.2c-0.8,1.3-1.9,2.3-3,3
				c-1.6,1.1-3.6,1.9-6,2.3c-3.4,0.5-7.4,0.2-12.3-0.9c-8.8-1.9-18.6-6.1-26.4-9.5c-0.8-0.3-1.6-0.7-2.4-1c-0.7,1.1-1.5,2.1-2.4,3.1
				c-1.4,1.7-2.8,3.1-4.2,4.2c-8.6,7.2-16.4,4.1-17.9,3.3c-2.9-1.2-4.4-3.2-4.7-5.9c-0.2-2.5,1.4-5.3,4.2-7.3c2.4-1.8,5.6-2.9,9-3.3
				c3.5-0.3,7.1,0.1,10.8,1.4c5.4-7.7,10.4-17.5,13.6-26.3c6.3-17.2,2.3-19.1,1.3-19.3c-1.9-0.3-4.2,0.2-7,1.5
				c-3.4,1.6-6.8,3.5-9.4,4.9C56.3,116.4,52.6,118.6,52.6,118.6z M44.7,168.3c4-1.3,8.4-5.5,12.7-11.3c-3.3-1-6.4-1.3-9.3-1.1
				c-2.2,0.2-5.3,0.9-8,2.9c-2.2,1.6-3.4,3.8-3.3,5.5c0.1,1.7,1.2,3.1,3.1,3.9C41.9,169.3,44.7,168.3,44.7,168.3z"/>
			<path class="st0" d="M109.2,140.8c-2.3,3.8-10.4,16.8-15.4,16.1c0,0-4.6-0.1-2.6-7.6c-3.2,4.1-6.9,7.9-9.6,7.6c0,0-5.4-0.1-2-9.5
				c2.2-6,6.2-11.6,7.9-13.9c0.5-0.6,1.3-1,2-1h1.8c0.8,0,1.3,0.9,0.9,1.6c-3.3,5-12.6,19.7-10.2,21.1c0,0,3.7,0.6,12-12.5
				c2.1-4.1,4.6-7.6,5.8-9.2c0.5-0.6,1.3-1,2-1h1.8c0.8,0,1.3,0.9,0.9,1.6c-3.2,5-12.6,19.7-10.2,21.1c0,0,4.1,0.6,13.6-14.9
				c0.2-0.4,0.6-0.6,0.9-0.6C109.1,139.7,109.4,140.3,109.2,140.8z"/>
			<path class="st0" d="M109.2,155.3c1.9,1,4.1,0.2,5.9-1c2.6-1.7,4.7-4.4,4.7-4.4c1.8-2.2,4.1-5.3,6.6-9.6c0.2-0.4,0.6-0.6,0.9-0.6
				c0.6,0,0.9,0.6,0.6,1.1c-1.2,1.9-3.9,6.4-7.1,10.2c0,0-2.4,3.1-5.7,5.1c-2.1,1.3-4.8,1.8-7.3,0.9c-3.1-1.2-4.4-3.6-4.5-6
				c-0.2-3.8,2.2-7.9,2.2-7.9c3.3-5.9,9.5-10.7,14-10.3c0,0,0.8,0.1,1.3,0.3c0.7,0.3,1.1,0.8,1.4,1.2c0.4,0.8,0.6,1.7,0.4,2.9
				c0,0-0.8,4.4-2.9,3.3c-1.6-0.8-0.4-2.4-0.4-2.4c0.3-0.6,0.9-1.2,1.1-1.6c0.8-1.4,0.1-1.8,0.1-1.8c-0.3-0.1-2.4-0.8-9.8,9.7
				C105.5,152.9,109.2,155.3,109.2,155.3z"/>
			<path class="st0" d="M152,140.8c-2.3,3.8-10.4,16.8-15.4,16.1c0,0-5.8-0.2-2.3-9.5c0.7-1.9,3.2-6.8,3.2-6.8
				c3.3-5.9,2.6-6.1,2.6-6.1c-0.9-0.8-3.8,1.5-7.6,7.5c-3.9,6.1-6.6,13.9-6.6,13.9c-0.1,0.4-0.7,0.7-1.1,0.4
				c-4.4-2.8,0.3-13.4,0.3-13.4c6.3-14.9,16.3-29.2,16.3-29.2c0.5-0.6,1.3-1,2.1-1h1.7c0.9,0,1.3,0.9,0.8,1.6
				c-8.2,12.9-13.3,22.4-16.7,29.1c-1.4,2.8-2.3,5.2-2.8,7.1c1.9-4.9,6-12.1,9.8-15.8c1.6-1.6,3.3-2.6,5.4-2.2
				c6.1,1.3-0.6,11.4-0.6,11.4c-3,5.3-5.5,10.4-4.1,11.2c0,0,4.1,0.6,13.6-14.9c0.2-0.4,0.6-0.6,0.9-0.6
				C151.9,139.7,152.2,140.3,152,140.8z"/>
			<path class="st0" d="M172.4,140.8c-0.6,0.9-1.5,2.4-2.7,4.2c0,0-2.7,4.2-6.8,5.1c-2,3.9-5.4,7.1-9.4,6.9
				c-3.3-0.2-5.4-2.4-6.1-4.6c-1.2-3.5,0.3-7.5,0.3-7.5c0.7-1.9,1.7-3.5,2.9-4.6c0.2-5.1,4.7-8.7,9.7-7.8c7,1.3,4,13.5,4,13.5
				c-0.1,0.7-0.4,1.4-0.6,2.1c2.6-0.9,4.5-3.8,4.5-3.8c0.8-1.3,1.7-2.6,2.6-4.1c0.2-0.4,0.6-0.6,1-0.6
				C172.4,139.7,172.7,140.3,172.4,140.8z M160.2,150.3c-0.9,0-1.9-0.1-2.9-0.4c-2.4-0.6-4-2.3-4.9-3.6c-3.3,8.7,1.9,8.9,1.9,8.9
				c1.1,0.2,2.9-0.9,4.5-2.9C159.3,151.8,159.8,151.1,160.2,150.3z M154.5,138.3c1.1-0.2,1.9-0.2,2.6-0.1c0.9,0.1,1.1,1.3,0.4,1.7
				c-1.4,0.9-2.6,2.2-3.4,3.5c0.7,3.9,4,4.8,4,4.8c1.1,0.3,2.1,0.4,3,0.4c0.3-0.8,0.6-1.6,0.9-2.4c3.2-12-2.1-12.1-2.1-12.1
				C156.7,133.8,155.2,136.3,154.5,138.3z"/>
		</g>
	</g>
</g>
</svg>
